<svg width="0" height="0" class="hidden">
  <symbol xmlns="http://www.w3.org/2000/svg" viewBox="0 0 25 25" id="calendar">
    <path id="noun-calendar-4969635" d="M113.784,25.721v-1.25a1.136,1.136,0,1,0-2.273,0v1.136h-4.546V24.471a1.136,1.136,0,1,0-2.273,0v1.136h-4.546V24.471a1.136,1.136,0,1,0-2.273,0v1.25A5.682,5.682,0,0,0,93.33,31.29V42.653a5.682,5.682,0,0,0,5.682,5.682h13.636a5.682,5.682,0,0,0,5.682-5.682V31.29a5.682,5.682,0,0,0-4.546-5.568ZM99.58,42.653a1.7,1.7,0,1,1,1.205-.5A1.7,1.7,0,0,1,99.58,42.653Zm0-5.682a1.7,1.7,0,1,1,1.205-.5A1.7,1.7,0,0,1,99.58,36.971Zm6.25,5.682a1.7,1.7,0,1,1,1.205-.5A1.705,1.705,0,0,1,105.83,42.653Zm0-5.682a1.7,1.7,0,1,1,1.205-.5A1.705,1.705,0,0,1,105.83,36.971Zm6.25,5.682a1.7,1.7,0,1,1,1.205-.5A1.7,1.7,0,0,1,112.08,42.653Zm0-5.682a1.7,1.7,0,1,1,1.205-.5A1.7,1.7,0,0,1,112.08,36.971Z" transform="translate(-93.33 -23.335)"></path>
  </symbol>
  <symbol xmlns="http://www.w3.org/2000/svg" viewBox="0 0 23 25" id="gym">
    <path id="noun-gym-3805420" d="M1012.762,1007.419l-.533-.911a1.7,1.7,0,0,0-.352-.407l.562-.319a1.651,1.651,0,0,0,.774-.976,1.533,1.533,0,0,0-.148-1.2l-.533-.911a1.577,1.577,0,0,0-.985-.729,1.7,1.7,0,0,0-1.244.174l-5.231,2.978-3.735-6.379,5.23-2.978a1.658,1.658,0,0,0,.776-.975,1.534,1.534,0,0,0-.148-1.2l-.533-.912a1.583,1.583,0,0,0-.985-.728,1.7,1.7,0,0,0-1.244.174l-.562.319a1.71,1.71,0,0,0-.182-.5l-.534-.911a1.568,1.568,0,0,0-.984-.728,1.69,1.69,0,0,0-1.244.173l-9.514,5.417a1.651,1.651,0,0,0-.774.976,1.54,1.54,0,0,0,.147,1.2l.534.911a1.677,1.677,0,0,0,.352.408l-.563.32a1.661,1.661,0,0,0-.774.975,1.534,1.534,0,0,0,.148,1.2l.533.912a1.582,1.582,0,0,0,.985.728,1.7,1.7,0,0,0,1.244-.174l5.235-2.981,3.735,6.379-5.233,2.98h0a1.662,1.662,0,0,0-.774.975,1.538,1.538,0,0,0,.148,1.206l.533.911a1.583,1.583,0,0,0,.985.728,1.691,1.691,0,0,0,1.244-.173l.561-.32a1.7,1.7,0,0,0,.182.5l.534.911a1.569,1.569,0,0,0,.983.728,1.69,1.69,0,0,0,1.244-.173l9.512-5.415a1.657,1.657,0,0,0,.776-.976A1.54,1.54,0,0,0,1012.762,1007.419Z" transform="translate(-990.274 -990.237)"></path>
  </symbol>
</svg>