<svg id="Group_28903" data-name="Group 28903" xmlns="http://www.w3.org/2000/svg" width="78.752" height="78.776" viewBox="0 0 78.752 78.776">
  <path id="Path_52491" data-name="Path 52491" d="M68.775,445.32a14.93,14.93,0,0,1,27.78-7.611l2.1-39.928H61.984L64.7,449.4h4.652A14.933,14.933,0,0,1,68.775,445.32Z" transform="translate(-21.286 -382.847)" fill="#fff"/>
  <path id="Path_52492" data-name="Path 52492" d="M73.42,407.09a2.717,2.717,0,1,0-2.717-2.717A2.717,2.717,0,0,0,73.42,407.09Z" transform="translate(-5.556 -375.856)" fill="#c9f0fd"/>
  <path id="Path_52496" data-name="Path 52496" d="M79.347,439.287a14.941,14.941,0,1,0-14.941-14.941A14.94,14.94,0,0,0,79.347,439.287Z" transform="translate(-16.916 -361.874)" fill="#008f7a"/>
  <path id="Path_52497" data-name="Path 52497" d="M75.852,430.359a9.507,9.507,0,1,0-9.508-9.509A9.508,9.508,0,0,0,75.852,430.359Z" transform="translate(-13.421 -358.378)" fill="rgba(0,88,148,0.17)"/>
  <path id="Path_52498" data-name="Path 52498" d="M79.251,415.522a14.839,14.839,0,0,1,7.674,2.14l.6-11.458a2.919,2.919,0,0,0-1.073-.188c-3.545,0-3.545,5.432-7.077,5.432s-3.532-5.432-7.063-5.432-3.518,5.432-7.049,5.432a2.977,2.977,0,0,1-.8-.109l.733,14.1a14.94,14.94,0,0,1,14.058-9.921Z" transform="translate(-16.82 -367.99)" fill="#c9f0fd"/>
  <g id="Group_28852" data-name="Group 28852" transform="translate(1.309 1.353)">
    <path id="Path_52495" data-name="Path 52495" d="M52.012,413.281a4.076,4.076,0,0,0,0,8.152H90.044l-.429-8.152Z" transform="translate(-47.937 -356.236)" fill="#008f7a"/>
    <path id="Path_52500" data-name="Path 52500" d="M68.724,407.719a10.289,10.289,0,0,0,.935-1.032,10.98,10.98,0,0,1-2.964,4.893,11.05,11.05,0,1,1-15.362-15.888,10.99,10.99,0,0,1,5.006-2.754,10.036,10.036,0,0,0-1.069.892,9.616,9.616,0,0,0-.251,13.639,9.732,9.732,0,0,0,13.706.25Z" transform="translate(-47.926 -392.938)" fill="#008f7a"/>
  </g>
  <path id="Path_52501" data-name="Path 52501" d="M52.854,451.627h41.7A16.319,16.319,0,0,0,109.9,462.494c12.213.236,20.38-13.782,14.217-24.245l2.08-39.522a1.355,1.355,0,0,0-1.356-1.43H88.169a1.368,1.368,0,0,0-1.272.889,1.374,1.374,0,0,0-.084.541l.281,5.342a4.075,4.075,0,0,0-6.755,4.316A32.645,32.645,0,0,0,51.5,440.955a5.429,5.429,0,0,0,1.358,10.673Zm44.1-15.305-.406-7.826c2.082-.283,3.158-1.94,4.038-3.3.944-1.455,1.455-2.095,2.378-2.095s1.445.639,2.393,2.1c.966,1.486,2.168,3.337,4.67,3.337s3.7-1.848,4.669-3.331c.828-1.27,1.325-1.921,2.058-2.069l-.422,8.084a16.4,16.4,0,0,0-19.378,5.1ZM109.9,459.776c-11.094.115-17.53-13.065-10.882-21.676,5.433-7.695,17.864-7.075,22.514,1.116C127.044,447.912,120.258,459.987,109.9,459.776Zm13.509-59.762-1.833,34.833a16.317,16.317,0,0,0-2.6-2.187l.556-10.653c.056-1.29-1.366-1.626-2.429-1.621-2.51,0-3.715,1.851-4.683,3.337-1.691,2.827-3.1,2.827-4.785,0-2.423-4.439-6.9-4.456-9.327,0-.948,1.461-1.461,2.1-2.393,2.1-.566-.07-1.174-.244-1.652.191a1.352,1.352,0,0,0-.506,1.127l.72,13.841a16.167,16.167,0,0,0-.636,7.93H92.174l-2.573-48.9Zm-40.674,6.792a1.359,1.359,0,1,1,.4.959A1.359,1.359,0,0,1,82.736,406.806Zm1.358,4.074a30.02,30.02,0,0,1,3.368.188l1.562,29.693H54.213A29.913,29.913,0,0,1,84.095,410.88Zm-31.24,32.6H89.168l.285,5.432h-36.6a2.716,2.716,0,1,1,0-5.432Z" transform="translate(-47.471 -383.721)" fill="#005894"/>
  <g id="Group_28851" data-name="Group 28851" transform="translate(0.028)">
    <path id="Path_52494" data-name="Path 52494" d="M85.3,402A31.256,31.256,0,0,0,49.391,432.9v1.357h37.6Z" transform="translate(-44.035 -375.856)" fill="#006da8"/>
    <path id="Path_52502" data-name="Path 52502" d="M74.057,413.98l-2.606,2.933-.8-.9a1.363,1.363,0,0,0-1.918-.112,1.359,1.359,0,0,0-.113,1.918l1.811,2.039a1.365,1.365,0,0,0,.46.334,1.37,1.37,0,0,0,1.111,0,1.367,1.367,0,0,0,.46-.334l3.622-4.074a1.358,1.358,0,0,0-.113-1.918,1.355,1.355,0,0,0-.982-.342A1.365,1.365,0,0,0,74.057,413.98Z" transform="translate(-9.954 -354.446)" fill="#005894"/>
    <path id="Path_52503" data-name="Path 52503" d="M59.843,416.889A12.528,12.528,0,0,0,71.8,407.933a1.358,1.358,0,0,0-2.369-1.22A8.314,8.314,0,1,1,57.973,394.9a1.365,1.365,0,0,0-1.124-2.417C42.687,396.262,45.3,416.687,59.843,416.889Zm-7.6-18.406c-2.6,8.093,5.373,16.082,13.371,13.81C56.482,418.8,45.3,407.439,52.24,398.483Z" transform="translate(-47.481 -392.455)" fill="#005894"/>
  </g>
  <path id="Path_52504" data-name="Path 52504" d="M74.293,409.321a4.072,4.072,0,1,0-2.881-1.192A4.079,4.079,0,0,0,74.293,409.321Zm0-5.432a1.354,1.354,0,1,1-.96.4A1.366,1.366,0,0,1,74.293,403.889Z" transform="translate(-6.43 -376.73)" fill="#005894"/>
</svg>
