<svg xmlns="http://www.w3.org/2000/svg" width="78.255" height="87.153" viewBox="0 0 78.255 87.153">
  <g id="Group_28906" data-name="Group 28906" transform="translate(0)">
    <path id="Path_52560" data-name="Path 52560" d="M292.816,416.968H216.607a1.021,1.021,0,0,1-1.021-1.023V402.467a1.021,1.021,0,0,1,1.021-1.024h76.209a1.023,1.023,0,0,1,1.021,1.024v13.477a1.021,1.021,0,0,1-1.021,1.021Zm-75.189-2.044h74.165V403.488H217.627Z" transform="translate(-215.583 -372.086)" fill="#005894"/>
    <path id="Path_52561" data-name="Path 52561" d="M292.818,413.435a1.015,1.015,0,0,1-.863-.472L282.453,398H266.122a1.022,1.022,0,0,1,0-2.044h16.893a1.022,1.022,0,0,1,.86.475l9.8,15.437A1.021,1.021,0,0,1,292.818,413.435Zm-76.212,0a1.022,1.022,0,0,1-.86-1.569l9.8-15.437a1.018,1.018,0,0,1,.86-.475H243.3a1.022,1.022,0,0,1,0,2.044H226.97l-9.5,14.965A1.019,1.019,0,0,1,216.606,413.435Z" transform="translate(-215.585 -382.032)" fill="#005894"/>
    <path id="Path_52562" data-name="Path 52562" d="M283.069,450.544H221.341a4.414,4.414,0,0,1-4.406-4.409V407.25a1.021,1.021,0,0,1,2.041,0v38.885a2.366,2.366,0,0,0,2.365,2.365h61.728a2.37,2.37,0,0,0,2.365-2.365V407.25a1.021,1.021,0,0,1,2.041,0v38.885a4.41,4.41,0,0,1-4.406,4.406Z" transform="translate(-213.139 -363.391)" fill="#005894"/>
    <path id="Path_52563" data-name="Path 52563" d="M257.448,400.741h-33.2a1.021,1.021,0,0,1,0-2.041h33.2A1.021,1.021,0,0,1,257.448,400.741Z" transform="translate(-201.72 -377.057)" fill="#005894"/>
    <path id="Path_52564" data-name="Path 52564" d="M262.162,442.5a1.024,1.024,0,0,1-1.024-1.023V412.727H224.23v28.748a1.021,1.021,0,0,1-2.041,0V411.7a1.022,1.022,0,0,1,1.021-1.021h38.952a1.022,1.022,0,0,1,1.021,1.021v29.772a1.023,1.023,0,0,1-1.021,1.023Z" transform="translate(-203.619 -355.346)" fill="#005894"/>
    <path id="Path_52565" data-name="Path 52565" d="M243.594,414.687c-1.5,0-11.838.191-12.4-.143a12.659,12.659,0,1,1,12.923,0,1.01,1.01,0,0,1-.523.143ZM232,412.646h11.3a10.616,10.616,0,0,0-5.652-19.6c-10.626,0-14.582,13.966-5.652,19.6Z" transform="translate(-198.528 -391.003)" fill="#005894"/>
    <path id="Path_52566" data-name="Path 52566" d="M232,406.146c-3.852,0-4.971-4.184-3.132-4.446,1.322-.188.973,1.375,1.738,2.01,1.386,1.156,4.285-.138,3.2-2.112-.8-1.457-5.4-.436-5.4-4.631,0-4.746,7.378-5.146,8.036-.461a1.021,1.021,0,0,1-2.022.284c-.309-2.2-3.97-2.036-3.97.177,0,2.508,3.622.863,5.146,3.647a3.751,3.751,0,0,1-3.6,5.531Z" transform="translate(-193.091 -387.034)" fill="rgba(0,88,148,0.21)"/>
    <path id="Path_52567" data-name="Path 52567" d="M230.171,396.22c-1.277,0-1.021-1.527-1.021-2.547a1.021,1.021,0,0,1,2.041,0c0,1.023.256,2.547-1.021,2.547Z" transform="translate(-191.044 -387.992)" fill="rgba(0,88,148,0.21)"/>
    <path id="Path_52568" data-name="Path 52568" d="M230.171,400.666c-1.279,0-1.021-1.544-1.021-2.59a1.021,1.021,0,0,1,2.041,0c0,1.046.261,2.59-1.021,2.59Z" transform="translate(-191.044 -380.013)" fill="rgba(0,88,148,0.21)"/>
    <path id="Path_52569" data-name="Path 52569" d="M290.477,402.171H216.312v11.436h74.165Z" transform="translate(-214.267 -370.768)" fill="rgba(0,109,168,0.73)"/>
    <path id="Path_52570" data-name="Path 52570" d="M284.119,406.967H217.661v37.861a2.366,2.366,0,0,0,2.365,2.365h10.367V418.442a1.022,1.022,0,0,1,1.021-1.021h38.952a1.022,1.022,0,0,1,1.021,1.021v28.751h10.367a2.368,2.368,0,0,0,2.365-2.365V406.967Z" transform="translate(-211.823 -362.084)" fill="#006da8"/>
    <path id="Path_52571" data-name="Path 52571" d="M216.612,410.077H289.1l-8.506-13.4h-15.53a12.8,12.8,0,0,1-3.3,5.677h7.693a1.021,1.021,0,0,1,0,2.041H258.795c-1.2,0-8.042.124-11.031,0H236.255a1.021,1.021,0,0,1,0-2.041h7.693a12.777,12.777,0,0,1-3.3-5.677h-15.53l-8.506,13.4Z" transform="translate(-213.729 -380.715)" fill="rgba(0,109,168,0.46)"/>
    <path id="Path_52572" data-name="Path 52572" d="M230.675,411.33h11.3a10.616,10.616,0,0,0-5.652-19.6C225.7,391.729,221.742,405.7,230.675,411.33Zm9.026-8.059a3.7,3.7,0,0,1-2.334,5.373c.008.858-.1,1.7-1.043,1.7-.911,0-1.043-.782-1.043-1.608-3.18-.537-4.013-4.136-2.311-4.378,1.322-.188.973,1.375,1.738,2.011,1.316,1.1,4.313-.09,3.2-2.112-.8-1.457-5.4-.436-5.4-4.631a3.621,3.621,0,0,1,2.775-3.6c.006-.228.017-.45.017-.652a1.021,1.021,0,0,1,2.041,0c0,.174.008.36.014.551a3.736,3.736,0,0,1,3.189,3.242,1.021,1.021,0,0,1-2.022.284c-.307-2.171-3.97-2.027-3.97.177C234.555,402.13,238.177,400.485,239.7,403.272Z" transform="translate(-197.197 -389.687)" fill="#008f7a"/>
  </g>
</svg>
