<svg xmlns="http://www.w3.org/2000/svg" xmlns:xlink="http://www.w3.org/1999/xlink" width="487.667" height="282.683" viewBox="0 0 487.667 282.683">
  <defs>
    <linearGradient id="linear-gradient" x1="-0.758" y1="2.587" x2="0.242" y2="2.587" gradientUnits="objectBoundingBox">
      <stop offset="0" stop-color="#dae3fe"/>
      <stop offset="1" stop-color="#e9effd"/>
    </linearGradient>
    <clipPath id="clip-path">
      <path id="Path_54392" data-name="Path 54392" d="M568,217.566l120.516,72.749L802.14,221.871V115.9H577.479Z" transform="translate(-568 -115.9)" fill="none"/>
    </clipPath>
    <linearGradient id="linear-gradient-2" x1="0.607" y1="-0.627" x2="0.367" y2="1.875" gradientUnits="objectBoundingBox">
      <stop offset="0" stop-color="#008f7a"/>
      <stop offset="1" stop-color="#005894"/>
    </linearGradient>
    <linearGradient id="linear-gradient-3" x1="-0.01" y1="0.5" x2="0.984" y2="0.5" xlink:href="#linear-gradient"/>
    <linearGradient id="linear-gradient-4" x1="0.004" y1="0.49" x2="1.004" y2="0.49" xlink:href="#linear-gradient"/>
    <linearGradient id="linear-gradient-5" x1="0.008" y1="0.499" x2="0.988" y2="0.499" xlink:href="#linear-gradient"/>
    <linearGradient id="linear-gradient-6" x1="-0.002" y1="0.505" x2="1.008" y2="0.505" xlink:href="#linear-gradient"/>
    <linearGradient id="linear-gradient-7" x1="-0.002" y1="0.504" x2="1.006" y2="0.504" xlink:href="#linear-gradient"/>
    <linearGradient id="linear-gradient-8" x1="-0.002" y1="0.486" x2="1.015" y2="0.486" xlink:href="#linear-gradient"/>
    <linearGradient id="linear-gradient-9" x1="-0.007" y1="0.51" x2="0.998" y2="0.51" xlink:href="#linear-gradient"/>
    <linearGradient id="linear-gradient-10" x1="-0.014" y1="0.504" x2="0.998" y2="0.504" xlink:href="#linear-gradient"/>
    <linearGradient id="linear-gradient-11" x1="-0.003" y1="0.509" x2="0.998" y2="0.509" xlink:href="#linear-gradient"/>
    <linearGradient id="linear-gradient-12" x1="-0.025" y1="0.514" x2="0.998" y2="0.514" xlink:href="#linear-gradient"/>
    <linearGradient id="linear-gradient-13" x1="-0.004" y1="0.511" x2="1.001" y2="0.511" xlink:href="#linear-gradient"/>
    <linearGradient id="linear-gradient-14" x1="0.001" y1="0.51" x2="0.965" y2="0.51" xlink:href="#linear-gradient"/>
    <linearGradient id="linear-gradient-15" x1="0.001" y1="0.499" x2="1.002" y2="0.499" xlink:href="#linear-gradient"/>
    <linearGradient id="linear-gradient-16" x1="-0.001" y1="0.501" x2="1.001" y2="0.501" xlink:href="#linear-gradient"/>
    <linearGradient id="linear-gradient-17" x1="-0.001" y1="0.498" x2="1.001" y2="0.498" xlink:href="#linear-gradient"/>
    <linearGradient id="linear-gradient-18" x1="-0.017" y1="0.498" x2="0.998" y2="0.498" xlink:href="#linear-gradient"/>
    <linearGradient id="linear-gradient-19" x1="-0.001" y1="0.5" x2="0.998" y2="0.5" xlink:href="#linear-gradient"/>
    <linearGradient id="linear-gradient-20" x1="0" y1="0.512" x2="1" y2="0.512" xlink:href="#linear-gradient"/>
    <linearGradient id="linear-gradient-21" x1="0.002" y1="0.499" x2="1" y2="0.499" xlink:href="#linear-gradient"/>
    <linearGradient id="linear-gradient-22" x1="0.002" y1="0.5" x2="1" y2="0.5" xlink:href="#linear-gradient"/>
    <linearGradient id="linear-gradient-23" x1="0" y1="0.494" x2="1.002" y2="0.494" xlink:href="#linear-gradient"/>
    <linearGradient id="linear-gradient-24" x1="0.001" y1="0.492" x2="0.998" y2="0.492" xlink:href="#linear-gradient"/>
    <linearGradient id="linear-gradient-25" x1="0.001" y1="0.495" x2="0.998" y2="0.495" xlink:href="#linear-gradient"/>
    <linearGradient id="linear-gradient-26" x1="-0.003" y1="0.498" x2="1.002" y2="0.498" xlink:href="#linear-gradient"/>
    <linearGradient id="linear-gradient-27" x1="-0.011" y1="0.5" x2="1.01" y2="0.5" xlink:href="#linear-gradient"/>
    <linearGradient id="linear-gradient-28" x1="-0.002" y1="0.5" x2="0.999" y2="0.5" xlink:href="#linear-gradient"/>
    <linearGradient id="linear-gradient-29" x1="0" y1="0.493" x2="0.972" y2="0.493" xlink:href="#linear-gradient"/>
    <linearGradient id="linear-gradient-30" x1="-0.001" y1="0.501" x2="1" y2="0.501" xlink:href="#linear-gradient"/>
    <linearGradient id="linear-gradient-31" x1="0" y1="0.499" x2="1.036" y2="0.499" xlink:href="#linear-gradient"/>
    <linearGradient id="linear-gradient-32" x1="0.001" y1="0.501" x2="0.998" y2="0.501" xlink:href="#linear-gradient"/>
    <linearGradient id="linear-gradient-33" x1="0.001" y1="0.5" x2="1.003" y2="0.5" xlink:href="#linear-gradient"/>
    <linearGradient id="linear-gradient-34" x1="-0.001" y1="0.491" x2="1.002" y2="0.491" xlink:href="#linear-gradient"/>
    <linearGradient id="linear-gradient-35" x1="-0.001" y1="0.505" x2="1" y2="0.505" xlink:href="#linear-gradient"/>
    <linearGradient id="linear-gradient-36" x1="0.001" y1="0.502" x2="1.002" y2="0.502" xlink:href="#linear-gradient"/>
    <linearGradient id="linear-gradient-37" x1="-0.002" y1="0.514" x2="1.034" y2="0.514" xlink:href="#linear-gradient"/>
    <linearGradient id="linear-gradient-38" x1="0.003" y1="0.494" x2="1.001" y2="0.494" xlink:href="#linear-gradient"/>
    <linearGradient id="linear-gradient-39" x1="-0.001" y1="0.498" x2="0.997" y2="0.498" xlink:href="#linear-gradient"/>
    <linearGradient id="linear-gradient-40" x1="0.002" y1="0.5" x2="0.998" y2="0.5" xlink:href="#linear-gradient"/>
    <linearGradient id="linear-gradient-41" x1="-0.033" y1="0.486" x2="1" y2="0.486" xlink:href="#linear-gradient"/>
    <linearGradient id="linear-gradient-42" x1="-0.016" y1="0.491" x2="1.001" y2="0.491" xlink:href="#linear-gradient"/>
    <linearGradient id="linear-gradient-43" x1="-0.001" y1="0.5" x2="1" y2="0.5" xlink:href="#linear-gradient"/>
    <linearGradient id="linear-gradient-44" x1="0.004" y1="0.5" x2="1" y2="0.5" xlink:href="#linear-gradient"/>
    <linearGradient id="linear-gradient-45" x1="-0.002" y1="0.501" x2="0.999" y2="0.501" xlink:href="#linear-gradient"/>
    <linearGradient id="linear-gradient-46" x1="0.001" y1="0.5" x2="0.999" y2="0.5" xlink:href="#linear-gradient"/>
    <linearGradient id="linear-gradient-47" x1="0.003" y1="0.5" x2="0.998" y2="0.5" xlink:href="#linear-gradient"/>
    <linearGradient id="linear-gradient-48" x1="0.012" y1="0.507" x2="0.996" y2="0.507" xlink:href="#linear-gradient"/>
    <linearGradient id="linear-gradient-49" x1="0.013" y1="0.506" x2="1" y2="0.506" xlink:href="#linear-gradient"/>
    <linearGradient id="linear-gradient-50" x1="0.003" y1="0.507" x2="1.014" y2="0.507" xlink:href="#linear-gradient"/>
    <linearGradient id="linear-gradient-51" x1="-0.001" y1="0.501" x2="1" y2="0.501" xlink:href="#linear-gradient"/>
    <linearGradient id="linear-gradient-52" x1="-0.006" y1="0.479" x2="0.967" y2="0.479" xlink:href="#linear-gradient"/>
    <linearGradient id="linear-gradient-53" x1="0.004" y1="0.496" x2="0.987" y2="0.496" xlink:href="#linear-gradient"/>
    <linearGradient id="linear-gradient-54" x1="0.011" y1="0.508" x2="0.997" y2="0.508" xlink:href="#linear-gradient"/>
    <linearGradient id="linear-gradient-55" x1="-0.002" y1="0.503" x2="1" y2="0.503" xlink:href="#linear-gradient"/>
    <linearGradient id="linear-gradient-56" x1="-0.001" y1="0.52" x2="1.022" y2="0.52" xlink:href="#linear-gradient"/>
    <linearGradient id="linear-gradient-57" x1="-0.001" y1="0.502" x2="0.999" y2="0.502" xlink:href="#linear-gradient"/>
    <linearGradient id="linear-gradient-58" x1="0.001" y1="0.5" x2="1.001" y2="0.5" xlink:href="#linear-gradient"/>
    <linearGradient id="linear-gradient-59" x1="-0.025" y1="0.489" x2="0.999" y2="0.489" xlink:href="#linear-gradient"/>
    <linearGradient id="linear-gradient-60" x1="-0.003" y1="0.493" x2="0.975" y2="0.493" xlink:href="#linear-gradient"/>
    <linearGradient id="linear-gradient-61" x1="-0.002" y1="0.501" x2="0.997" y2="0.501" xlink:href="#linear-gradient"/>
    <linearGradient id="linear-gradient-62" x1="0.002" y1="0.488" x2="0.975" y2="0.488" xlink:href="#linear-gradient"/>
    <linearGradient id="linear-gradient-63" x1="-0.002" y1="0.51" x2="1.019" y2="0.51" xlink:href="#linear-gradient"/>
    <linearGradient id="linear-gradient-64" x1="0" y1="0.502" x2="1.002" y2="0.502" xlink:href="#linear-gradient"/>
    <linearGradient id="linear-gradient-65" x1="0.001" y1="0.501" x2="0.998" y2="0.501" xlink:href="#linear-gradient"/>
    <linearGradient id="linear-gradient-66" x1="0.001" y1="0.503" x2="1.004" y2="0.503" xlink:href="#linear-gradient"/>
    <linearGradient id="linear-gradient-67" x1="-0.002" y1="0.503" x2="1.001" y2="0.503" xlink:href="#linear-gradient"/>
    <linearGradient id="linear-gradient-68" x1="0" y1="0.488" x2="0.959" y2="0.488" xlink:href="#linear-gradient"/>
    <linearGradient id="linear-gradient-69" x1="0.001" y1="0.499" x2="0.999" y2="0.499" xlink:href="#linear-gradient"/>
    <linearGradient id="linear-gradient-70" x1="0.002" y1="0.5" x2="0.991" y2="0.5" xlink:href="#linear-gradient"/>
    <linearGradient id="linear-gradient-71" x1="0" y1="0.509" x2="1.001" y2="0.509" xlink:href="#linear-gradient"/>
    <linearGradient id="linear-gradient-72" x1="0.003" y1="0.498" x2="0.999" y2="0.498" xlink:href="#linear-gradient"/>
    <linearGradient id="linear-gradient-73" x1="0.003" y1="0.501" x2="1.001" y2="0.501" xlink:href="#linear-gradient"/>
    <linearGradient id="linear-gradient-74" x1="-0.002" y1="0.497" x2="0.997" y2="0.497" xlink:href="#linear-gradient"/>
    <linearGradient id="linear-gradient-75" x1="0.001" y1="0.502" x2="1.004" y2="0.502" xlink:href="#linear-gradient"/>
    <linearGradient id="linear-gradient-76" x1="-0.002" y1="0.501" x2="0.999" y2="0.501" xlink:href="#linear-gradient"/>
    <linearGradient id="linear-gradient-77" x1="-0.002" y1="0.504" x2="1.001" y2="0.504" xlink:href="#linear-gradient"/>
    <linearGradient id="linear-gradient-78" x1="-0.003" y1="0.503" x2="0.999" y2="0.503" xlink:href="#linear-gradient"/>
    <linearGradient id="linear-gradient-79" x1="0.002" y1="0.503" x2="1.002" y2="0.503" xlink:href="#linear-gradient"/>
    <linearGradient id="linear-gradient-80" x1="0" y1="0.5" x2="0.956" y2="0.5" xlink:href="#linear-gradient"/>
    <linearGradient id="linear-gradient-81" x1="0" y1="0.5" x2="1.001" y2="0.5" xlink:href="#linear-gradient"/>
    <linearGradient id="linear-gradient-82" x1="-0.001" y1="0.5" x2="1.001" y2="0.5" xlink:href="#linear-gradient"/>
    <linearGradient id="linear-gradient-83" x1="0.003" y1="0.502" x2="1" y2="0.502" xlink:href="#linear-gradient"/>
    <linearGradient id="linear-gradient-84" x1="0.001" y1="0.499" x2="0.998" y2="0.499" xlink:href="#linear-gradient"/>
    <linearGradient id="linear-gradient-85" x1="0.001" y1="0.495" x2="0.999" y2="0.495" xlink:href="#linear-gradient"/>
    <linearGradient id="linear-gradient-86" x1="0.003" y1="0.499" x2="1.001" y2="0.499" xlink:href="#linear-gradient"/>
    <linearGradient id="linear-gradient-87" x1="0" y1="0.498" x2="1.001" y2="0.498" xlink:href="#linear-gradient"/>
    <linearGradient id="linear-gradient-88" x1="0.001" y1="0.5" x2="0.999" y2="0.5" xlink:href="#linear-gradient"/>
    <linearGradient id="linear-gradient-89" x1="-0.001" y1="0.498" x2="1.017" y2="0.498" xlink:href="#linear-gradient"/>
    <linearGradient id="linear-gradient-90" x1="0" y1="0.494" x2="0.997" y2="0.494" xlink:href="#linear-gradient"/>
    <linearGradient id="linear-gradient-91" x1="0.002" y1="0.495" x2="1.001" y2="0.495" xlink:href="#linear-gradient"/>
    <linearGradient id="linear-gradient-92" x1="0.001" y1="0.491" x2="1.003" y2="0.491" xlink:href="#linear-gradient"/>
    <linearGradient id="linear-gradient-93" x1="0.038" y1="0.479" x2="1.004" y2="0.479" xlink:href="#linear-gradient"/>
    <linearGradient id="linear-gradient-94" x1="0" y1="0.493" x2="1.001" y2="0.493" xlink:href="#linear-gradient"/>
    <linearGradient id="linear-gradient-95" x1="0" y1="0.492" x2="1.001" y2="0.492" xlink:href="#linear-gradient"/>
    <linearGradient id="linear-gradient-96" x1="0.002" y1="0.488" x2="1.005" y2="0.488" xlink:href="#linear-gradient"/>
    <linearGradient id="linear-gradient-97" x1="0.001" y1="0.491" x2="0.999" y2="0.491" xlink:href="#linear-gradient"/>
    <linearGradient id="linear-gradient-98" x1="0.001" y1="0.471" x2="1.014" y2="0.471" xlink:href="#linear-gradient"/>
    <linearGradient id="linear-gradient-99" x1="-0.001" y1="0.491" x2="1" y2="0.491" xlink:href="#linear-gradient"/>
    <linearGradient id="linear-gradient-100" x1="0.006" y1="0.497" x2="1.001" y2="0.497" xlink:href="#linear-gradient"/>
    <linearGradient id="linear-gradient-101" x1="0.002" y1="0.492" x2="1.002" y2="0.492" xlink:href="#linear-gradient"/>
    <linearGradient id="linear-gradient-102" x1="-0.007" y1="0.475" x2="0.991" y2="0.475" xlink:href="#linear-gradient"/>
    <linearGradient id="linear-gradient-103" x1="0.004" y1="0.497" x2="0.993" y2="0.497" xlink:href="#linear-gradient"/>
    <linearGradient id="linear-gradient-104" x1="-0.005" y1="0.494" x2="1" y2="0.494" xlink:href="#linear-gradient"/>
    <linearGradient id="linear-gradient-105" x1="-0.001" y1="0.499" x2="0.996" y2="0.499" xlink:href="#linear-gradient"/>
    <linearGradient id="linear-gradient-106" x1="-0.003" y1="0.496" x2="1.002" y2="0.496" xlink:href="#linear-gradient"/>
    <linearGradient id="linear-gradient-107" x1="0" y1="0.497" x2="0.997" y2="0.497" xlink:href="#linear-gradient"/>
    <linearGradient id="linear-gradient-108" x1="0" y1="0.485" x2="0.973" y2="0.485" xlink:href="#linear-gradient"/>
    <linearGradient id="linear-gradient-109" x1="0" y1="0.494" x2="0.996" y2="0.494" xlink:href="#linear-gradient"/>
    <linearGradient id="linear-gradient-110" x1="0" y1="0.495" x2="1.003" y2="0.495" xlink:href="#linear-gradient"/>
    <linearGradient id="linear-gradient-111" x1="-0.001" y1="0.509" x2="1.032" y2="0.509" xlink:href="#linear-gradient"/>
    <linearGradient id="linear-gradient-112" x1="0.026" y1="0.501" x2="1.002" y2="0.501" xlink:href="#linear-gradient"/>
    <linearGradient id="linear-gradient-113" x1="0" y1="0.487" x2="0.998" y2="0.487" xlink:href="#linear-gradient"/>
    <linearGradient id="linear-gradient-114" x1="0.004" y1="0.496" x2="0.997" y2="0.496" xlink:href="#linear-gradient"/>
    <linearGradient id="linear-gradient-115" x1="-0.014" y1="0.494" x2="1.002" y2="0.494" xlink:href="#linear-gradient"/>
    <linearGradient id="linear-gradient-116" x1="0" y1="0.505" x2="1.023" y2="0.505" xlink:href="#linear-gradient"/>
    <linearGradient id="linear-gradient-117" x1="0.001" y1="0.501" x2="0.996" y2="0.501" xlink:href="#linear-gradient"/>
    <linearGradient id="linear-gradient-118" x1="-0.003" y1="0.495" x2="0.999" y2="0.495" xlink:href="#linear-gradient"/>
    <linearGradient id="linear-gradient-119" x1="-0.001" y1="0.497" x2="1.001" y2="0.497" xlink:href="#linear-gradient"/>
    <linearGradient id="linear-gradient-120" x1="0.003" y1="0.5" x2="0.998" y2="0.5" xlink:href="#linear-gradient"/>
    <linearGradient id="linear-gradient-121" x1="0.001" y1="0.504" x2="1.003" y2="0.504" xlink:href="#linear-gradient"/>
    <linearGradient id="linear-gradient-122" x1="0.002" y1="0.5" x2="1.001" y2="0.5" xlink:href="#linear-gradient"/>
    <linearGradient id="linear-gradient-123" x1="0.041" y1="0.479" x2="1.001" y2="0.479" xlink:href="#linear-gradient"/>
    <linearGradient id="linear-gradient-124" x1="0.003" y1="0.502" x2="1.001" y2="0.502" xlink:href="#linear-gradient"/>
    <linearGradient id="linear-gradient-125" x1="-0.017" y1="0.505" x2="0.996" y2="0.505" xlink:href="#linear-gradient"/>
    <linearGradient id="linear-gradient-126" x1="-0.026" y1="0.506" x2="1.002" y2="0.506" xlink:href="#linear-gradient"/>
    <linearGradient id="linear-gradient-127" x1="3.639" y1="-12.816" x2="-0.055" y2="11.036" gradientUnits="objectBoundingBox">
      <stop offset="0" stop-color="#09005d"/>
      <stop offset="1" stop-color="#1a0f91"/>
    </linearGradient>
    <linearGradient id="linear-gradient-128" x1="-52.546" y1="-0.847" x2="-53.052" y2="2.393" gradientUnits="objectBoundingBox">
      <stop offset="0" stop-color="#ff928e"/>
      <stop offset="1" stop-color="#feb3b1"/>
    </linearGradient>
    <linearGradient id="linear-gradient-129" x1="-10.095" y1="-5.271" x2="-12.612" y2="17.342" xlink:href="#linear-gradient-127"/>
    <linearGradient id="linear-gradient-130" x1="-45.555" y1="-0.224" x2="-46.069" y2="2.54" xlink:href="#linear-gradient-128"/>
    <linearGradient id="linear-gradient-131" x1="-24.114" y1="0.914" x2="-24.03" y2="-0.171" xlink:href="#linear-gradient-127"/>
    <linearGradient id="linear-gradient-132" x1="0.542" y1="-0.072" x2="0.484" y2="1.324" xlink:href="#linear-gradient-128"/>
    <linearGradient id="linear-gradient-133" x1="-73.428" y1="-0.149" x2="-75.182" y2="2.989" xlink:href="#linear-gradient-128"/>
    <linearGradient id="linear-gradient-134" x1="-257.379" y1="-10.488" x2="-258.036" y2="-10.134" xlink:href="#linear-gradient-127"/>
    <linearGradient id="linear-gradient-135" x1="0.423" y1="0.008" x2="0.599" y2="1.002" xlink:href="#linear-gradient-128"/>
    <linearGradient id="linear-gradient-136" x1="2.504" y1="0.131" x2="-0.053" y2="0.564" xlink:href="#linear-gradient-128"/>
    <linearGradient id="linear-gradient-137" x1="-104.285" y1="-49.073" x2="-103.258" y2="-49.073" xlink:href="#linear-gradient-127"/>
    <linearGradient id="linear-gradient-138" x1="-488.501" y1="-225.638" x2="-485.38" y2="-228.012" xlink:href="#linear-gradient-128"/>
    <linearGradient id="linear-gradient-139" x1="0.001" y1="0.498" x2="0.998" y2="0.498" xlink:href="#linear-gradient"/>
    <linearGradient id="linear-gradient-140" x1="0" y1="0.499" x2="1" y2="0.499" xlink:href="#linear-gradient"/>
    <linearGradient id="linear-gradient-141" x1="0" y1="0.5" x2="1" y2="0.5" xlink:href="#linear-gradient"/>
    <linearGradient id="linear-gradient-142" x1="0" y1="0.498" x2="1" y2="0.498" xlink:href="#linear-gradient"/>
    <linearGradient id="linear-gradient-143" x1="0" y1="0.498" x2="1" y2="0.498" xlink:href="#linear-gradient"/>
    <linearGradient id="linear-gradient-144" x1="0.497" y1="-0.098" x2="0.503" y2="1.034" xlink:href="#linear-gradient-2"/>
    <linearGradient id="linear-gradient-145" y1="0.499" x2="1" y2="0.499" gradientUnits="objectBoundingBox">
      <stop offset="0" stop-color="#4042e2"/>
      <stop offset="1" stop-color="#4f52ff"/>
    </linearGradient>
    <linearGradient id="linear-gradient-146" x1="0" y1="0.5" x2="1" y2="0.5" xlink:href="#linear-gradient"/>
    <linearGradient id="linear-gradient-147" x1="0" y1="0.5" x2="1" y2="0.5" xlink:href="#linear-gradient-2"/>
    <linearGradient id="linear-gradient-148" x1="0" y1="0.5" x2="1" y2="0.5" xlink:href="#linear-gradient-145"/>
    <linearGradient id="linear-gradient-149" x1="18.764" y1="-0.486" x2="15.931" y2="6.019" xlink:href="#linear-gradient-127"/>
    <linearGradient id="linear-gradient-150" x1="70.917" y1="0.501" x2="71.918" y2="0.501" xlink:href="#linear-gradient-128"/>
    <linearGradient id="linear-gradient-151" x1="21.603" y1="0.946" x2="22.272" y2="0.099" xlink:href="#linear-gradient-127"/>
    <linearGradient id="linear-gradient-152" x1="47.154" y1="-2.227" x2="40.146" y2="5.393" xlink:href="#linear-gradient-127"/>
    <linearGradient id="linear-gradient-153" x1="82.089" y1="0.5" x2="83.09" y2="0.5" xlink:href="#linear-gradient-128"/>
    <linearGradient id="linear-gradient-154" x1="15.126" y1="0.917" x2="15.597" y2="0.085" xlink:href="#linear-gradient-127"/>
    <linearGradient id="linear-gradient-155" x1="6.313" y1="2.511" x2="5.441" y2="3.915" gradientUnits="objectBoundingBox">
      <stop offset="0" stop-color="#fe7062"/>
      <stop offset="1" stop-color="#ff928e"/>
    </linearGradient>
    <linearGradient id="linear-gradient-156" x1="13.856" y1="0.5" x2="14.856" y2="0.5" xlink:href="#linear-gradient-128"/>
    <linearGradient id="linear-gradient-157" x1="237.771" y1="1.604" x2="239.769" y2="4.273" xlink:href="#linear-gradient-128"/>
    <linearGradient id="linear-gradient-158" x1="-5.753" y1="4.711" x2="4.695" y2="-2.178" xlink:href="#linear-gradient-128"/>
    <linearGradient id="linear-gradient-159" x1="15.649" y1="5.735" x2="13.458" y2="9.315" xlink:href="#linear-gradient-155"/>
    <linearGradient id="linear-gradient-160" x1="0.501" y1="0.446" x2="0.085" y2="3.359" xlink:href="#linear-gradient-128"/>
    <linearGradient id="linear-gradient-161" x1="-68.014" y1="23.054" x2="-69.207" y2="20.837" xlink:href="#linear-gradient-128"/>
    <linearGradient id="linear-gradient-162" x1="-31.521" y1="-78.743" x2="-29.503" y2="-81.063" xlink:href="#linear-gradient-127"/>
    <linearGradient id="linear-gradient-163" x1="-222.348" y1="110.22" x2="-226.234" y2="99.444" xlink:href="#linear-gradient-128"/>
    <linearGradient id="linear-gradient-164" x1="22.851" y1="1.185" x2="21.276" y2="0.256" xlink:href="#linear-gradient-128"/>
    <linearGradient id="linear-gradient-165" x1="-254.79" y1="-5.841" x2="-255.449" y2="-5.487" xlink:href="#linear-gradient-127"/>
    <linearGradient id="linear-gradient-166" x1="1.291" y1="0.272" x2="0.064" y2="0.592" xlink:href="#linear-gradient-128"/>
  </defs>
  <g id="Group_29001" data-name="Group 29001" transform="translate(-239 -465.757)">
    <g id="Group_29000" data-name="Group 29000" transform="translate(239 465.757)">
      <g id="Group_28999" data-name="Group 28999">
        <g id="Group_28998" data-name="Group 28998">
          <g id="Group_28997" data-name="Group 28997">
            <g id="Group_28996" data-name="Group 28996">
              <g id="Illustration">
                <path id="Path_54350" data-name="Path 54350" d="M5.466,125.85c5.675,10,14.654,18.437,21.59,27.786,20.024,27.047-.8,58.7,8.327,87.859,7.958,25.395,41.071,32.222,65.27,33.244,40.766,1.739,81.511-.87,120.82-11.915,27.286-7.675,54.594-17.741,83.359-18.35,29.4-.609,57.051,11.2,85.446,16.763,31.2,6.131,68.487-.522,76.01-35.353,4.653-21.568-7.892-41.44-9.066-62.682-1.544-28.112,26.482-43.549,30.113-69.835,2.283-16.567-6.262-31.4-17.394-43.375C458.178,37.338,442.35,26.163,424.2,25.119c-18.959-1.087-35.9,8.871-53.638,13.632-49.833,13.371-78.119-31.2-123.973-37.418-20.677-2.8-46.093-1.478-64.878,8.153-17.459,8.936-25.916,28.83-45.506,34.679C115.459,50.34,96.5,37.99,76.8,34.033,56.408,29.946,37.144,37.208,24.382,53.1,12.01,68.516-1.383,88.823.161,109.174A39.417,39.417,0,0,0,5.466,125.85Z" transform="translate(-0.039 -0.037)" fill="url(#linear-gradient)"/>
                <path id="Path_54351" data-name="Path 54351" d="M402.362,575.053c-12.176,2.435-27.7-10.806-32.7-25.286-5.131-14.915,4.3-21.155,4.218-41.832-.065-23.481-12.284-27.025-20.372-58.682-1.826-7.131-12.371-48.485.7-56.225,12.089-7.153,46.071,13.393,52.007,39.7,4.261,18.763-8.871,26.656-3.848,48.506,4.392,19.176,15.937,19.459,20.372,37.94C428.126,541.7,418.321,571.879,402.362,575.053Z" transform="translate(-272.158 -306.46)" fill="#91b3fa"/>
                <path id="Path_54352" data-name="Path 54352" d="M508.873,727.02c3.283-25.308-3.109-64.335-9.066-92.643-6.414-30.635-13.719-55.616-13.784-55.877l-1.022.3c.065.261,7.371,25.2,13.784,55.79,5.914,28.221,12.306,67.139,9.045,92.295Z" transform="translate(-379.56 -452.73)" fill="#7d97f4"/>
                <path id="Path_54353" data-name="Path 54353" d="M286.667,765.041c15.937-8.305,21.394-36.831,12.328-46.093-6.109-6.283-14.893.326-23.373-6.175-10.828-8.305-2.87-23.916-11.371-44.158-7.24-17.241-24.59-33.548-34.744-30.2-10.61,3.5-16.22,29.482-7.153,45.136,5.914,10.154,14.937,10.654,16.894,20.133,2.283,10.98-8.7,15.98-8.762,26.612C230.377,749.431,265.556,776.043,286.667,765.041Z" transform="translate(-170.465 -499.275)" fill="#bdd0fb"/>
                <path id="Path_54354" data-name="Path 54354" d="M393.7,910.123a.456.456,0,0,0,.283-.065.631.631,0,0,0,.3-.848c-21.155-43.571-27.351-94.1-27.395-94.6a.657.657,0,1,0-1.3.152c.065.5,6.283,51.246,27.525,95.013a.652.652,0,0,0,.587.348Z" transform="translate(-286.104 -637.051)" fill="#91b3fa"/>
                <path id="Path_54355" data-name="Path 54355" d="M251.042,708.91a.348.348,0,0,0,.2-.065.3.3,0,0,0,.043-.435c-6.675-8.566-14.067-21.416-11.393-34.092a22.046,22.046,0,0,1,6.088-11.5.316.316,0,0,0-.413-.478,22.645,22.645,0,0,0-6.283,11.849c-1.5,7.131-.717,18.916,11.523,34.613A.283.283,0,0,0,251.042,708.91Z" transform="translate(-186.824 -518.284)" fill="#dce5fe"/>
                <path id="Path_54356" data-name="Path 54356" d="M539.958,1050.937a.348.348,0,0,0,.261-.13c10.24-14.958,13.741-26.525,10.393-34.374-3-6.958-10.523-8.262-10.61-8.262a.282.282,0,0,0-.348.239.326.326,0,0,0,.261.37c.065,0,7.284,1.261,10.132,7.914,3.261,7.631-.217,19-10.349,33.765a.3.3,0,0,0,.087.435A.24.24,0,0,0,539.958,1050.937Z" transform="translate(-422.32 -788.976)" fill="#f0f0f0"/>
                <path id="Path_54357" data-name="Path 54357" d="M1577.51,575.053c12.154,2.435,27.677-10.806,32.678-25.286,5.153-14.915-4.283-21.155-4.218-41.832.087-23.481,12.306-27.025,20.394-58.682,1.826-7.131,12.371-48.485-.718-56.225-12.088-7.153-46.049,13.393-52.007,39.7-4.24,18.763,8.892,26.656,3.87,48.506-4.392,19.176-15.959,19.459-20.372,37.94C1551.746,541.7,1561.552,571.879,1577.51,575.053Z" transform="translate(-1217.427 -306.46)" fill="#91b3fa"/>
                <path id="Path_54358" data-name="Path 54358" d="M1657.085,727.02c-3.283-25.308,3.109-64.335,9.045-92.643,6.436-30.635,13.741-55.616,13.806-55.877l1.022.3c-.087.261-7.371,25.2-13.785,55.79-5.936,28.221-12.306,67.139-9.045,92.295Z" transform="translate(-1296.111 -452.73)" fill="#7d97f4"/>
                <path id="Path_54359" data-name="Path 54359" d="M1660.451,765.041c-15.937-8.305-21.394-36.831-12.349-46.093,6.131-6.283,14.915.326,23.394-6.175,10.806-8.305,2.848-23.916,11.371-44.158,7.218-17.241,24.59-33.548,34.744-30.2,10.61,3.5,16.2,29.482,7.131,45.136-5.892,10.154-14.915,10.654-16.872,20.133-2.283,10.98,8.7,15.98,8.762,26.612C1716.741,749.431,1681.541,776.043,1660.451,765.041Z" transform="translate(-1286.366 -499.275)" fill="#bdd0fb"/>
                <path id="Path_54360" data-name="Path 54360" d="M1757.86,910.087a.413.413,0,0,1-.283-.065.631.631,0,0,1-.3-.848c21.133-43.571,27.33-94.1,27.395-94.6a.646.646,0,1,1,1.283.152c-.043.5-6.283,51.246-27.5,95.013a.7.7,0,0,1-.587.348Z" transform="translate(-1375.165 -637.015)" fill="#91b3fa"/>
                <path id="Path_54361" data-name="Path 54361" d="M1958.532,708.91a.312.312,0,0,1-.261-.5c6.675-8.566,14.067-21.416,11.415-34.091a22.046,22.046,0,0,0-6.088-11.5.348.348,0,0,1-.043-.457.326.326,0,0,1,.435-.022,22.421,22.421,0,0,1,6.305,11.849c1.5,7.131.717,18.916-11.523,34.613A.283.283,0,0,1,1958.532,708.91Z" transform="translate(-1532.462 -518.284)" fill="#dce5fe"/>
                <path id="Path_54362" data-name="Path 54362" d="M1671.218,1050.952a.3.3,0,0,1-.261-.13c-10.262-14.959-13.741-26.525-10.393-34.374,2.979-6.957,10.523-8.262,10.61-8.262a.3.3,0,0,1,.348.239.326.326,0,0,1-.261.37c-.065,0-7.284,1.261-10.132,7.914-3.261,7.631.217,19,10.349,33.765a.326.326,0,0,1-.087.435A.261.261,0,0,1,1671.218,1050.952Z" transform="translate(-1298.569 -788.99)" fill="#f0f0f0"/>
                <path id="Path_54363" data-name="Path 54363" d="M517.9,553.2V686.587c0,9.806,8.632,17.763,19.263,17.763H761.106c10.654,0,19.263-7.958,19.263-17.763V553.2H517.9Z" transform="translate(-405.307 -432.931)" fill="#1b9c7c"/>
                <path id="Path_54364" data-name="Path 54364" d="M713.944,237.6l-56.921-34.439a16.77,16.77,0,0,0-17.654,0l-56.921,34.418L516.7,277.367l65.748,39.679L648.2,356.7,713.944,317l65.77-39.636Z" transform="translate(-404.367 -157.033)" fill="#1b9c7c"/>
                <g id="Group_28992" data-name="Group 28992" transform="translate(117.282 172.463)">
                  <path id="Path_54365" data-name="Path 54365" d="M539.928,886.457a.521.521,0,0,1-.3-.109.457.457,0,0,1-.044-.652l82.011-92.273a.457.457,0,0,1,.652-.043.478.478,0,0,1,.044.652l-82.011,92.273A.456.456,0,0,1,539.928,886.457Z" transform="translate(-539.463 -793.263)" fill="#fff"/>
                  <path id="Path_54366" data-name="Path 54366" d="M1404.639,886.463a.436.436,0,0,1-.348-.152l-82.011-92.273a.456.456,0,0,1,.043-.652.435.435,0,0,1,.63.043l82.011,92.273a.479.479,0,0,1-.022.652A.523.523,0,0,1,1404.639,886.463Z" transform="translate(-1151.988 -793.269)" fill="#fff"/>
                </g>
                <g id="Group_28995" data-name="Group 28995" transform="translate(123.486 25.191)" clip-path="url(#clip-path)">
                  <path id="Path_54389" data-name="Path 54389" d="M814.434,256.4H630.714a6.062,6.062,0,0,0-5.914,6.044V411.551H840.785V283.164Z" transform="translate(-612.451 -225.852)" fill="#eee"/>
                  <path id="Path_54390" data-name="Path 54390" d="M1523.5,283.79l-24.112.217a2.065,2.065,0,0,1-1.587-.7,2.23,2.23,0,0,1-.5-1.7V257.2Z" transform="translate(-1295.251 -226.479)" fill="#e2e6f1"/>
                  <path id="Path_54391" data-name="Path 54391" d="M997.539,425.771a42.326,42.326,0,0,1-2.7,15.372,25.671,25.671,0,0,1-7.588,10.958,17.618,17.618,0,0,1-11.371,3.957,14.253,14.253,0,0,1-7.653-2.065,11.714,11.714,0,0,1-4.783-5.457h-.935a20.084,20.084,0,0,1-16.067,7.523c-6.892,0-12.306-2.065-16.285-6.218s-5.957-9.806-5.957-17.024q0-12.284,7.827-19.85t20.437-7.523a72.29,72.29,0,0,1,11.067.957,62.3,62.3,0,0,1,9.936,2.3l-1.326,28.569c0,5.392,1.478,8.11,4.435,8.11,2.479,0,4.479-1.826,5.957-5.457s2.218-8.392,2.218-14.285a34.3,34.3,0,0,0-3.914-16.611,26.569,26.569,0,0,0-11-11,33.964,33.964,0,0,0-16.22-3.8,41.59,41.59,0,0,0-20.481,4.848,32.347,32.347,0,0,0-13.349,14,45.779,45.779,0,0,0-4.631,21.09q0,16.111,8.61,24.721t24.96,8.632a73.722,73.722,0,0,0,13.61-1.391,91.211,91.211,0,0,0,14.589-3.979v11.2a69.819,69.819,0,0,1-27.743,5.305q-22.177,0-34.592-11.675T902.2,434.511a54.368,54.368,0,0,1,6.327-26.177,45.969,45.969,0,0,1,18.046-18.459q11.719-6.675,26.938-6.675a48.864,48.864,0,0,1,22.938,5.262A37.435,37.435,0,0,1,992.038,403.4,44.254,44.254,0,0,1,997.539,425.771Zm-59.791,7.284q0,12.328,10.045,12.328a9.327,9.327,0,0,0,8-3.718c1.826-2.479,2.935-6.479,3.327-12.045l.761-12.915a33.137,33.137,0,0,0-6.718-.63q-7.305,0-11.349,4.544T937.748,433.054Z" transform="translate(-829.538 -325.084)" fill="url(#linear-gradient-2)"/>
                </g>
                <path id="Path_54393" data-name="Path 54393" d="M1680.89,102.437a41.079,41.079,0,0,1,63.922-34.613l2.326-2.37a1.2,1.2,0,0,1,1.152-.3,1.153,1.153,0,0,1,.87.826l4.088,14.85a1.2,1.2,0,0,1-1.479,1.478l-14.893-3.87a1.2,1.2,0,0,1-.848-.848,1.217,1.217,0,0,1,.3-1.174l2.631-2.674a32.8,32.8,0,1,0,15.937,28.417,1.3,1.3,0,0,1,1.174-1.326l5.74-.065a1.209,1.209,0,0,1,.826.457l.043.043a1.566,1.566,0,0,1,.348,1,41.073,41.073,0,0,1-82.141.174Zm71.51-21.285c0-.043,0-.065-.022-.087l-4.088-14.85a.283.283,0,0,0-.218-.217.326.326,0,0,0-.3.087l-2.848,2.892-.3-.217a40.192,40.192,0,1,0,17.524,33.5h0a.588.588,0,0,0-.087-.37l-.065-.065c-.043-.043-.13-.152-.2-.174l-5.7.065c-.13,0-.3.239-.326.457a33.81,33.81,0,1,1-34.2-34.048,33.46,33.46,0,0,1,18.328,5.153l.479.3-3.414,3.457a.3.3,0,0,0-.087.3.348.348,0,0,0,.239.217l14.893,3.892a.326.326,0,0,0,.3-.087A.456.456,0,0,0,1752.4,81.152Z" transform="translate(-1315.437 -47.655)" fill="#7d97f4"/>
                <path id="Path_54394" data-name="Path 54394" d="M1769.293,225.171h-11.828v-2.5l4.24-4.283a35.654,35.654,0,0,0,2.457-2.7,5.735,5.735,0,0,0,.848-1.37,3.522,3.522,0,0,0,.261-1.326,1.984,1.984,0,0,0-.565-1.522,2.261,2.261,0,0,0-1.5-.5,4.262,4.262,0,0,0-1.913.457,10.243,10.243,0,0,0-1.935,1.283l-1.957-2.3a15.434,15.434,0,0,1,2.087-1.5,7.562,7.562,0,0,1,1.783-.674,9.655,9.655,0,0,1,2.174-.239,6.348,6.348,0,0,1,2.8.587,4.2,4.2,0,0,1,1.892,1.609,4.261,4.261,0,0,1,.674,2.392,5.716,5.716,0,0,1-.413,2.2,8.347,8.347,0,0,1-1.261,2.087,34.416,34.416,0,0,1-3.044,3.087L1761.922,222v.152h7.371Z" transform="translate(-1375.314 -162.779)" fill="#7d97f4"/>
                <path id="Path_54395" data-name="Path 54395" d="M1830.163,222.515h-2.044v3.522h-3.479v-3.522h-7.24v-2.479l7.436-10.936h3.283v10.654h2.044Zm-5.522-2.761v-2.87c0-.478,0-1.174.043-2.087s.065-1.457.087-1.587h-.087a14.1,14.1,0,0,1-1.022,1.848l-3.109,4.7Z" transform="translate(-1422.269 -163.645)" fill="#7d97f4"/>
                <path id="Path_54396" data-name="Path 54396" d="M1888.1,209.1l-6.305,16.937h-3.2l6.305-16.937Z" transform="translate(-1470.163 -163.645)" fill="#7d97f4"/>
                <path id="Path_54397" data-name="Path 54397" d="M1927.8,226.115l6.349-13.893H1925.8V209.2h12.154v2.261l-6.414,14.654Z" transform="translate(-1507.101 -163.724)" fill="#7d97f4"/>
                <path id="Path_54398" data-name="Path 54398" d="M1967.882,597.623l.109,1.392h0a.24.24,0,1,0,.478-.044h0l-.13-1.392a.217.217,0,0,0-.261-.2.2.2,0,0,0-.2.239Z" transform="translate(-1540.03 -467.505)" fill="url(#linear-gradient-3)"/>
                <path id="Path_54399" data-name="Path 54399" d="M1968.9,618.836v1.37h0a.283.283,0,0,0,.261.283.261.261,0,0,0,.261-.261h0v-1.391a.239.239,0,0,0-.261-.239A.261.261,0,0,0,1968.9,618.836Z" transform="translate(-1540.83 -484.108)" fill="url(#linear-gradient-4)"/>
                <path id="Path_54400" data-name="Path 54400" d="M1967.727,639.858l-.13,1.37h0a.3.3,0,0,0,.261.326.283.283,0,0,0,.3-.261h0l.13-1.391a.3.3,0,0,0-.261-.3.283.283,0,0,0-.3.261Z" transform="translate(-1539.809 -500.543)" fill="url(#linear-gradient-5)"/>
                <path id="Path_54401" data-name="Path 54401" d="M1964.822,660.848l-.239,1.348h0a.309.309,0,0,0,.609.109h0l.217-1.37a.3.3,0,1,0-.587-.087Z" transform="translate(-1537.447 -516.968)" fill="url(#linear-gradient-6)"/>
                <path id="Path_54402" data-name="Path 54402" d="M1960.217,681.642l-.348,1.326h0a.326.326,0,0,0,.239.391.348.348,0,0,0,.413-.239h0l.326-1.348a.326.326,0,0,0-.63-.152Z" transform="translate(-1533.755 -533.261)" fill="url(#linear-gradient-7)"/>
                <path id="Path_54403" data-name="Path 54403" d="M1953.993,702.121l-.457,1.3h0a.37.37,0,0,0,.217.457.348.348,0,0,0,.457-.217h0l.435-1.326a.348.348,0,0,0-.652-.217Z" transform="translate(-1528.793 -549.326)" fill="url(#linear-gradient-8)"/>
                <path id="Path_54404" data-name="Path 54404" d="M1946.241,721.693l-.544,1.261h0a.391.391,0,0,0,.2.5.413.413,0,0,0,.5-.217h0l.543-1.283a.37.37,0,0,0-.217-.478.348.348,0,0,0-.478.2Z" transform="translate(-1522.65 -564.594)" fill="url(#linear-gradient-9)"/>
                <path id="Path_54405" data-name="Path 54405" d="M1937.039,741.09l-.631,1.218h0a.413.413,0,0,0,.718.391h0l.63-1.239a.37.37,0,0,0-.174-.522.392.392,0,0,0-.522.152Z" transform="translate(-1515.383 -579.816)" fill="url(#linear-gradient-10)"/>
                <path id="Path_54406" data-name="Path 54406" d="M1926.359,759.425l-.718,1.174h-.022a.457.457,0,0,0,.152.587.435.435,0,0,0,.587-.152h0l.718-1.2a.392.392,0,0,0-.13-.565.435.435,0,0,0-.587.13Z" transform="translate(-1506.921 -594.151)" fill="url(#linear-gradient-11)"/>
                <path id="Path_54407" data-name="Path 54407" d="M1914.519,777.189l-.8,1.109h0a.457.457,0,0,0,.717.544h0l.826-1.152a.435.435,0,0,0-.109-.609.457.457,0,0,0-.631.087Z" transform="translate(-1497.603 -608.066)" fill="url(#linear-gradient-12)"/>
                <path id="Path_54408" data-name="Path 54408" d="M1901.157,793.91l-.891,1.044h-.022a.479.479,0,0,0,.739.609h0l.891-1.087a.463.463,0,1,0-.717-.587Z" transform="translate(-1487.023 -621.156)" fill="url(#linear-gradient-13)"/>
                <path id="Path_54409" data-name="Path 54409" d="M1886.643,809.56l-.978.978h0a.507.507,0,0,0,.718.717h0l.978-1a.5.5,0,1,0-.718-.674Z" transform="translate(-1475.576 -633.392)" fill="url(#linear-gradient-14)"/>
                <path id="Path_54410" data-name="Path 54410" d="M1871.03,824.414l-1.044.891h-.022a.522.522,0,0,0-.044.739.544.544,0,0,0,.739.065h0l1.044-.935a.5.5,0,0,0,.044-.718.522.522,0,0,0-.717-.065Z" transform="translate(-1463.267 -645.072)" fill="url(#linear-gradient-15)"/>
                <path id="Path_54411" data-name="Path 54411" d="M1854.32,837.763l-1.087.8h-.022a.565.565,0,0,0-.109.783.544.544,0,0,0,.761.109h0l1.13-.848a.544.544,0,0,0-.652-.87Z" transform="translate(-1450.122 -655.53)" fill="url(#linear-gradient-16)"/>
                <path id="Path_54412" data-name="Path 54412" d="M1836.627,849.813l-1.152.739h-.022a.565.565,0,0,0-.174.783.544.544,0,0,0,.761.174h.022l1.174-.739a.561.561,0,0,0-.587-.957Z" transform="translate(-1436.191 -664.992)" fill="url(#linear-gradient-17)"/>
                <path id="Path_54413" data-name="Path 54413" d="M1818.175,860.465l-1.218.631h-.021a.587.587,0,0,0,.522,1.044h.022l1.239-.63a.544.544,0,0,0,.239-.761.565.565,0,0,0-.761-.261Z" transform="translate(-1421.696 -673.362)" fill="url(#linear-gradient-18)"/>
                <path id="Path_54414" data-name="Path 54414" d="M1798.635,869.372l-1.283.522h0a.586.586,0,1,0,.435,1.087h0l1.3-.522a.587.587,0,0,0,.326-.761.609.609,0,0,0-.761-.326Z" transform="translate(-1406.287 -680.333)" fill="url(#linear-gradient-19)"/>
                <path id="Path_54415" data-name="Path 54415" d="M1778.565,876.6l-1.326.391h0a.609.609,0,0,0-.413.739.63.63,0,0,0,.761.413h0l1.348-.435a.609.609,0,0,0,.391-.739.587.587,0,0,0-.761-.391Z" transform="translate(-1390.501 -685.974)" fill="url(#linear-gradient-20)"/>
                <path id="Path_54416" data-name="Path 54416" d="M1757.994,882.349l-1.326.3h-.022a.652.652,0,0,0-.478.739.63.63,0,0,0,.739.478h.022l1.348-.326a.612.612,0,0,0-.261-1.2Z" transform="translate(-1374.343 -690.505)" fill="url(#linear-gradient-21)"/>
                <path id="Path_54417" data-name="Path 54417" d="M1737.1,886.474l-1.37.2h0a.637.637,0,0,0,.174,1.261h0l1.391-.217a.609.609,0,0,0,.522-.717A.63.63,0,0,0,1737.1,886.474Z" transform="translate(-1357.926 -693.739)" fill="url(#linear-gradient-22)"/>
                <path id="Path_54418" data-name="Path 54418" d="M1715.977,889.087l-1.37.087h-.022a.674.674,0,0,0-.587.7.652.652,0,0,0,.7.609h0l1.391-.13a.63.63,0,0,0,.587-.674.609.609,0,0,0-.674-.587Z" transform="translate(-1341.349 -695.787)" fill="url(#linear-gradient-23)"/>
                <path id="Path_54419" data-name="Path 54419" d="M1694.743,890.2h-1.392a.652.652,0,0,0-.652.674.674.674,0,0,0,.674.652h1.392a.674.674,0,0,0,.652-.674.652.652,0,0,0-.674-.631Z" transform="translate(-1324.68 -696.66)" fill="url(#linear-gradient-24)"/>
                <path id="Path_54420" data-name="Path 54420" d="M1673.482,889.56l-1.37-.065h0a.674.674,0,0,0-.717.63.652.652,0,0,0,.63.7h0l1.413.087a.653.653,0,0,0,.7-.63.674.674,0,0,0-.631-.717Z" transform="translate(-1308.007 -696.107)" fill="url(#linear-gradient-25)"/>
                <path id="Path_54421" data-name="Path 54421" d="M1652.354,887.637l-1.348-.152h-.022a.678.678,0,1,0-.152,1.348h0l1.392.152a.652.652,0,0,0,.739-.587.674.674,0,0,0-.587-.761Z" transform="translate(-1291.445 -694.532)" fill="url(#linear-gradient-26)"/>
                <path id="Path_54422" data-name="Path 54422" d="M1631.429,884.416l-1.37-.239h0a.7.7,0,0,0-.239,1.37h0l1.37.239a.7.7,0,0,0,.239-1.37Z" transform="translate(-1275.042 -691.942)" fill="url(#linear-gradient-27)"/>
                <path id="Path_54423" data-name="Path 54423" d="M1610.519,880.029l-1.348-.3h0a.7.7,0,0,0-.848.522.717.717,0,0,0,.522.87h0l1.37.3a.718.718,0,0,0,.848-.544.7.7,0,0,0-.544-.826Z" transform="translate(-1258.633 -688.446)" fill="url(#linear-gradient-28)"/>
                <path id="Path_54424" data-name="Path 54424" d="M1589.942,874.594l-1.326-.391h-.022a.723.723,0,1,0-.391,1.391h0l1.348.37a.717.717,0,1,0,.391-1.37Z" transform="translate(-1242.491 -684.12)" fill="url(#linear-gradient-29)"/>
                <path id="Path_54425" data-name="Path 54425" d="M1569.7,868.064l-1.3-.435h0a.717.717,0,0,0-.935.435.761.761,0,0,0,.457.957h0l1.326.435a.725.725,0,0,0,.478-1.37Z" transform="translate(-1226.636 -678.959)" fill="url(#linear-gradient-30)"/>
                <path id="Path_54426" data-name="Path 54426" d="M1549.776,860.622l-1.283-.5h0a.761.761,0,0,0-.978.435.739.739,0,0,0,.413.957h0l1.3.522a.761.761,0,0,0,.565-1.391Z" transform="translate(-1211.022 -673.083)" fill="url(#linear-gradient-31)"/>
                <path id="Path_54427" data-name="Path 54427" d="M1530.251,852.095l-1.261-.565h0a.761.761,0,0,0-1.022.37.783.783,0,0,0,.391,1.022h0l1.261.565a.764.764,0,1,0,.631-1.391Z" transform="translate(-1195.715 -666.339)" fill="url(#linear-gradient-32)"/>
                <path id="Path_54428" data-name="Path 54428" d="M1511.13,842.717l-1.239-.63h0a.783.783,0,0,0-.718,1.391h0l1.261.63a.739.739,0,0,0,1.022-.348.761.761,0,0,0-.326-1.022Z" transform="translate(-1180.725 -658.939)" fill="url(#linear-gradient-33)"/>
                <path id="Path_54429" data-name="Path 54429" d="M1492.528,832.619l-1.2-.674h-.022a.783.783,0,1,0-.761,1.37h0l1.2.7a.8.8,0,0,0,1.065-.3.783.783,0,0,0-.283-1.065Z" transform="translate(-1166.167 -650.994)" fill="url(#linear-gradient-34)"/>
                <path id="Path_54430" data-name="Path 54430" d="M1474.314,821.609l-1.174-.739h0a.783.783,0,0,0-1.087.261.761.761,0,0,0,.239,1.065h0l1.2.718a.783.783,0,0,0,1.087-.239.8.8,0,0,0-.261-1.087Z" transform="translate(-1151.91 -642.311)" fill="url(#linear-gradient-35)"/>
                <path id="Path_54431" data-name="Path 54431" d="M1456.5,809.987l-1.152-.783h0a.79.79,0,1,0-.891,1.3h0l1.174.783a.784.784,0,0,0,.87-1.3Z" transform="translate(-1137.97 -633.167)" fill="url(#linear-gradient-36)"/>
                <path id="Path_54432" data-name="Path 54432" d="M1439.154,797.74l-1.109-.8h0a.794.794,0,1,0-.935,1.283h0l1.13.826a.8.8,0,0,0,.935-1.283Z" transform="translate(-1124.403 -623.551)" fill="url(#linear-gradient-37)"/>
                <path id="Path_54433" data-name="Path 54433" d="M1422.145,785.031l-1.109-.826h0a.807.807,0,1,0-.978,1.283h0l1.109.848a.8.8,0,0,0,1.109-.152.782.782,0,0,0-.131-1.109Z" transform="translate(-1111.068 -613.582)" fill="url(#linear-gradient-38)"/>
                <path id="Path_54434" data-name="Path 54434" d="M1405.59,771.711l-1.065-.87h-.022a.8.8,0,0,0-1.131.109.826.826,0,0,0,.109,1.13h.021l1.065.891a.812.812,0,1,0,1.022-1.261Z" transform="translate(-1098.122 -603.11)" fill="url(#linear-gradient-39)"/>
                <path id="Path_54435" data-name="Path 54435" d="M1389.315,757.993l-1.044-.913h0a.809.809,0,0,0-1.065,1.218h.022l1.044.913a.809.809,0,0,0,1.065-1.218Z" transform="translate(-1085.392 -592.327)" fill="url(#linear-gradient-40)"/>
                <path id="Path_54436" data-name="Path 54436" d="M1373.737,744.161l-1.022-.935h0a.826.826,0,0,0-1.087,1.218h0l1.022.935a.848.848,0,0,0,1.152-.065.8.8,0,0,0-.065-1.152Z" transform="translate(-1073.271 -581.538)" fill="url(#linear-gradient-41)"/>
                <path id="Path_54437" data-name="Path 54437" d="M1357.987,729.619l-1-.957h0a.826.826,0,0,0-1.13,1.2h0l1.022.957a.826.826,0,0,0,1.152-.044.8.8,0,0,0-.043-1.152Z" transform="translate(-1060.912 -570.106)" fill="url(#linear-gradient-42)"/>
                <path id="Path_54438" data-name="Path 54438" d="M1342.516,714.774l-.979-.978h-.022a.826.826,0,0,0-1.152.022.8.8,0,0,0,.021,1.152h0l1,.978a.826.826,0,0,0,1.152-.022.8.8,0,0,0-.022-1.152Z" transform="translate(-1048.768 -558.435)" fill="url(#linear-gradient-43)"/>
                <path id="Path_54439" data-name="Path 54439" d="M1327.371,699.789l-.978-.978h0a.848.848,0,0,0-1.174-.022.826.826,0,0,0,0,1.174h0l.978.978a.848.848,0,0,0,1.174.022.826.826,0,0,0,0-1.174Z" transform="translate(-1036.906 -546.69)" fill="url(#linear-gradient-44)"/>
                <path id="Path_54440" data-name="Path 54440" d="M1312.516,684.585l-.957-1h0a.83.83,0,0,0-1.2,1.152h0l.978,1a.848.848,0,0,0,1.174.022.826.826,0,0,0,0-1.174Z" transform="translate(-1025.291 -534.769)" fill="url(#linear-gradient-45)"/>
                <path id="Path_54441" data-name="Path 54441" d="M1297.762,669.238l-.957-1a.826.826,0,0,0-1.174-.044.848.848,0,0,0-.044,1.2h0l.957,1a.848.848,0,0,0,1.2.022.827.827,0,0,0,.022-1.174Z" transform="translate(-1013.733 -522.748)" fill="url(#linear-gradient-46)"/>
                <path id="Path_54442" data-name="Path 54442" d="M1283.128,653.791l-.957-1.022a.848.848,0,0,0-1.174-.044.826.826,0,0,0-.043,1.2h0l.957,1.022a.826.826,0,0,0,1.174.022.8.8,0,0,0,.043-1.174Z" transform="translate(-1002.273 -510.65)" fill="url(#linear-gradient-47)"/>
                <path id="Path_54443" data-name="Path 54443" d="M1268.517,638.1l-.935-1.022a.848.848,0,1,0-1.239,1.152h0l.935,1a.826.826,0,0,0,1.2.043.8.8,0,0,0,.043-1.174Z" transform="translate(-990.814 -498.326)" fill="url(#linear-gradient-48)"/>
                <path id="Path_54444" data-name="Path 54444" d="M1254.016,622.5l-.935-1.022a.848.848,0,1,0-1.239,1.152h0l.935,1.022a.848.848,0,0,0,1.2.043.826.826,0,0,0,.044-1.2Z" transform="translate(-979.467 -486.118)" fill="url(#linear-gradient-49)"/>
                <path id="Path_54445" data-name="Path 54445" d="M1239.65,607.046l-.935-1.022a.87.87,0,0,0-1.218-.044.826.826,0,0,0-.044,1.2h0l.957,1.022a.848.848,0,0,0,1.239-1.152Z" transform="translate(-968.231 -474.058)" fill="url(#linear-gradient-50)"/>
                <path id="Path_54446" data-name="Path 54446" d="M1225.177,591.446l-.935-1.022a.861.861,0,1,0-1.261,1.174h0l.957,1.022a.854.854,0,0,0,1.239-1.174Z" transform="translate(-956.91 -461.85)" fill="url(#linear-gradient-51)"/>
                <path id="Path_54447" data-name="Path 54447" d="M1210.646,576.038l-.957-1.022a.87.87,0,0,0-1.261,1.2h0l.957,1a.87.87,0,1,0,1.261-1.174Z" transform="translate(-945.532 -449.811)" fill="url(#linear-gradient-52)"/>
                <path id="Path_54448" data-name="Path 54448" d="M1195.833,560.537l-.957-1a.876.876,0,1,0-1.261,1.218h0l.978,1h0a.87.87,0,1,0,1.239-1.218Z" transform="translate(-933.915 -437.681)" fill="url(#linear-gradient-53)"/>
                <path id="Path_54449" data-name="Path 54449" d="M1180.911,545.231l-.978-.978a.87.87,0,1,0-1.239,1.218h0l.978.978h0a.876.876,0,0,0,1.239-1.239Z" transform="translate(-922.211 -425.701)" fill="url(#linear-gradient-54)"/>
                <path id="Path_54450" data-name="Path 54450" d="M1165.983,530.315l-1-.979a.891.891,0,0,0-1.239.022.87.87,0,0,0,.022,1.218h0l.978.957h0a.876.876,0,1,0,1.239-1.239Z" transform="translate(-910.545 -414.068)" fill="url(#linear-gradient-55)"/>
                <path id="Path_54451" data-name="Path 54451" d="M1150.7,515.461l-1.022-.957a.87.87,0,0,0-1.239.022.892.892,0,0,0,.022,1.239h.022l1,.935h0a.891.891,0,0,0,1.218-1.283Z" transform="translate(-898.564 -402.454)" fill="url(#linear-gradient-56)"/>
                <path id="Path_54452" data-name="Path 54452" d="M1135.15,500.946l-1.022-.957a.878.878,0,1,0-1.174,1.3h0l1,.935h.022a.891.891,0,0,0,1.239-.043.87.87,0,0,0-.065-1.239Z" transform="translate(-886.408 -391.113)" fill="url(#linear-gradient-57)"/>
                <path id="Path_54453" data-name="Path 54453" d="M1119.308,486.76l-1.044-.935a.878.878,0,0,0-1.152,1.326h0l1.044.913h0a.87.87,0,0,0,1.152-1.3Z" transform="translate(-874.001 -380.036)" fill="url(#linear-gradient-58)"/>
                <path id="Path_54454" data-name="Path 54454" d="M1103.426,473.169l-1.087-.891a.87.87,0,0,0-1.109,1.326h0l1.065.891h0a.871.871,0,1,0,1.13-1.326Z" transform="translate(-861.62 -369.49)" fill="url(#linear-gradient-59)"/>
                <path id="Path_54455" data-name="Path 54455" d="M1086.68,459.585l-1.087-.87a.87.87,0,0,0-1.218.13.892.892,0,0,0,.152,1.218h0l1.087.848h0a.87.87,0,1,0,1.087-1.348Z" transform="translate(-848.483 -358.84)" fill="url(#linear-gradient-60)"/>
                <path id="Path_54456" data-name="Path 54456" d="M1069.807,446.673l-1.13-.826a.826.826,0,0,0-1.2.174.848.848,0,0,0,.174,1.2h0l1.109.826h0a.87.87,0,1,0,1.044-1.392Z" transform="translate(-835.262 -348.776)" fill="url(#linear-gradient-61)"/>
                <path id="Path_54457" data-name="Path 54457" d="M1052.476,434.321l-1.152-.783a.859.859,0,1,0-.978,1.413h0l1.131.783h0a.87.87,0,1,0,1-1.413Z" transform="translate(-821.693 -339.164)" fill="url(#linear-gradient-62)"/>
                <path id="Path_54458" data-name="Path 54458" d="M1034.809,422.539l-1.174-.739a.856.856,0,0,0-.935,1.435h0l1.152.739h.022a.87.87,0,0,0,.935-1.457Z" transform="translate(-807.874 -329.991)" fill="url(#linear-gradient-63)"/>
                <path id="Path_54459" data-name="Path 54459" d="M1016.643,411.391l-1.2-.717a.858.858,0,0,0-.87,1.478h0l1.2.7h0a.848.848,0,1,0,.87-1.457Z" transform="translate(-793.666 -321.3)" fill="url(#linear-gradient-64)"/>
                <path id="Path_54460" data-name="Path 54460" d="M998.124,400.937l-1.239-.652a.826.826,0,0,0-1.152.326.848.848,0,0,0,.348,1.152h0l1.217.674h0a.848.848,0,0,0,1.152-.348.826.826,0,0,0-.326-1.152Z" transform="translate(-779.168 -313.172)" fill="url(#linear-gradient-65)"/>
                <path id="Path_54461" data-name="Path 54461" d="M979.219,391.184l-1.239-.631a.826.826,0,0,0-1.131.37.848.848,0,0,0,.37,1.152h.022l1.218.609h.022a.836.836,0,1,0,.739-1.5Z" transform="translate(-764.395 -305.572)" fill="url(#linear-gradient-66)"/>
                <path id="Path_54462" data-name="Path 54462" d="M960.031,382.115l-1.283-.587a.826.826,0,0,0-1.109.435.848.848,0,0,0,.413,1.109h0l1.261.565h.022a.826.826,0,0,0,1.109-.413.848.848,0,0,0-.413-1.109Z" transform="translate(-749.381 -298.525)" fill="url(#linear-gradient-67)"/>
                <path id="Path_54463" data-name="Path 54463" d="M940.46,373.764l-1.3-.522a.8.8,0,0,0-1.087.457.826.826,0,0,0,.457,1.087h0l1.283.522h0a.848.848,0,1,0,.652-1.544Z" transform="translate(-734.072 -292.044)" fill="url(#linear-gradient-68)"/>
                <path id="Path_54464" data-name="Path 54464" d="M920.607,366.111l-1.3-.478a.87.87,0,0,0-1.087.5.826.826,0,0,0,.5,1.065h0l1.3.478h0a.826.826,0,0,0,1.087-.478A.87.87,0,0,0,920.607,366.111Z" transform="translate(-718.546 -286.109)" fill="url(#linear-gradient-69)"/>
                <path id="Path_54465" data-name="Path 54465" d="M900.5,359.131l-1.326-.457a.848.848,0,0,0-1.044.544.8.8,0,0,0,.522,1.044h.022l1.3.435h0a.826.826,0,1,0,.522-1.565Z" transform="translate(-702.827 -280.672)" fill="url(#linear-gradient-70)"/>
                <path id="Path_54466" data-name="Path 54466" d="M880.181,352.864l-1.326-.391a.829.829,0,1,0-.478,1.587h.022l1.326.37h0a.826.826,0,1,0,.457-1.587Z" transform="translate(-686.947 -275.818)" fill="url(#linear-gradient-71)"/>
                <path id="Path_54467" data-name="Path 54467" d="M859.614,347.353l-1.348-.348a.831.831,0,0,0-.413,1.609h.022l1.326.348h0a.831.831,0,1,0,.413-1.609Z" transform="translate(-670.859 -271.547)" fill="url(#linear-gradient-72)"/>
                <path id="Path_54468" data-name="Path 54468" d="M838.887,342.551l-1.348-.3a.87.87,0,0,0-1,.63.826.826,0,0,0,.652.978h0l1.348.3h0a.826.826,0,0,0,.978-.63.8.8,0,0,0-.63-.978Z" transform="translate(-654.653 -267.831)" fill="url(#linear-gradient-73)"/>
                <path id="Path_54469" data-name="Path 54469" d="M818.079,338.493l-1.391-.239a.8.8,0,0,0-.935.652.826.826,0,0,0,.652.957h0l1.37.261h0a.829.829,0,0,0,.3-1.631Z" transform="translate(-638.39 -264.709)" fill="url(#linear-gradient-74)"/>
                <path id="Path_54470" data-name="Path 54470" d="M797.033,335.163l-1.391-.2a.813.813,0,1,0-.239,1.609h.022l1.348.2h.022a.8.8,0,0,0,.913-.674.826.826,0,0,0-.674-.935Z" transform="translate(-621.932 -262.14)" fill="url(#linear-gradient-75)"/>
                <path id="Path_54471" data-name="Path 54471" d="M775.955,332.534l-1.391-.152a.8.8,0,0,0-.891.739.783.783,0,0,0,.717.891h0l1.37.152h0a.826.826,0,0,0,.913-.717A.848.848,0,0,0,775.955,332.534Z" transform="translate(-605.462 -260.12)" fill="url(#linear-gradient-76)"/>
                <path id="Path_54472" data-name="Path 54472" d="M754.756,330.7l-1.391-.109a.8.8,0,0,0-.87.761.826.826,0,0,0,.739.87h.022l1.37.087h0a.783.783,0,0,0,.87-.739.8.8,0,0,0-.739-.87Z" transform="translate(-588.895 -258.719)" fill="url(#linear-gradient-77)"/>
                <path id="Path_54473" data-name="Path 54473" d="M733.517,329.639l-1.391-.043a.783.783,0,0,0-.826.783.8.8,0,0,0,.761.826h.022l1.37.044h0a.848.848,0,0,0,.848-.783.8.8,0,0,0-.783-.848Z" transform="translate(-572.308 -257.942)" fill="url(#linear-gradient-78)"/>
                <path id="Path_54474" data-name="Path 54474" d="M712.2,329.3H710.8a.8.8,0,0,0,0,1.609H712.2a.783.783,0,0,0,.8-.8.8.8,0,0,0-.8-.8Z" transform="translate(-555.64 -257.711)" fill="url(#linear-gradient-79)"/>
                <path id="Path_54475" data-name="Path 54475" d="M690.973,329.548l-1.413.044a.8.8,0,0,0-.761.826.826.826,0,0,0,.826.783h0l1.391-.065h0a.8.8,0,1,0-.043-1.587Z" transform="translate(-539.048 -257.894)" fill="url(#linear-gradient-80)"/>
                <path id="Path_54476" data-name="Path 54476" d="M669.726,330.6l-1.392.109a.8.8,0,0,0,.109,1.587h.022l1.37-.109h0a.783.783,0,0,0,.739-.848.8.8,0,0,0-.848-.739Z" transform="translate(-522.454 -258.724)" fill="url(#linear-gradient-81)"/>
                <path id="Path_54477" data-name="Path 54477" d="M648.568,332.389l-1.392.152a.783.783,0,0,0-.7.87.8.8,0,0,0,.87.717h0l1.37-.152h.022a.783.783,0,0,0,.7-.87A.8.8,0,0,0,648.568,332.389Z" transform="translate(-505.927 -260.126)" fill="url(#linear-gradient-82)"/>
                <path id="Path_54478" data-name="Path 54478" d="M627.444,334.973l-1.391.217a.8.8,0,0,0-.674.891.783.783,0,0,0,.913.652h0l1.37-.2h0a.79.79,0,1,0-.217-1.565Z" transform="translate(-489.413 -262.145)" fill="url(#linear-gradient-83)"/>
                <path id="Path_54479" data-name="Path 54479" d="M606.474,338.4l-1.37.261a.826.826,0,0,0-.63.913.783.783,0,0,0,.935.63h0l1.348-.239h.022a.783.783,0,0,0,.631-.913.826.826,0,0,0-.935-.63Z" transform="translate(-473.052 -264.833)" fill="url(#linear-gradient-84)"/>
                <path id="Path_54480" data-name="Path 54480" d="M585.687,342.7l-1.37.326a.783.783,0,1,0,.37,1.522h0l1.348-.3h0a.761.761,0,0,0,.587-.935.8.8,0,0,0-.935-.587Z" transform="translate(-456.809 -268.198)" fill="url(#linear-gradient-85)"/>
                <path id="Path_54481" data-name="Path 54481" d="M565.094,347.879l-1.348.37a.783.783,0,0,0-.544.957.8.8,0,0,0,.978.544h0l1.326-.37h.022a.783.783,0,0,0,.522-.978.761.761,0,0,0-.957-.522Z" transform="translate(-440.738 -272.224)" fill="url(#linear-gradient-86)"/>
                <path id="Path_54482" data-name="Path 54482" d="M544.854,354.049l-1.326.457a.77.77,0,0,0,.5,1.457h0l1.3-.457h.022a.77.77,0,1,0-.5-1.457Z" transform="translate(-424.955 -277.047)" fill="url(#linear-gradient-87)"/>
                <path id="Path_54483" data-name="Path 54483" d="M524.936,361.322l-1.283.522a.783.783,0,0,0-.435,1,.8.8,0,0,0,1,.413h0l1.283-.522h.022a.739.739,0,0,0,.413-.978.761.761,0,0,0-.978-.435Z" transform="translate(-409.429 -282.732)" fill="url(#linear-gradient-88)"/>
                <path id="Path_54484" data-name="Path 54484" d="M505.517,369.719l-1.261.609a.744.744,0,0,0,.631,1.348h.022l1.239-.587h.022a.761.761,0,0,0-.652-1.37Z" transform="translate(-394.293 -289.304)" fill="url(#linear-gradient-89)"/>
                <path id="Path_54485" data-name="Path 54485" d="M486.64,379.341l-1.218.674a.735.735,0,1,0,.717,1.283h0l1.218-.652h0a.717.717,0,0,0,.3-1,.761.761,0,0,0-1.022-.283Z" transform="translate(-379.591 -296.817)" fill="url(#linear-gradient-90)"/>
                <path id="Path_54486" data-name="Path 54486" d="M468.469,390.119l-1.174.761a.717.717,0,0,0-.217,1,.739.739,0,0,0,1.022.217h0l1.152-.739h.022a.739.739,0,0,0,.217-1,.717.717,0,0,0-1.022-.217Z" transform="translate(-365.442 -305.224)" fill="url(#linear-gradient-91)"/>
                <path id="Path_54487" data-name="Path 54487" d="M451.176,402.254l-1.109.848a.722.722,0,1,0,.87,1.152h.022l1.087-.826h0a.722.722,0,1,0-.87-1.152Z" transform="translate(-351.997 -314.707)" fill="url(#linear-gradient-92)"/>
                <path id="Path_54488" data-name="Path 54488" d="M434.572,415.625l-1.044.957a.718.718,0,1,0,.957,1.044h0l1.022-.913h.022a.718.718,0,0,0,.043-1,.7.7,0,0,0-1-.065Z" transform="translate(-339.024 -325.143)" fill="url(#linear-gradient-93)"/>
                <path id="Path_54489" data-name="Path 54489" d="M419.877,430.481l-.957,1.022a.7.7,0,1,0,1.022.957h0l.935-1h.022a.7.7,0,1,0-1.022-.957Z" transform="translate(-327.699 -336.737)" fill="url(#linear-gradient-94)"/>
                <path id="Path_54490" data-name="Path 54490" d="M406.228,446.567l-.848,1.109a.689.689,0,1,0,1.087.848h.022l.826-1.065h.022a.717.717,0,0,0-.13-.978.7.7,0,0,0-.978.13Z" transform="translate(-317.138 -349.301)" fill="url(#linear-gradient-95)"/>
                <path id="Path_54491" data-name="Path 54491" d="M394.27,464l-.739,1.2a.679.679,0,1,0,1.152.717h.022l.717-1.152h0a.679.679,0,1,0-1.152-.717Z" transform="translate(-307.897 -362.912)" fill="url(#linear-gradient-96)"/>
                <path id="Path_54492" data-name="Path 54492" d="M384.146,482.494l-.609,1.261a.652.652,0,0,0,.3.891.674.674,0,0,0,.891-.3h0l.609-1.218h.022a.676.676,0,0,0-1.218-.587Z" transform="translate(-300.1 -377.336)" fill="url(#linear-gradient-97)"/>
                <path id="Path_54493" data-name="Path 54493" d="M375.853,502.276l-.5,1.326a.66.66,0,0,0,1.239.457h0l.5-1.261h0a.674.674,0,0,0-1.239-.478Z" transform="translate(-293.72 -392.856)" fill="url(#linear-gradient-98)"/>
                <path id="Path_54494" data-name="Path 54494" d="M369.4,522.128l-.37,1.348a.674.674,0,0,0,.457.8.631.631,0,0,0,.783-.457h.022l.37-1.3h0a.654.654,0,1,0-1.261-.348Z" transform="translate(-288.789 -408.273)" fill="url(#linear-gradient-99)"/>
                <path id="Path_54495" data-name="Path 54495" d="M364.722,542.76l-.261,1.37a.642.642,0,0,0,1.261.239h0l.261-1.348h0a.642.642,0,1,0-1.261-.239Z" transform="translate(-285.22 -424.361)" fill="url(#linear-gradient-100)"/>
                <path id="Path_54496" data-name="Path 54496" d="M361.918,563.915l-.13,1.392a.634.634,0,0,0,1.261.13h0l.13-1.348h0a.63.63,0,0,0-.565-.7.652.652,0,0,0-.7.565Z" transform="translate(-283.134 -440.907)" fill="url(#linear-gradient-101)"/>
                <path id="Path_54497" data-name="Path 54497" d="M360.953,585.109V586.5a.631.631,0,1,0,1.239.022h0v-1.37h0a.652.652,0,0,0-.609-.652.631.631,0,0,0-.631.631Z" transform="translate(-282.473 -457.426)" fill="url(#linear-gradient-102)"/>
                <path id="Path_54498" data-name="Path 54498" d="M361.3,606.425l.109,1.413a.609.609,0,0,0,.652.565.631.631,0,0,0,.565-.652H362.6l-.087-1.37h0a.609.609,0,0,0-.652-.587.631.631,0,0,0-.565.652Z" transform="translate(-282.753 -474.089)" fill="url(#linear-gradient-103)"/>
                <path id="Path_54499" data-name="Path 54499" d="M363.477,627.729l.217,1.392a.587.587,0,0,0,.674.5.631.631,0,0,0,.5-.7h0l-.217-1.348h0a.593.593,0,0,0-1.174.174Z" transform="translate(-284.453 -490.741)" fill="url(#linear-gradient-104)"/>
                <path id="Path_54500" data-name="Path 54500" d="M367.351,648.629l.326,1.37a.63.63,0,0,0,.717.435.587.587,0,0,0,.435-.717h0l-.326-1.348h0a.591.591,0,0,0-1.152.261Z" transform="translate(-287.479 -507.053)" fill="url(#linear-gradient-105)"/>
                <path id="Path_54501" data-name="Path 54501" d="M373.066,669.26l.435,1.326a.587.587,0,0,0,.739.37.565.565,0,0,0,.348-.739h0l-.435-1.3h0a.565.565,0,0,0-.739-.348.544.544,0,0,0-.348.717Z" transform="translate(-291.933 -523.183)" fill="url(#linear-gradient-106)"/>
                <path id="Path_54502" data-name="Path 54502" d="M380.531,689.241l.565,1.261a.57.57,0,1,0,1.044-.457h0l-.565-1.261h0a.57.57,0,0,0-1.044.457Z" transform="translate(-297.767 -538.772)" fill="url(#linear-gradient-107)"/>
                <path id="Path_54503" data-name="Path 54503" d="M389.8,708.385l.674,1.218a.565.565,0,1,0,.978-.544h-.022l-.652-1.218h-.022a.544.544,0,0,0-.761-.217.587.587,0,0,0-.217.761Z" transform="translate(-304.993 -553.721)" fill="url(#linear-gradient-108)"/>
                <path id="Path_54504" data-name="Path 54504" d="M400.866,726.781l.8,1.13a.54.54,0,1,0,.891-.609h-.022l-.761-1.131h-.022a.54.54,0,0,0-.891.609Z" transform="translate(-313.646 -568.115)" fill="url(#linear-gradient-109)"/>
                <path id="Path_54505" data-name="Path 54505" d="M413.707,743.872l.913,1.065a.522.522,0,0,0,.717.065.544.544,0,0,0,.065-.739h-.022l-.87-1.044h-.022a.522.522,0,0,0-.739-.065.544.544,0,0,0-.065.739Z" transform="translate(-323.66 -581.489)" fill="url(#linear-gradient-110)"/>
                <path id="Path_54506" data-name="Path 54506" d="M428.208,759.61l1.022.957a.5.5,0,0,0,.674-.717h0l-1-.957h0a.5.5,0,0,0-.717.022.522.522,0,0,0,0,.717Z" transform="translate(-334.986 -593.791)" fill="url(#linear-gradient-111)"/>
                <path id="Path_54507" data-name="Path 54507" d="M444.01,773.7l1.109.848a.481.481,0,0,0,.587-.761h0l-1.087-.826h0a.5.5,0,1,0-.609.783Z" transform="translate(-347.289 -604.798)" fill="url(#linear-gradient-112)"/>
                <path id="Path_54508" data-name="Path 54508" d="M461.526,786.416l1.2.739a.457.457,0,0,0,.63-.152.435.435,0,0,0-.13-.631H463.2l-1.152-.717h-.022a.474.474,0,0,0-.5.8Z" transform="translate(-361.021 -614.792)" fill="url(#linear-gradient-113)"/>
                <path id="Path_54509" data-name="Path 54509" d="M479.943,797.1l1.239.63a.452.452,0,0,0,.413-.8h-.022l-1.218-.63h0a.457.457,0,1,0-.435.8Z" transform="translate(-375.394 -623.126)" fill="url(#linear-gradient-114)"/>
                <path id="Path_54510" data-name="Path 54510" d="M499.41,806.223l1.3.522a.413.413,0,0,0,.544-.239.435.435,0,0,0-.239-.565h0l-1.283-.522h0a.435.435,0,0,0-.326.8Z" transform="translate(-390.643 -630.294)" fill="url(#linear-gradient-115)"/>
                <path id="Path_54511" data-name="Path 54511" d="M519.362,813.556l1.348.391a.413.413,0,0,0,.239-.783h-.022l-1.3-.413H519.6a.413.413,0,0,0-.5.283.391.391,0,0,0,.261.522Z" transform="translate(-406.225 -636.041)" fill="url(#linear-gradient-116)"/>
                <path id="Path_54512" data-name="Path 54512" d="M539.97,819.148l1.37.283a.413.413,0,0,0,.478-.3.391.391,0,0,0-.3-.457h-.022l-1.348-.3h0a.4.4,0,1,0-.174.783Z" transform="translate(-422.332 -640.437)" fill="url(#linear-gradient-117)"/>
                <path id="Path_54513" data-name="Path 54513" d="M561.017,823.03l1.391.174a.372.372,0,0,0,.087-.739h0l-1.37-.174H561.1a.372.372,0,0,0-.087.739Z" transform="translate(-438.792 -643.514)" fill="url(#linear-gradient-118)"/>
                <path id="Path_54514" data-name="Path 54514" d="M582.248,825.107l1.392.043a.326.326,0,0,0,.37-.348.37.37,0,0,0-.348-.37h0l-1.37-.043h-.022a.326.326,0,0,0-.37.326A.391.391,0,0,0,582.248,825.107Z" transform="translate(-455.392 -645.156)" fill="url(#linear-gradient-119)"/>
                <path id="Path_54515" data-name="Path 54515" d="M603.57,825.161l1.391-.065a.348.348,0,0,0,.326-.37.37.37,0,0,0-.348-.326h-.022l-1.37.065h-.022a.348.348,0,0,0-.326.348.37.37,0,0,0,.37.348Z" transform="translate(-472.061 -645.167)" fill="url(#linear-gradient-120)"/>
                <path id="Path_54516" data-name="Path 54516" d="M624.859,823.223l1.391-.174a.33.33,0,0,0-.087-.652h-.022l-1.348.174h-.022a.329.329,0,0,0,.087.652Z" transform="translate(-488.719 -643.599)" fill="url(#linear-gradient-121)"/>
                <path id="Path_54517" data-name="Path 54517" d="M645.94,819.459l1.37-.3a.3.3,0,0,0,.217-.37.283.283,0,0,0-.348-.217h-.022l-1.348.283h0a.311.311,0,1,0,.13.609Z" transform="translate(-505.212 -640.595)" fill="url(#linear-gradient-122)"/>
                <path id="Path_54518" data-name="Path 54518" d="M666.343,813.834l1.326-.435a.285.285,0,0,0-.174-.544h0l-1.326.413h0a.3.3,0,1,0,.174.565Z" transform="translate(-521.115 -636.123)" fill="url(#linear-gradient-123)"/>
                <path id="Path_54519" data-name="Path 54519" d="M686.712,806.269l1.283-.544a.273.273,0,0,0-.217-.5h0l-1.283.544h0a.3.3,0,0,0-.152.37A.283.283,0,0,0,686.712,806.269Z" transform="translate(-537.114 -630.145)" fill="url(#linear-gradient-124)"/>
                <path id="Path_54520" data-name="Path 54520" d="M706.16,796.888l1.218-.674a.249.249,0,1,0-.239-.435h0l-1.218.652h0a.261.261,0,0,0,.239.456Z" transform="translate(-552.366 -622.742)" fill="url(#linear-gradient-125)"/>
                <path id="Path_54521" data-name="Path 54521" d="M724.5,786.237l.891-.63a.227.227,0,1,0-.261-.37h0l-.891.609h0a.239.239,0,0,0,.261.391Z" transform="translate(-566.727 -614.483)" fill="url(#linear-gradient-126)"/>
                <path id="Path_54522" data-name="Path 54522" d="M353.556,120.966a1.435,1.435,0,0,1-1.326-.957l-1.978-5.588a28.374,28.374,0,0,1-7.762-3.131l-5.327,2.631a1.37,1.37,0,0,1-1.609-.261l-5.5-5.392a1.391,1.391,0,0,1-.283-1.609l2.566-5.37a28.351,28.351,0,0,1-3.283-7.7L323.444,91.7a1.435,1.435,0,0,1-.978-1.326l-.065-7.7a1.435,1.435,0,0,1,.957-1.348l5.588-1.979a28.372,28.372,0,0,1,3.131-7.762l-2.631-5.327a1.391,1.391,0,0,1,.261-1.609l5.392-5.5a1.435,1.435,0,0,1,1.631-.283l5.349,2.566a28.939,28.939,0,0,1,7.7-3.283l1.892-5.609a1.413,1.413,0,0,1,1.348-.978l7.7-.065h0a1.457,1.457,0,0,1,1.348.957l1.979,5.588a28.917,28.917,0,0,1,7.762,3.131l5.305-2.631a1.392,1.392,0,0,1,1.631.261l5.479,5.392a1.413,1.413,0,0,1,.283,1.631l-2.544,5.349a28.569,28.569,0,0,1,3.261,7.7l5.631,1.892a1.435,1.435,0,0,1,.957,1.326l.065,7.718a1.413,1.413,0,0,1-.935,1.326l-5.609,1.979a28.373,28.373,0,0,1-3.131,7.762l2.631,5.327a1.37,1.37,0,0,1-.239,1.609l-5.414,5.5a1.391,1.391,0,0,1-1.609.283l-5.37-2.544a28.982,28.982,0,0,1-7.7,3.261l-1.892,5.609a1.392,1.392,0,0,1-1.326.978l-7.7.065Zm-10.98-11.719.413.261a27.025,27.025,0,0,0,8.132,3.3l.478.109,2.218,6.262,7.175-.065,2.131-6.305.478-.109a26.961,26.961,0,0,0,8.066-3.435l.413-.261,6,2.87,5.044-5.109-2.957-5.957.239-.435a27.025,27.025,0,0,0,3.3-8.132l.109-.478,6.262-2.218-.065-7.175-6.305-2.109-.109-.478A27.374,27.374,0,0,0,380.19,71.7l-.283-.413,2.87-6-5.109-5.044-5.957,2.979-.435-.261a26.9,26.9,0,0,0-8.11-3.3l-.478-.109-2.239-6.262-7.175.065-2.109,6.305-.478.109A26.852,26.852,0,0,0,342.6,63.2l-.413.261-6-2.87L331.14,65.7l2.979,5.957-.261.435a26.416,26.416,0,0,0-3.283,8.132l-.109.478-6.283,2.218.065,7.175,6.305,2.109.109.478a26.852,26.852,0,0,0,3.435,8.088l.261.413-2.87,6,5.131,5.044ZM350.469,58.892Zm6.566,46.941a19.481,19.481,0,0,1-.152-38.94,20.089,20.089,0,0,1,4.109.391.9.9,0,1,1-.348,1.761,16.85,16.85,0,0,0-3.761-.37,17.643,17.643,0,1,0,15.263,8.479.87.87,0,0,1,.283-1.218.913.913,0,0,1,1.239.283,19.5,19.5,0,0,1-16.48,29.613Z" transform="translate(-252.312 -40.311)" fill="#7d97f4"/>
                <path id="Path_54523" data-name="Path 54523" d="M454.339,191.192a7.544,7.544,0,0,1-3.892-1.065,7.718,7.718,0,0,1,1.957-14.132h0a7.718,7.718,0,1,1,3.892,14.937,7.435,7.435,0,0,1-1.957.261Zm-1.478-13.48a5.849,5.849,0,0,0-3.631,2.739,5.929,5.929,0,1,0,3.631-2.739Z" transform="translate(-349.529 -137.541)" fill="#7d97f4"/>
                <path id="Path_54524" data-name="Path 54524" d="M256.475,383.4a.913.913,0,0,1-.739-.37l-1.609-2.2a14.2,14.2,0,0,1-3.827-.348l-1.979,1.87a.957.957,0,0,1-1.065.152l-3.283-1.718a.913.913,0,0,1-.478-.957l.413-2.7a14.676,14.676,0,0,1-2.479-2.957l-2.718-.065a.935.935,0,0,1-.848-.652l-1.109-3.544a.891.891,0,0,1,.348-1l2.174-1.631a15.132,15.132,0,0,1,.348-3.827l-1.87-1.979a.891.891,0,0,1-.13-1.044l1.718-3.283a.957.957,0,0,1,.957-.5l2.674.413a13.893,13.893,0,0,1,2.957-2.457l.087-2.718a.891.891,0,0,1,.631-.848l3.544-1.109a.891.891,0,0,1,1,.326l1.631,2.2a14.2,14.2,0,0,1,3.827.348l1.979-1.87a.891.891,0,0,1,1.044-.152l3.283,1.718a.957.957,0,0,1,.5.957l-.413,2.7a13.784,13.784,0,0,1,2.457,2.935l2.718.087a.935.935,0,0,1,.848.652l1.109,3.522a.913.913,0,0,1-.326,1.022l-2.2,1.609a13.373,13.373,0,0,1-.348,3.827l1.87,1.979a.913.913,0,0,1,.152,1.065l-1.718,3.283a.913.913,0,0,1-.957.478l-2.7-.413a14.545,14.545,0,0,1-2.935,2.479l-.087,2.718a.913.913,0,0,1-.652.848l-3.522,1.109ZM256.345,382.076Zm-1.587-2.631,1.87,2.544,2.979-.913.087-3.174.326-.174a13.307,13.307,0,0,0,3.174-2.653l.239-.283,3.131.478L268,372.509l-2.152-2.3.087-.348a12.632,12.632,0,0,0,.37-4.131v-.37l2.544-1.87-.935-2.979-3.153-.087-.2-.326a12.349,12.349,0,0,0-2.653-3.174l-.283-.239.478-3.131-2.761-1.435-2.3,2.174-.348-.109a12.589,12.589,0,0,0-4.131-.37h-.37l-1.87-2.544-2.979.935-.087,3.153-.3.2a12.915,12.915,0,0,0-3.218,2.674l-.239.283-3.109-.478-1.457,2.761,2.174,2.3-.087.348a12.589,12.589,0,0,0-.37,4.131v.37l-2.544,1.87.935,2.979,3.153.087.174.3a12.61,12.61,0,0,0,2.674,3.2l.261.239-.457,3.109,2.74,1.457,2.3-2.174.37.087a12.5,12.5,0,0,0,4.109.37ZM247.865,381.315Zm-3.283-1.718ZM268.216,372.727ZM267.8,360.225ZM240.082,357.986Zm22.264-4.3ZM247.344,351.941ZM246.67,351.92ZM250.583,351.2Zm2.87,25.112a9.61,9.61,0,0,1-2.87-18.763,9.047,9.047,0,0,1,2-.391.652.652,0,0,1,.717.587.674.674,0,0,1-.609.739,8.024,8.024,0,0,0-1.718.348,8.262,8.262,0,1,0,10.349,5.414,8.045,8.045,0,0,0-2.37-3.7.663.663,0,1,1,.87-1,9.479,9.479,0,0,1,2.783,4.3,9.588,9.588,0,0,1-6.305,12.023A9.35,9.35,0,0,1,253.453,376.314Z" transform="translate(-185.257 -273.83)" fill="#7d97f4"/>
                <path id="Path_54525" data-name="Path 54525" d="M1832.962,837.6a26.9,26.9,0,0,0-6.827,13.5c-1.7,8.653-5.718-12.219-5.718-12.219h-4.066s-1.544,21.5,9.958,23.22a6.153,6.153,0,0,0,5.74-2.283c2.109-2.674,5.37-7.414,6.175-11.936A14.529,14.529,0,0,0,1832.962,837.6Z" transform="translate(-1421.394 -655.497)" fill="#eedb91"/>
                <path id="Path_54526" data-name="Path 54526" d="M1982.44,1274.057c0-.065-.021-.13-.021-.2-.978-3.8-4.914-5.762-4.914-5.762l-1.891.152c-1.087,3.37-1.783,5-1.609,5.914,0,.022.022.065.022.087A46.137,46.137,0,0,0,1982.44,1274.057Z" transform="translate(-1544.804 -992.397)" fill="#005894"/>
                <path id="Path_54527" data-name="Path 54527" d="M1974.2,1295.7a.827.827,0,0,0,.609.609,26.17,26.17,0,0,0,7.218-.109.718.718,0,0,0,.587-.7A46.151,46.151,0,0,1,1974.2,1295.7Z" transform="translate(-1544.978 -1013.84)" fill="url(#linear-gradient-127)"/>
                <path id="Path_54528" data-name="Path 54528" d="M1985.391,1254.6l-.826,3.979a.652.652,0,0,1-.565.543,6.455,6.455,0,0,1-1.283-.022.848.848,0,0,1-.652-.957l.587-3.544Z" transform="translate(-1551.124 -981.833)" fill="url(#linear-gradient-128)"/>
                <path id="Path_54529" data-name="Path 54529" d="M1870.207,1294.322a10.076,10.076,0,0,0,3.609-.522v.631a.413.413,0,0,1-.37.413l-11.11-.087a.522.522,0,0,1-.413-.739A80.7,80.7,0,0,0,1870.207,1294.322Z" transform="translate(-1457.074 -1012.51)" fill="url(#linear-gradient-129)"/>
                <path id="Path_54530" data-name="Path 54530" d="M1862.1,1275.235a.108.108,0,0,0,.043-.087,14.1,14.1,0,0,1,8.414-5.262l2.37-.087a11.418,11.418,0,0,1,1.065,5.218,10.074,10.074,0,0,1-3.609.522A80.6,80.6,0,0,1,1862.1,1275.235Z" transform="translate(-1457.25 -993.728)" fill="#005894"/>
                <path id="Path_54531" data-name="Path 54531" d="M1902.865,1251.265c-.021.174-.348,2.87-.478,3.914a.479.479,0,0,1-.435.457,5.738,5.738,0,0,1-1.609-.022.718.718,0,0,1-.543-.718v-4.2Z" transform="translate(-1486.753 -978.78)" fill="url(#linear-gradient-130)"/>
                <path id="Path_54532" data-name="Path 54532" d="M1917.477,1013.7s3.8,33.657,1.7,54.681a16.536,16.536,0,0,1-3.783-.413s-3.935-32.917-5.218-42.332a.326.326,0,0,0-.631-.022c-1.565,7.914-7.74,38.983-8.458,41.919a5.2,5.2,0,0,1-3.783,0s3.348-45.006,5.87-53.007Z" transform="translate(-1484.797 -793.309)" fill="url(#linear-gradient-131)"/>
                <path id="Path_54533" data-name="Path 54533" d="M1922.013,830.438s-16-2.522-28.612.848l.848,13.045s3.348,18.089,5.87,26.069c0,0,9.7,1.7,14.306-.826,0,0,3.8-22.72,5.892-26.09C1920.317,843.483,1922.426,834.634,1922.013,830.438Z" transform="translate(-1481.745 -649.182)" fill="#eedb91"/>
                <path id="Path_54534" data-name="Path 54534" d="M1952.27,770.5l1.7,13.023s-4.457,2.044-7.566-.087l.674-7.61Z" transform="translate(-1523.222 -602.986)" fill="url(#linear-gradient-132)"/>
                <path id="Path_54535" data-name="Path 54535" d="M2009.114,833.7s24.808,26.917-4.414,37.222v-2.087s10.936-9.262,2.522-21.894C2007.222,846.941,2008.266,834.961,2009.114,833.7Z" transform="translate(-1568.846 -652.445)" fill="#eedb91"/>
                <path id="Path_54536" data-name="Path 54536" d="M1977.953,989.547s-3.783-2.522-5.479-1.674-1.674,2.109-1.674,2.109.848,1.674,2.109,1.261,4.2.413,5.457,0C1978.366,991.243,1978.8,989.547,1977.953,989.547Z" transform="translate(-1542.317 -772.961)" fill="url(#linear-gradient-133)"/>
                <path id="Path_54537" data-name="Path 54537" d="M1811.722,780.828l5.349,1.8a1.789,1.789,0,0,1,1.152,1.674l-.283,8.914c.087,1.391-1.065,2.631-2.153,2.3l-4.283-1.457a1.105,1.105,0,0,1-.7-1.109l-.109-11.088C1810.7,781.219,1811.244,780.7,1811.722,780.828Z" transform="translate(-1417.026 -611.052)" fill="url(#linear-gradient-134)"/>
                <path id="Path_54538" data-name="Path 54538" d="M1806.933,803.478s-1.652-5.349-.8-6.262,2.544-3.392,2.653-1.348S1809.912,806.674,1806.933,803.478Z" transform="translate(-1413.259 -622.223)" fill="url(#linear-gradient-135)"/>
                <path id="Path_54539" data-name="Path 54539" d="M1928.4,755.379c-.044.152,1.87,10.327,1.87,10.327l5.783-1.218-.37-9.893S1928.811,752.792,1928.4,755.379Z" transform="translate(-1509.133 -590.061)" fill="url(#linear-gradient-136)"/>
                <path id="Path_54540" data-name="Path 54540" d="M1924.841,743.792a.848.848,0,0,1,.413.63l.587,5.131a.371.371,0,0,1,0,.217c-.065.435-.413,1.761-1.783,1.348a6.727,6.727,0,0,0-3.044-.5.826.826,0,0,0-.674.978,31.821,31.821,0,0,0,1.174,4.522.848.848,0,0,0,1.022.522,23.352,23.352,0,0,0,4.957-1.913.847.847,0,0,0,.435-.761c-.043-1.392-.13-5.24.022-6.349s1.37-1.609,1.957-1.848a.87.87,0,0,0,.478-.478,1.884,1.884,0,0,0-1.174-2.7.826.826,0,0,1-.5-1.065,1.872,1.872,0,0,0-1.044-2.544,2.676,2.676,0,0,0-3.131.631.891.891,0,0,1-1.044.152.587.587,0,0,0-.565,0,.848.848,0,0,1-1.131-.37,2.165,2.165,0,0,0-2.479-1.239c-2.587.413-2.914,3.261-2.261,4.957s3.436,1.087,4.827.261C1922.928,742.792,1924.232,743.422,1924.841,743.792Z" transform="translate(-1500.032 -577.648)" fill="url(#linear-gradient-137)"/>
                <path id="Path_54541" data-name="Path 54541" d="M1966.964,775.855s-.717-2.8.37-3.522,2.718-.3,2.326,1.848C1969.182,776.856,1966.964,775.855,1966.964,775.855Z" transform="translate(-1539.133 -604.167)" fill="url(#linear-gradient-138)"/>
                <path id="Path_54542" data-name="Path 54542" d="M1914.653,739.9l-.087-.043c-.935-2.022,1.261-3.631,1.283-3.631a.087.087,0,0,1,.13.022.065.065,0,0,1-.022.109c-.022.022-2.087,1.544-1.218,3.414a.087.087,0,0,1-.043.13Z" transform="translate(-1498.128 -576.148)" fill="#fff"/>
                <path id="Path_54543" data-name="Path 54543" d="M1461.459,772.517v18.372c0,1.5-.913,2.718-2.044,2.718h-66.987a2.263,2.263,0,0,0-1.979,2.065l-1.2,6.392c-.152.848-1.044.913-1.283.109l-1.544-5.414a2.16,2.16,0,0,0-1.913-1.739h-2.87c-1.131,0-2.044-1.218-2.044-2.718V773.386c0-1.479.891-2.7,2.022-2.7l77.793-.891C1460.546,769.777,1461.459,770.995,1461.459,772.517Z" transform="translate(-1079.656 -602.437)" fill="#bdd0fb"/>
                <ellipse id="Ellipse_838" data-name="Ellipse 838" cx="8.218" cy="8.436" rx="8.218" ry="8.436" transform="translate(302.097 170.949)" fill="#7d97f4"/>
                <path id="Path_54544" data-name="Path 54544" d="M1421.2,800.087a3.143,3.143,0,0,1-2.761,3.153c-1.522,0-2.739-1.652-2.739-3.153a2.756,2.756,0,0,1,5.5,0Z" transform="translate(-1107.907 -624.115)" fill="url(#linear-gradient-139)"/>
                <path id="Path_54545" data-name="Path 54545" d="M1405.853,832.857h6.7a1.631,1.631,0,0,0,1.544-1.131l.348-1.131a1.609,1.609,0,0,0-.978-2.022,12.572,12.572,0,0,0-8.414.109,1.631,1.631,0,0,0-1.044,1.957l.283,1.022A1.631,1.631,0,0,0,1405.853,832.857Z" transform="translate(-1098.712 -647.906)" fill="url(#linear-gradient-140)"/>
                <path id="Path_54546" data-name="Path 54546" d="M1538.724,829.485a1.609,1.609,0,0,1-1.674,1.587h-48.876a1.609,1.609,0,0,1-1.674-1.587h0a1.631,1.631,0,0,1,1.674-1.587h48.876A1.631,1.631,0,0,1,1538.724,829.485Z" transform="translate(-1163.314 -647.904)" fill="url(#linear-gradient-141)"/>
                <path id="Path_54547" data-name="Path 54547" d="M1517.525,853.534a1.457,1.457,0,0,1-1.457,1.457h-25.634a1.457,1.457,0,0,1-1.435-1.457h0a1.435,1.435,0,0,1,1.435-1.435h25.634a1.435,1.435,0,0,1,1.457,1.435Z" transform="translate(-1165.27 -666.844)" fill="url(#linear-gradient-142)"/>
                <path id="Path_54548" data-name="Path 54548" d="M1649.794,853.534a1.457,1.457,0,0,1-1.435,1.457h-18.5a1.457,1.457,0,0,1-1.457-1.457h0a1.435,1.435,0,0,1,1.457-1.435h18.5A1.435,1.435,0,0,1,1649.794,853.534Z" transform="translate(-1274.362 -666.844)" fill="url(#linear-gradient-143)"/>
                <rect id="Rectangle_8882" data-name="Rectangle 8882" width="28.765" height="4.235" rx="2.118" transform="translate(323.056 171.645)" fill="#7d97f4"/>
                <path id="Path_54549" data-name="Path 54549" d="M485.752,808.268c-.022,16.154-.13,71.923-1.109,91.664a3.705,3.705,0,0,1-3.37,3.761c-8.849.152-41.288.283-55.747-.739-3-.217-5.349-3.131-5.327-6.653.065-16.981.457-64.683,2.522-86.511a5.137,5.137,0,0,1,4.3-4.87c9.653-.913,42.288-2.957,54.768-1.718C484.034,803.42,485.752,805.616,485.752,808.268Z" transform="translate(-328.848 -628.274)" fill="url(#linear-gradient-144)"/>
                <path id="Path_54550" data-name="Path 54550" d="M498.1,833.962c.2,13.045.739,56.464-.087,72.51a4.288,4.288,0,0,1-3.761,4.283c-8.262.391-36.4,1-48.463-.391a4.83,4.83,0,0,1-3.914-4.914c-.3-13.306-1.174-53.746-.37-69.6a4.735,4.735,0,0,1,4.022-4.74c8.936-.739,38.875-2.3,49.137-1.435A4.124,4.124,0,0,1,498.1,833.962Z" transform="translate(-345.26 -649.097)" fill="#e9effd"/>
                <path id="Path_54551" data-name="Path 54551" d="M561.832,812.994h0a.9.9,0,0,1-.783.913c-2.087.065-7.979.3-10.61.435a.9.9,0,0,1-.8-1.131V813.1a.848.848,0,0,1,.717-.739,84.831,84.831,0,0,1,10.719-.326A.9.9,0,0,1,561.832,812.994Z" transform="translate(-430.127 -635.435)" fill="url(#linear-gradient-145)"/>
                <circle id="Ellipse_839" data-name="Ellipse 839" cx="20.742" cy="20.742" r="20.742" transform="translate(103.81 200.519)" fill="url(#linear-gradient-146)"/>
                <path id="Path_54552" data-name="Path 54552" d="M539.242,984.006a3.761,3.761,0,0,0-2.2-2.435l-1.5-.587a2.848,2.848,0,0,0-3.348.957l-1.326,1.761a10.919,10.919,0,0,1-6.631-2.3,10.428,10.428,0,0,1-3.979-5.349.087.087,0,0,1,.022-.065.065.065,0,0,1,.087,0l1.2-1.609a3.261,3.261,0,0,0-.065-3.979l-1-1.261a3.74,3.74,0,0,0-5.914.087,4.435,4.435,0,0,0-.783,1.609c-1.109,3.892,2.022,9.762,7.805,14.089s12.284,5.675,15.7,3.522a4.435,4.435,0,0,0,1.326-1.218A3.7,3.7,0,0,0,539.242,984.006Z" transform="translate(-401.928 -757.332)" fill="url(#linear-gradient-147)"/>
                <path id="Path_54553" data-name="Path 54553" d="M436.388,1187.594a6.392,6.392,0,0,1-6.392-6.349v-10.806a.218.218,0,0,1,.217-.239.239.239,0,0,1,.239.239v10.806a5.914,5.914,0,0,0,5.914,5.87.24.24,0,0,1,.022.478Z" transform="translate(-336.514 -915.783)" fill="url(#linear-gradient-148)"/>
                <path id="Path_54554" data-name="Path 54554" d="M296.733,1258.4s-.435,2.413-.652,4.827a1.652,1.652,0,0,0,1.587,1.783c3.218.152,10.066.413,12.523.283a.522.522,0,0,0,.457-.739h0a1.152,1.152,0,0,0-.609-.631l-11.306-5.218Z" transform="translate(-231.712 -984.806)" fill="url(#linear-gradient-149)"/>
                <path id="Path_54555" data-name="Path 54555" d="M297.5,1250.157l.348,2.913s1.979.913,3.327-.13l-.826-3.24Z" transform="translate(-232.826 -977.998)" fill="url(#linear-gradient-150)"/>
                <path id="Path_54556" data-name="Path 54556" d="M266.345,1000.6c-.152.761-.8,37.853,3.153,54.485a.565.565,0,0,1-.326.652,10.025,10.025,0,0,1-3.24.652.957.957,0,0,1-.957-.7c-1.131-3.848-6.566-23.177-7.262-41.658-.8-20.611,0-.7,0-.7l.457-12.741Z" transform="translate(-201.41 -783.057)" fill="url(#linear-gradient-151)"/>
                <path id="Path_54557" data-name="Path 54557" d="M234.29,1264.2a17.854,17.854,0,0,0-1.348,4.479,1.044,1.044,0,0,0,.891,1.218,37.307,37.307,0,0,0,4,.217,1.022,1.022,0,0,0,1-1.109,8.6,8.6,0,0,0-2-4.674Z" transform="translate(-182.291 -989.345)" fill="url(#linear-gradient-152)"/>
                <path id="Path_54558" data-name="Path 54558" d="M236.5,1246.374l.8,4.392a2.867,2.867,0,0,0,2.37.174l-.391-4.74Z" transform="translate(-185.089 -975.259)" fill="url(#linear-gradient-153)"/>
                <path id="Path_54559" data-name="Path 54559" d="M221.972,998.444c-3.261,19.568.7,48.376,2.022,54.029a.848.848,0,0,0,.717.652,5.72,5.72,0,0,0,2.544-.087.783.783,0,0,0,.565-.739c.174-4.566-.13-32.548,2.892-43.614a2.5,2.5,0,0,1,.957-1.392l5.87-4.153L238,996.4Z" transform="translate(-172.735 -779.771)" fill="url(#linear-gradient-154)"/>
                <path id="Path_54560" data-name="Path 54560" d="M242.794,829.487a92.09,92.09,0,0,0-20.437,2.544c-2.892,16.915-.5,36.418-.5,36.418,7.523,1.978,16-1.218,16-1.218,1.261-7.066,7.088-26.938,7.088-26.938a31.788,31.788,0,0,0,11.893-3.783,20.9,20.9,0,0,1-4.131-8.61A32.873,32.873,0,0,1,242.794,829.487Z" transform="translate(-172.902 -647.906)" fill="url(#linear-gradient-155)"/>
                <path id="Path_54561" data-name="Path 54561" d="M385.907,766.64a1.87,1.87,0,0,0-2.174-.609c-1.413,6.044-8.914,10.958-16.633,13.35a20.9,20.9,0,0,0,4.131,8.61C384.015,780.794,385.907,766.64,385.907,766.64Z" transform="translate(-287.294 -599.387)" fill="url(#linear-gradient-156)"/>
                <path id="Path_54562" data-name="Path 54562" d="M445.573,733.293c.109.326-1.044.8-1.739-.5-.022-.63-.391-3.283-.022-3.8a49.792,49.792,0,0,1,5.827-6.088.913.913,0,0,1,.109,1.283l-1.87,1.935a8.7,8.7,0,0,1,1.087,2.152,2.566,2.566,0,0,1-.261,1.913,16.856,16.856,0,0,1-1.2,1.957,2.522,2.522,0,0,1-1.935,1.152Z" transform="translate(-347.199 -565.735)" fill="url(#linear-gradient-157)"/>
                <path id="Path_54563" data-name="Path 54563" d="M451.339,743.5l-1.7,1.435-.544,1.435,1.522,1.674a18.8,18.8,0,0,1,.891-3.457C451.9,743.957,451.687,743.674,451.339,743.5Z" transform="translate(-351.465 -581.856)" fill="url(#linear-gradient-158)"/>
                <path id="Path_54564" data-name="Path 54564" d="M193.184,856.314l-3.718-9.414s-9.088,6.175-10.567,14a20.741,20.741,0,0,1,7.631,2.153C187.923,859.945,193.184,856.314,193.184,856.314Z" transform="translate(-140.012 -662.775)" fill="url(#linear-gradient-159)"/>
                <path id="Path_54565" data-name="Path 54565" d="M265.04,798.9l-3.087,8.936a.348.348,0,0,0,.152.391,7.226,7.226,0,0,0,7.544-.5,1.565,1.565,0,0,0,.7-1.087l1-7.74Z" transform="translate(-204.997 -625.211)" fill="url(#linear-gradient-160)"/>
                <path id="Path_54566" data-name="Path 54566" d="M278.636,760.8s3.392,6.392,2.957,8.979-4.653,2.392-8.327.3L270.7,763.17Z" transform="translate(-211.853 -595.395)" fill="url(#linear-gradient-161)"/>
                <path id="Path_54567" data-name="Path 54567" d="M256.676,749.945a.261.261,0,0,0,.109-.391,6.863,6.863,0,0,1-.935-2s-.609-.391,1.544-.913,5.392-1.326,6.066-3.174-1.065-6.305-3.848-2.7a.261.261,0,0,1-.413,0,2.7,2.7,0,0,0-3.3-1.087,2.4,2.4,0,0,0-1.718,2.413.239.239,0,0,1-.3.261,3.024,3.024,0,0,0-3.544,1.652c-.87,1.935-.261,2.5.174,2.935a.261.261,0,0,1-.109.435,1.6,1.6,0,0,0-1.109,1.8c.087,1.674,1.957,1.522,2.479,1.457a.261.261,0,0,1,.239.087c.457.5,2.5,2.653,4.74,2.892a.261.261,0,0,0,.283-.348l-.978-2.783a.3.3,0,0,1,.152-.348Z" transform="translate(-195.089 -578.648)" fill="url(#linear-gradient-162)"/>
                <path id="Path_54568" data-name="Path 54568" d="M275.676,786.755s-2.435-1.652-2.609-.261,2.174,2.022,3.348,1.5Z" transform="translate(-213.698 -615.066)" fill="url(#linear-gradient-163)"/>
                <path id="Path_54569" data-name="Path 54569" d="M174.593,910s-6.2,14.154,8.979,16.22l2.065-1.739s-7.588-4.131-3.457-12.393C182.181,912.084,177.7,908.279,174.593,910Z" transform="translate(-135.662 -711.805)" fill="url(#linear-gradient-164)"/>
                <path id="Path_54570" data-name="Path 54570" d="M225.62,945.8l5.327,1.783a1.8,1.8,0,0,1,1.152,1.7l-.283,8.914c.087,1.392-1.065,2.609-2.152,2.283l-4.283-1.457a1.105,1.105,0,0,1-.7-1.109l-.087-11.089C224.576,946.174,225.12,945.652,225.62,945.8Z" transform="translate(-175.774 -740.154)" fill="url(#linear-gradient-165)"/>
                <path id="Path_54571" data-name="Path 54571" d="M219.536,966.075a7.22,7.22,0,0,1-.891-4.435c.261-2.435-.217-3.544.935-3.457s2.065.283,1.935,1.5S221.754,968.51,219.536,966.075Z" transform="translate(-171.081 -749.859)" fill="url(#linear-gradient-166)"/>
              </g>
            </g>
          </g>
        </g>
      </g>
    </g>
  </g>
</svg>
