<svg id="Group_28754" data-name="Group 28754" xmlns="http://www.w3.org/2000/svg" width="85" height="85" viewBox="0 0 85 85">
  <path id="Path_53561" data-name="Path 53561" d="M8.293,0H76.707A8.293,8.293,0,0,1,85,8.293V76.707A8.293,8.293,0,0,1,76.707,85H8.293A8.293,8.293,0,0,1,0,76.707V8.293A8.293,8.293,0,0,1,8.293,0Z" fill="rgba(0,143,122,0.12)" opacity="0.9"/>
  <g id="svgexport-7_18_" data-name="svgexport-7 (18)" transform="translate(23.611 23.611)">
    <path id="Path_53563" data-name="Path 53563" d="M32.542,302H6.732L0,318.14H39.351Zm0,0" transform="translate(0.001 -278.789)" fill="#008f7a"/>
    <path id="Path_53564" data-name="Path 53564" d="M275.676,318.14H256V302h12.866Zm0,0" transform="translate(-236.324 -278.789)" fill="#008f7a"/>
    <path id="Path_53565" data-name="Path 53565" d="M72.562,332H49.8L45,343.529H77.358Zm0,0" transform="translate(-41.542 -306.483)" fill="#e0f1ef"/>
    <path id="Path_53567" data-name="Path 53567" d="M131.376,0A10.458,10.458,0,0,0,121,10.453a10.7,10.7,0,0,0,1.591,5.611l8.785,13.927,8.785-13.927a10.7,10.7,0,0,0,1.591-5.611A10.458,10.458,0,0,0,131.376,0Zm0,16.294a5.842,5.842,0,1,1,5.764-5.841A5.833,5.833,0,0,1,131.376,16.294Zm0,0" transform="translate(-111.7)" fill="#008f7a"/>
    <path id="Path_53568" data-name="Path 53568" d="M156.616,315.141l2.288.286-1.729,13.835-2.288-.286Zm0,0" transform="translate(-142.982 -290.92)" fill="#008f7a"/>
    <path id="Path_53569" data-name="Path 53569" d="M305.965,329.224l-1.773-13.835,2.288-.292,1.773,13.835Zm0,0" transform="translate(-280.812 -290.879)" fill="#008f7a"/>
    <path id="Path_53570" data-name="Path 53570" d="M67.5,392H96.4v2.306H67.5Zm0,0" transform="translate(-62.312 -361.872)" fill="#008f7a"/>
    <path id="Path_53571" data-name="Path 53571" d="M266.376,10.453a10.7,10.7,0,0,1-1.591,5.611L256,29.99v-13.7a5.842,5.842,0,0,0,0-11.683V0A10.458,10.458,0,0,1,266.376,10.453Zm0,0" transform="translate(-236.324)" fill="#005894"/>
    <path id="Path_53572" data-name="Path 53572" d="M256,392h14.411v2.306H256Zm0,0" transform="translate(-236.324 -361.872)" fill="#008f7a"/>
  </g>
</svg>
