<svg xmlns="http://www.w3.org/2000/svg" width="79.998" height="73.803" viewBox="0 0 79.998 73.803">
  <g id="Group_28902" data-name="Group 28902" transform="translate(0.424 0.426)">
    <g id="Group_28882" data-name="Group 28882" transform="translate(0)">
      <g id="Group_28881" data-name="Group 28881">
        <path id="Path_52506" data-name="Path 52506" d="M199.028,444.3H133.923V399.987h65.105Z" transform="translate(-126.902 -381.325)" fill="#e8edf1"/>
        <path id="Path_52507" data-name="Path 52507" d="M155.077,444.3H160.7V399.987h-5.624Z" transform="translate(-88.574 -381.325)" fill="#c5d3dd"/>
        <path id="Path_52508" data-name="Path 52508" d="M199.028,405.889H133.923v-5.9h65.105Z" transform="translate(-126.902 -381.325)" fill="#c5d3dd"/>
        <path id="Path_52509" data-name="Path 52509" d="M201.819,421.073H134.661a1.691,1.691,0,0,1-1.712-1.67v-1.988a1.691,1.691,0,0,1,1.712-1.67h67.158a1.691,1.691,0,0,1,1.712,1.67V419.4A1.691,1.691,0,0,1,201.819,421.073Z" transform="translate(-128.667 -352.774)" fill="#008f7a"/>
        <path id="Path_52510" data-name="Path 52510" d="M162.78,417.416V419.4a1.691,1.691,0,0,1-1.712,1.67h-5.626a1.691,1.691,0,0,0,1.712-1.67v-1.985a1.689,1.689,0,0,0-1.712-1.67h5.626A1.689,1.689,0,0,1,162.78,417.416Z" transform="translate(-87.915 -352.772)" fill="#1da179"/>
        <path id="Path_52511" data-name="Path 52511" d="M203.318,420.21a1.609,1.609,0,0,0,.214-.807v-1.988a1.691,1.691,0,0,0-1.712-1.67H134.661a1.691,1.691,0,0,0-1.712,1.67V419.4a1.61,1.61,0,0,0,.214.807" transform="translate(-128.667 -352.774)" fill="none" stroke="#005894" stroke-linecap="round" stroke-linejoin="round" stroke-width="0.853"/>
        <path id="Path_52512" data-name="Path 52512" d="M208.861,422.726H133.138a1.692,1.692,0,0,1-1.712-1.67V419.07a1.692,1.692,0,0,1,1.712-1.67h75.723a1.692,1.692,0,0,1,1.712,1.67v1.985A1.692,1.692,0,0,1,208.861,422.726Z" transform="translate(-131.426 -349.775)" fill="#1da179"/>
        <path id="Path_52513" data-name="Path 52513" d="M164.3,419.07v1.985a1.691,1.691,0,0,1-1.712,1.67h-5.624a1.69,1.69,0,0,0,1.71-1.67V419.07a1.69,1.69,0,0,0-1.71-1.67h5.624A1.691,1.691,0,0,1,164.3,419.07Z" transform="translate(-85.155 -349.775)" fill="#008f7a"/>
        <path id="Path_52514" data-name="Path 52514" d="M146.3,417.4H133.137a1.69,1.69,0,0,0-1.71,1.67v1.985a1.69,1.69,0,0,0,1.71,1.67h75.723a1.692,1.692,0,0,0,1.712-1.67V419.07a1.692,1.692,0,0,0-1.712-1.67H151.551" transform="translate(-131.424 -349.775)" fill="none" stroke="#005894" stroke-linecap="round" stroke-linejoin="round" stroke-width="0.853"/>
        <path id="Path_52515" data-name="Path 52515" d="M199.031,444.3H133.923V399.987h65.108Z" transform="translate(-126.902 -381.325)" fill="none" stroke="#005894" stroke-linecap="round" stroke-linejoin="round" stroke-width="0.853"/>
        <path id="Path_52516" data-name="Path 52516" d="M207.466,414.118H133.442a1.675,1.675,0,0,1-1.583-2.308l7.378-17.428a1.712,1.712,0,0,1,1.58-1.032h59.273a1.712,1.712,0,0,1,1.58,1.032l7.378,17.428A1.675,1.675,0,0,1,207.466,414.118Z" transform="translate(-130.88 -393.35)" fill="#006da8"/>
        <path id="Path_52517" data-name="Path 52517" d="M167.151,414.118h-5.792a1.674,1.674,0,0,0,1.58-2.308l-7.375-17.428a1.713,1.713,0,0,0-1.583-1.032h5.79a1.713,1.713,0,0,1,1.583,1.032l7.378,17.428A1.674,1.674,0,0,1,167.151,414.118Z" transform="translate(-90.562 -393.35)" fill="#005894"/>
        <path id="Path_52518" data-name="Path 52518" d="M149.678,393.35h-8.86a1.712,1.712,0,0,0-1.58,1.032l-7.378,17.428a1.675,1.675,0,0,0,1.583,2.308h74.024a1.675,1.675,0,0,0,1.583-2.308l-7.378-17.428a1.712,1.712,0,0,0-1.58-1.032H154.933" transform="translate(-130.88 -393.35)" fill="none" stroke="#005894" stroke-linecap="round" stroke-linejoin="round" stroke-width="0.853"/>
        <path id="Path_52519" data-name="Path 52519" d="M168.4,451.114v-42.2L155.675,396.7a1.745,1.745,0,0,0-2.4,0l-12.726,12.209v42.2Z" transform="translate(-114.9 -388.143)" fill="#fff"/>
        <path id="Path_52520" data-name="Path 52520" d="M156.218,427.859H143.182V415.417a6.52,6.52,0,0,1,13.036,0Z" transform="translate(-110.126 -364.888)" fill="#006da8"/>
        <path id="Path_52521" data-name="Path 52521" d="M153.241,415.417v12.442h-3.8V415.417a6.262,6.262,0,0,0-1.909-4.493,6.542,6.542,0,0,0-2.711-1.589,6.688,6.688,0,0,1,1.9-.276,6.575,6.575,0,0,1,4.609,1.864A6.251,6.251,0,0,1,153.241,415.417Z" transform="translate(-107.149 -364.888)" fill="#005894"/>
        <path id="Path_52522" data-name="Path 52522" d="M168.4,408.911v5.466l-13.927-13.362-13.924,13.362v-5.466L153.271,396.7a1.745,1.745,0,0,1,2.4,0Z" transform="translate(-114.898 -388.143)" fill="#d9e7eb"/>
        <path id="Path_52523" data-name="Path 52523" d="M168.4,424.644V408.911L155.675,396.7a1.745,1.745,0,0,0-2.4,0l-12.726,12.209v42.2H168.4V429.767" transform="translate(-114.9 -388.143)" fill="none" stroke="#005894" stroke-linecap="round" stroke-linejoin="round" stroke-width="0.853"/>
        <path id="Path_52524" data-name="Path 52524" d="M156.833,406.965a6.894,6.894,0,1,1-6.892-6.726A6.809,6.809,0,0,1,156.833,406.965Z" transform="translate(-110.367 -380.868)" fill="#9ce6fb"/>
        <path id="Path_52525" data-name="Path 52525" d="M144.581,410.5a7.028,7.028,0,0,0,2.584.492,6.809,6.809,0,0,0,6.892-6.723,6.53,6.53,0,0,0-.512-2.539Q149.091,406.135,144.581,410.5Z" transform="translate(-107.591 -378.17)" fill="#c9f0fd"/>
        <path id="Path_52526" data-name="Path 52526" d="M145.046,411.691q4.871-4.749,9.743-9.5a6.893,6.893,0,0,0-3.248-1.87l-8.413,8.208A6.7,6.7,0,0,0,145.046,411.691Z" transform="translate(-110.224 -380.727)" fill="#c9f0fd"/>
        <path id="Path_52527" data-name="Path 52527" d="M156.833,406.965a6.894,6.894,0,1,1-6.892-6.726A6.809,6.809,0,0,1,156.833,406.965Z" transform="translate(-110.367 -380.868)" fill="none" stroke="#005894" stroke-linecap="round" stroke-linejoin="round" stroke-width="0.853"/>
      </g>
      <path id="Path_52528" data-name="Path 52528" d="M143.182,427.859V415.417a6.52,6.52,0,0,1,13.036,0v12.442" transform="translate(-110.126 -364.888)" fill="none" stroke="#005894" stroke-linecap="round" stroke-linejoin="round" stroke-width="0.853"/>
      <path id="Path_52529" data-name="Path 52529" d="M145.5,409.059v18.415" transform="translate(-105.926 -364.888)" fill="none" stroke="#005894" stroke-linecap="round" stroke-linejoin="round" stroke-width="0.853"/>
      <path id="Path_52530" data-name="Path 52530" d="M158.553,413.265H153.7a1.316,1.316,0,0,1-1.33-1.3v-5.674a3.755,3.755,0,0,1,7.508,0v5.674A1.316,1.316,0,0,1,158.553,413.265Z" transform="translate(-93.47 -376.534)" fill="#9ce6fb"/>
      <path id="Path_52531" data-name="Path 52531" d="M158.567,402.944l-6.192,6.043V411.4a1.319,1.319,0,0,0,.073.425q3.644-3.551,7.288-7.108A3.666,3.666,0,0,0,158.567,402.944Z" transform="translate(-93.47 -375.967)" fill="#c9f0fd"/>
      <path id="Path_52532" data-name="Path 52532" d="M152.829,410.329l.053,0h4.848a1.316,1.316,0,0,0,1.33-1.3V404.25Q155.943,407.291,152.829,410.329Z" transform="translate(-92.647 -373.601)" fill="#c9f0fd"/>
      <path id="Path_52533" data-name="Path 52533" d="M158.553,413.265H153.7a1.316,1.316,0,0,1-1.33-1.3v-5.674a3.755,3.755,0,0,1,7.508,0v5.674A1.316,1.316,0,0,1,158.553,413.265Z" transform="translate(-93.47 -376.534)" fill="none" stroke="#005894" stroke-linecap="round" stroke-linejoin="round" stroke-width="0.853"/>
      <path id="Path_52534" data-name="Path 52534" d="M161.3,409.723h-8.787a.557.557,0,0,1-.565-.551v-2.528a.559.559,0,0,1,.565-.551H161.3a.559.559,0,0,1,.568.551v2.528A.558.558,0,0,1,161.3,409.723Z" transform="translate(-94.247 -370.262)" fill="#006da8"/>
      <path id="Path_52535" data-name="Path 52535" d="M157.338,406.644v2.528a.559.559,0,0,1-.568.551h-2.325a.559.559,0,0,0,.565-.551v-2.528a.559.559,0,0,0-.565-.551h2.325A.559.559,0,0,1,157.338,406.644Z" transform="translate(-89.719 -370.262)" fill="#005894"/>
      <path id="Path_52536" data-name="Path 52536" d="M161.3,409.723h-8.787a.557.557,0,0,1-.565-.551v-2.528a.559.559,0,0,1,.565-.551H161.3a.559.559,0,0,1,.568.551v2.528A.558.558,0,0,1,161.3,409.723Z" transform="translate(-94.247 -370.262)" fill="none" stroke="#005894" stroke-linecap="round" stroke-linejoin="round" stroke-width="0.853"/>
      <path id="Path_52537" data-name="Path 52537" d="M158.553,419.793H153.7a1.316,1.316,0,0,1-1.33-1.3V412.82a3.755,3.755,0,0,1,7.508,0v5.674A1.315,1.315,0,0,1,158.553,419.793Z" transform="translate(-93.47 -364.706)" fill="#9ce6fb"/>
      <path id="Path_52538" data-name="Path 52538" d="M158.567,409.472q-3.1,3.02-6.192,6.043v2.413a1.319,1.319,0,0,0,.073.425q3.644-3.551,7.288-7.108A3.666,3.666,0,0,0,158.567,409.472Z" transform="translate(-93.47 -364.139)" fill="#c9f0fd"/>
      <path id="Path_52539" data-name="Path 52539" d="M152.829,416.857l.053,0h4.848a1.316,1.316,0,0,0,1.33-1.3v-4.783Q155.943,413.819,152.829,416.857Z" transform="translate(-92.647 -361.773)" fill="#c9f0fd"/>
      <path id="Path_52540" data-name="Path 52540" d="M158.553,419.793H153.7a1.316,1.316,0,0,1-1.33-1.3V412.82a3.755,3.755,0,0,1,7.508,0v5.674A1.315,1.315,0,0,1,158.553,419.793Z" transform="translate(-93.47 -364.706)" fill="none" stroke="#005894" stroke-linecap="round" stroke-linejoin="round" stroke-width="0.853"/>
      <path id="Path_52541" data-name="Path 52541" d="M161.3,416.251h-8.787a.559.559,0,0,1-.565-.551v-2.528a.559.559,0,0,1,.565-.551H161.3a.559.559,0,0,1,.568.551V415.7A.559.559,0,0,1,161.3,416.251Z" transform="translate(-94.247 -358.434)" fill="#006da8"/>
      <path id="Path_52542" data-name="Path 52542" d="M157.338,413.172V415.7a.559.559,0,0,1-.568.551h-2.325a.559.559,0,0,0,.565-.551v-2.528a.559.559,0,0,0-.565-.551h2.325A.559.559,0,0,1,157.338,413.172Z" transform="translate(-89.719 -358.434)" fill="#005894"/>
      <path id="Path_52543" data-name="Path 52543" d="M161.3,416.251h-8.787a.559.559,0,0,1-.565-.551v-2.528a.559.559,0,0,1,.565-.551H161.3a.559.559,0,0,1,.568.551V415.7A.559.559,0,0,1,161.3,416.251Z" transform="translate(-94.247 -358.434)" fill="none" stroke="#005894" stroke-linecap="round" stroke-linejoin="round" stroke-width="0.853"/>
      <path id="Path_52544" data-name="Path 52544" d="M142.133,413.265h-4.848a1.316,1.316,0,0,1-1.33-1.3v-5.674a3.755,3.755,0,0,1,7.508,0v5.674A1.316,1.316,0,0,1,142.133,413.265Z" transform="translate(-123.22 -376.534)" fill="#9ce6fb"/>
      <path id="Path_52545" data-name="Path 52545" d="M142.149,402.944q-3.1,3.02-6.194,6.043V411.4a1.25,1.25,0,0,0,.076.425l7.285-7.108A3.68,3.68,0,0,0,142.149,402.944Z" transform="translate(-123.22 -375.967)" fill="#c9f0fd"/>
      <path id="Path_52546" data-name="Path 52546" d="M136.409,410.329c.02,0,.037,0,.053,0h4.848a1.316,1.316,0,0,0,1.33-1.3V404.25Z" transform="translate(-122.398 -373.601)" fill="#c9f0fd"/>
      <path id="Path_52547" data-name="Path 52547" d="M142.133,413.265h-4.848a1.316,1.316,0,0,1-1.33-1.3v-5.674a3.755,3.755,0,0,1,7.508,0v5.674A1.316,1.316,0,0,1,142.133,413.265Z" transform="translate(-123.22 -376.534)" fill="none" stroke="#005894" stroke-linecap="round" stroke-linejoin="round" stroke-width="0.853"/>
      <path id="Path_52548" data-name="Path 52548" d="M144.881,409.723h-8.787a.558.558,0,0,1-.568-.551v-2.528a.559.559,0,0,1,.568-.551h8.787a.559.559,0,0,1,.565.551v2.528A.557.557,0,0,1,144.881,409.723Z" transform="translate(-123.997 -370.262)" fill="#006da8"/>
      <path id="Path_52549" data-name="Path 52549" d="M140.918,406.644v2.528a.559.559,0,0,1-.565.551h-2.328a.559.559,0,0,0,.568-.551v-2.528a.56.56,0,0,0-.568-.551h2.328A.559.559,0,0,1,140.918,406.644Z" transform="translate(-119.47 -370.262)" fill="#005894"/>
      <path id="Path_52550" data-name="Path 52550" d="M144.881,409.723h-8.787a.558.558,0,0,1-.568-.551v-2.528a.559.559,0,0,1,.568-.551h8.787a.559.559,0,0,1,.565.551v2.528A.557.557,0,0,1,144.881,409.723Z" transform="translate(-123.997 -370.262)" fill="none" stroke="#005894" stroke-linecap="round" stroke-linejoin="round" stroke-width="0.853"/>
    </g>
    <path id="Path_52551" data-name="Path 52551" d="M142.133,419.793h-4.848a1.315,1.315,0,0,1-1.33-1.3V412.82a3.755,3.755,0,0,1,7.508,0v5.674A1.315,1.315,0,0,1,142.133,419.793Z" transform="translate(-123.22 -364.706)" fill="#9ce6fb"/>
    <path id="Path_52552" data-name="Path 52552" d="M142.149,409.472q-3.1,3.02-6.194,6.043v2.413a1.249,1.249,0,0,0,.076.425l7.285-7.108A3.68,3.68,0,0,0,142.149,409.472Z" transform="translate(-123.22 -364.139)" fill="#c9f0fd"/>
    <path id="Path_52553" data-name="Path 52553" d="M136.409,416.857c.02,0,.037,0,.053,0h4.848a1.316,1.316,0,0,0,1.33-1.3v-4.783Z" transform="translate(-122.398 -361.773)" fill="#c9f0fd"/>
    <path id="Path_52554" data-name="Path 52554" d="M142.133,419.793h-4.848a1.315,1.315,0,0,1-1.33-1.3V412.82a3.755,3.755,0,0,1,7.508,0v5.674A1.315,1.315,0,0,1,142.133,419.793Z" transform="translate(-123.22 -364.706)" fill="none" stroke="#005894" stroke-linecap="round" stroke-linejoin="round" stroke-width="0.853"/>
    <path id="Path_52555" data-name="Path 52555" d="M144.881,416.251h-8.787a.559.559,0,0,1-.568-.551v-2.528a.559.559,0,0,1,.568-.551h8.787a.559.559,0,0,1,.565.551V415.7A.559.559,0,0,1,144.881,416.251Z" transform="translate(-123.997 -358.434)" fill="#006da8"/>
    <path id="Path_52556" data-name="Path 52556" d="M140.918,413.172V415.7a.559.559,0,0,1-.565.551h-2.328a.559.559,0,0,0,.568-.551v-2.528a.559.559,0,0,0-.568-.551h2.328A.559.559,0,0,1,140.918,413.172Z" transform="translate(-119.47 -358.434)" fill="#005894"/>
    <path id="Path_52557" data-name="Path 52557" d="M144.881,416.251h-8.787a.559.559,0,0,1-.568-.551v-2.528a.559.559,0,0,1,.568-.551h8.787a.559.559,0,0,1,.565.551V415.7A.559.559,0,0,1,144.881,416.251Z" transform="translate(-123.997 -358.434)" fill="none" stroke="#005894" stroke-linecap="round" stroke-linejoin="round" stroke-width="0.853"/>
    <path id="Path_52558" data-name="Path 52558" d="M144.776,406.655h4.072" transform="translate(-107.238 -369.244)" fill="none" stroke="#005894" stroke-linecap="round" stroke-linejoin="round" stroke-width="0.853"/>
  </g>
</svg>
