<svg xmlns="http://www.w3.org/2000/svg" xmlns:xlink="http://www.w3.org/1999/xlink" width="96.621" height="96.621" viewBox="0 0 96.621 96.621">
  <defs>
    <clipPath id="clip-path">
      <rect id="Rectangle_2481" data-name="Rectangle 2481" width="96.621" height="96.621" fill="#fff"/>
    </clipPath>
  </defs>
  <g id="Group_8577" data-name="Group 8577" clip-path="url(#clip-path)">
    <path id="Path_52629" data-name="Path 52629" d="M288.912,558.042a3.434,3.434,0,1,1,3.436-3.436A3.438,3.438,0,0,1,288.912,558.042Z" transform="translate(-197.443 -489.583)" fill="#fff"/>
    <path id="Path_52630" data-name="Path 52630" d="M285.479,554.606a3.418,3.418,0,0,0,.9,2.316,3.424,3.424,0,0,0,4.589-3.231,2.8,2.8,0,1,0-5.493.915Z" transform="translate(-197.443 -489.583)" fill="#fff"/>
    <path id="Path_52631" data-name="Path 52631" d="M287.439,554.931a1.718,1.718,0,1,1,1.716-1.719A1.72,1.72,0,0,1,287.439,554.931Z" transform="translate(-196.999 -488.99)" fill="#fff"/>
    <path id="Path_52632" data-name="Path 52632" d="M288.673,555.3a3.434,3.434,0,1,1,3.433-3.436A3.44,3.44,0,0,1,288.673,555.3Z" transform="translate(-197.889 -494.627)" fill="#fff"/>
    <path id="Path_52633" data-name="Path 52633" d="M285.237,551.867a3.426,3.426,0,1,0,3.436-3.433A3.411,3.411,0,0,0,285.237,551.867Z" transform="translate(-197.889 -494.627)" fill="#fff"/>
    <path id="Path_52634" data-name="Path 52634" d="M287.2,552.189a1.716,1.716,0,1,1,1.716-1.716A1.719,1.719,0,0,1,287.2,552.189Z" transform="translate(-197.443 -494.034)" fill="#fff"/>
    <path id="Path_52635" data-name="Path 52635" d="M288.109,552.643a3.434,3.434,0,1,1,3.433-3.436A3.438,3.438,0,0,1,288.109,552.643Z" transform="translate(-198.928 -499.525)" fill="#fff"/>
    <path id="Path_52636" data-name="Path 52636" d="M284.673,549.208a3.426,3.426,0,1,0,3.436-3.433A3.412,3.412,0,0,0,284.673,549.208Z" transform="translate(-198.928 -499.525)" fill="#fff"/>
    <path id="Path_52637" data-name="Path 52637" d="M286.631,549.533a1.718,1.718,0,1,1,1.716-1.719A1.719,1.719,0,0,1,286.631,549.533Z" transform="translate(-198.482 -498.932)" fill="#fff"/>
    <path id="Path_52638" data-name="Path 52638" d="M287.22,550.145a3.434,3.434,0,1,1,3.436-3.433A3.437,3.437,0,0,1,287.22,550.145Z" transform="translate(-200.559 -504.126)" fill="#fff"/>
    <path id="Path_52639" data-name="Path 52639" d="M283.787,546.713a2.868,2.868,0,1,0,4.59-3.231,3.424,3.424,0,0,0-4.59,3.231Z" transform="translate(-200.559 -504.126)" fill="#fff"/>
    <path id="Path_52640" data-name="Path 52640" d="M285.747,547.034a1.718,1.718,0,1,1,1.716-1.716A1.719,1.719,0,0,1,285.747,547.034Z" transform="translate(-200.115 -503.532)" fill="#fff"/>
    <path id="Path_52641" data-name="Path 52641" d="M285.931,547.729a3.434,3.434,0,1,1,3.436-3.433A3.437,3.437,0,0,1,285.931,547.729Z" transform="translate(-202.933 -508.577)" fill="#fff"/>
    <path id="Path_52642" data-name="Path 52642" d="M282.5,544.3a3.424,3.424,0,1,0,3.433-3.436A3.417,3.417,0,0,0,282.5,544.3Z" transform="translate(-202.933 -508.577)" fill="#fff"/>
    <path id="Path_52643" data-name="Path 52643" d="M284.458,544.618a1.718,1.718,0,1,1,1.716-1.716A1.719,1.719,0,0,1,284.458,544.618Z" transform="translate(-202.489 -507.984)" fill="#fff"/>
    <path id="Path_52644" data-name="Path 52644" d="M284.4,545.553a3.434,3.434,0,1,1,3.436-3.436A3.438,3.438,0,0,1,284.4,545.553Z" transform="translate(-205.753 -512.583)" fill="#fff"/>
    <path id="Path_52645" data-name="Path 52645" d="M280.967,542.118a3.424,3.424,0,1,0,3.433-3.433A3.411,3.411,0,0,0,280.967,542.118Z" transform="translate(-205.753 -512.583)" fill="#fff"/>
    <path id="Path_52646" data-name="Path 52646" d="M282.927,542.443a1.718,1.718,0,1,1,1.716-1.719A1.724,1.724,0,0,1,282.927,542.443Z" transform="translate(-205.309 -511.99)" fill="#fff"/>
    <path id="Path_52647" data-name="Path 52647" d="M282.63,543.54a3.434,3.434,0,1,1,3.433-3.436A3.44,3.44,0,0,1,282.63,543.54Z" transform="translate(-209.019 -516.292)" fill="#fff"/>
    <path id="Path_52648" data-name="Path 52648" d="M279.194,540.1a3.427,3.427,0,1,0,3.436-3.433A3.425,3.425,0,0,0,279.194,540.1Z" transform="translate(-209.019 -516.292)" fill="#fff"/>
    <path id="Path_52649" data-name="Path 52649" d="M281.152,540.426a1.716,1.716,0,1,1,1.719-1.716A1.719,1.719,0,0,1,281.152,540.426Z" transform="translate(-208.573 -515.699)" fill="#fff"/>
    <path id="Path_52650" data-name="Path 52650" d="M280.616,541.767a3.434,3.434,0,1,1,3.433-3.433A3.438,3.438,0,0,1,280.616,541.767Z" transform="translate(-212.728 -519.558)" fill="#fff"/>
    <path id="Path_52651" data-name="Path 52651" d="M277.18,538.334a3.418,3.418,0,0,0,.9,2.313,3.475,3.475,0,0,0,1.157.2,3.07,3.07,0,1,0-2.06-2.518Z" transform="translate(-212.728 -519.558)" fill="#fff"/>
    <path id="Path_52652" data-name="Path 52652" d="M279.138,538.656a1.718,1.718,0,1,1,1.716-1.716A1.719,1.719,0,0,1,279.138,538.656Z" transform="translate(-212.282 -518.965)" fill="#fff"/>
    <path id="Path_52653" data-name="Path 52653" d="M278.277,540.317a3.434,3.434,0,1,1,3.436-3.436A3.438,3.438,0,0,1,278.277,540.317Z" transform="translate(-217.03 -522.229)" fill="#fff"/>
    <path id="Path_52654" data-name="Path 52654" d="M274.844,536.881a3.424,3.424,0,1,0,3.433-3.433A3.411,3.411,0,0,0,274.844,536.881Z" transform="translate(-217.03 -522.229)" fill="#fff"/>
    <path id="Path_52655" data-name="Path 52655" d="M276.8,537.206a1.718,1.718,0,1,1,1.716-1.719A1.722,1.722,0,0,1,276.8,537.206Z" transform="translate(-216.587 -521.635)" fill="#fff"/>
    <path id="Path_52656" data-name="Path 52656" d="M275.86,539.108a3.434,3.434,0,1,1,3.436-3.433A3.437,3.437,0,0,1,275.86,539.108Z" transform="translate(-221.482 -524.455)" fill="#fff"/>
    <path id="Path_52657" data-name="Path 52657" d="M272.427,535.675a2.868,2.868,0,1,0,4.59-3.231,3.424,3.424,0,0,0-4.59,3.231Z" transform="translate(-221.482 -524.455)" fill="#fff"/>
    <path id="Path_52658" data-name="Path 52658" d="M274.387,536a1.718,1.718,0,1,1,1.716-1.717A1.719,1.719,0,0,1,274.387,536Z" transform="translate(-221.038 -523.862)" fill="#fff"/>
    <path id="Path_52659" data-name="Path 52659" d="M273.284,538.3a3.434,3.434,0,1,1,3.433-3.436A3.44,3.44,0,0,1,273.284,538.3Z" transform="translate(-226.232 -525.938)" fill="#fff"/>
    <path id="Path_52660" data-name="Path 52660" d="M269.848,534.867a3.427,3.427,0,1,0,3.436-3.433A3.425,3.425,0,0,0,269.848,534.867Z" transform="translate(-226.232 -525.938)" fill="#fff"/>
    <path id="Path_52661" data-name="Path 52661" d="M271.806,535.189a1.716,1.716,0,1,1,1.719-1.716A1.719,1.719,0,0,1,271.806,535.189Z" transform="translate(-225.786 -525.345)" fill="#fff"/>
    <path id="Path_52662" data-name="Path 52662" d="M270.706,537.739a3.434,3.434,0,1,1,3.433-3.436A3.438,3.438,0,0,1,270.706,537.739Z" transform="translate(-230.98 -526.977)" fill="#fff"/>
    <path id="Path_52663" data-name="Path 52663" d="M267.27,534.3a3.426,3.426,0,1,0,3.436-3.433A3.412,3.412,0,0,0,267.27,534.3Z" transform="translate(-230.98 -526.977)" fill="#fff"/>
    <path id="Path_52664" data-name="Path 52664" d="M269.228,534.625a1.716,1.716,0,1,1,1.716-1.716A1.719,1.719,0,0,1,269.228,534.625Z" transform="translate(-230.534 -526.384)" fill="#fff"/>
    <path id="Path_52665" data-name="Path 52665" d="M268.047,537.579a3.436,3.436,0,1,1,3.433-3.436A3.44,3.44,0,0,1,268.047,537.579Z" transform="translate(-235.878 -527.275)" fill="#fff"/>
    <path id="Path_52666" data-name="Path 52666" d="M264.611,534.143a2.868,2.868,0,1,0,4.592-3.228,3.389,3.389,0,0,0-1.157-.207A3.442,3.442,0,0,0,264.611,534.143Z" transform="translate(-235.878 -527.275)" fill="#fff"/>
    <path id="Path_52667" data-name="Path 52667" d="M266.569,534.464a1.716,1.716,0,1,1,1.719-1.717A1.719,1.719,0,0,1,266.569,534.464Z" transform="translate(-235.432 -526.68)" fill="#fff"/>
    <path id="Path_52668" data-name="Path 52668" d="M265.308,537.739a3.434,3.434,0,1,1,3.433-3.436A3.438,3.438,0,0,1,265.308,537.739Z" transform="translate(-240.922 -526.977)" fill="#fff"/>
    <path id="Path_52669" data-name="Path 52669" d="M261.872,534.3a3.426,3.426,0,1,0,3.436-3.433A3.412,3.412,0,0,0,261.872,534.3Z" transform="translate(-240.922 -526.977)" fill="#fff"/>
    <path id="Path_52670" data-name="Path 52670" d="M263.83,534.625a1.716,1.716,0,1,1,1.716-1.716A1.719,1.719,0,0,1,263.83,534.625Z" transform="translate(-240.476 -526.384)" fill="#fff"/>
    <path id="Path_52671" data-name="Path 52671" d="M262.81,538.785a3.434,3.434,0,1,1,3.433-3.433A3.44,3.44,0,0,1,262.81,538.785Z" transform="translate(-245.523 -525.048)" fill="#fff"/>
    <path id="Path_52672" data-name="Path 52672" d="M259.374,535.352a3.431,3.431,0,0,0,.9,2.313,3.492,3.492,0,0,0,1.159.2,3.429,3.429,0,0,0,2.529-5.749,3.39,3.39,0,0,0-1.157-.2A3.44,3.44,0,0,0,259.374,535.352Z" transform="translate(-245.523 -525.048)" fill="#fff"/>
    <path id="Path_52673" data-name="Path 52673" d="M261.332,535.675a1.718,1.718,0,1,1,1.719-1.719A1.719,1.719,0,0,1,261.332,535.675Z" transform="translate(-245.077 -524.455)" fill="#fff"/>
    <path id="Path_52674" data-name="Path 52674" d="M260.713,540.4a3.434,3.434,0,1,1,3.436-3.433A3.437,3.437,0,0,1,260.713,540.4Z" transform="translate(-249.38 -522.081)" fill="#fff"/>
    <path id="Path_52675" data-name="Path 52675" d="M257.28,536.964a2.868,2.868,0,1,0,4.589-3.231,3.424,3.424,0,0,0-4.589,3.231Z" transform="translate(-249.38 -522.081)" fill="#fff"/>
    <path id="Path_52676" data-name="Path 52676" d="M259.24,537.284a1.716,1.716,0,1,1,1.716-1.716A1.719,1.719,0,0,1,259.24,537.284Z" transform="translate(-248.936 -521.486)" fill="#fff"/>
    <path id="Path_52677" data-name="Path 52677" d="M259.265,542.652a3.434,3.434,0,1,1,3.433-3.433A3.439,3.439,0,0,1,259.265,542.652Z" transform="translate(-252.052 -517.926)" fill="#fff"/>
    <path id="Path_52678" data-name="Path 52678" d="M255.829,539.22a3.426,3.426,0,1,0,3.436-3.436A3.426,3.426,0,0,0,255.829,539.22Z" transform="translate(-252.052 -517.926)" fill="#fff"/>
    <path id="Path_52679" data-name="Path 52679" d="M257.787,539.542a1.718,1.718,0,1,1,1.719-1.716A1.719,1.719,0,0,1,257.787,539.542Z" transform="translate(-251.606 -517.333)" fill="#fff"/>
    <path id="Path_52680" data-name="Path 52680" d="M258.54,545.151a3.434,3.434,0,1,1,3.433-3.436A3.438,3.438,0,0,1,258.54,545.151Z" transform="translate(-253.387 -513.325)" fill="#fff"/>
    <path id="Path_52681" data-name="Path 52681" d="M255.1,541.715a3.432,3.432,0,0,0,.9,2.316,3.475,3.475,0,0,0,1.157.2,3.429,3.429,0,0,0,2.532-5.749,3.388,3.388,0,0,0-1.157-.2A3.438,3.438,0,0,0,255.1,541.715Z" transform="translate(-253.387 -513.325)" fill="#fff"/>
    <path id="Path_52682" data-name="Path 52682" d="M257.062,542.04a1.718,1.718,0,1,1,1.719-1.719A1.719,1.719,0,0,1,257.062,542.04Z" transform="translate(-252.942 -512.732)" fill="#fff"/>
    <path id="Path_52683" data-name="Path 52683" d="M258.618,547.89a3.434,3.434,0,1,1,3.436-3.433A3.437,3.437,0,0,1,258.618,547.89Z" transform="translate(-253.238 -508.281)" fill="#fff"/>
    <path id="Path_52684" data-name="Path 52684" d="M255.185,544.457a2.869,2.869,0,1,0,4.592-3.231,3.485,3.485,0,0,0-1.159-.2A3.438,3.438,0,0,0,255.185,544.457Z" transform="translate(-253.238 -508.281)" fill="#fff"/>
    <path id="Path_52685" data-name="Path 52685" d="M257.143,544.778a1.718,1.718,0,1,1,1.716-1.716A1.718,1.718,0,0,1,257.143,544.778Z" transform="translate(-252.793 -507.687)" fill="#fff"/>
    <path id="Path_52686" data-name="Path 52686" d="M259.507,550.467a3.434,3.434,0,1,1,3.433-3.433A3.438,3.438,0,0,1,259.507,550.467Z" transform="translate(-251.606 -503.532)" fill="#fff"/>
    <path id="Path_52687" data-name="Path 52687" d="M256.071,547.034a3.419,3.419,0,1,0,3.436-3.436A3.411,3.411,0,0,0,256.071,547.034Z" transform="translate(-251.606 -503.532)" fill="#fff"/>
    <path id="Path_52688" data-name="Path 52688" d="M258.029,547.355a1.716,1.716,0,1,1,1.716-1.717A1.719,1.719,0,0,1,258.029,547.355Z" transform="translate(-251.161 -502.938)" fill="#fff"/>
    <path id="Path_52689" data-name="Path 52689" d="M261.2,552.563a3.434,3.434,0,1,1,3.433-3.433A3.438,3.438,0,0,1,261.2,552.563Z" transform="translate(-248.49 -499.674)" fill="#fff"/>
    <path id="Path_52690" data-name="Path 52690" d="M257.763,549.13a2.869,2.869,0,1,0,4.592-3.231,3.426,3.426,0,0,0-4.592,3.231Z" transform="translate(-248.49 -499.674)" fill="#fff"/>
    <path id="Path_52691" data-name="Path 52691" d="M259.721,549.452a1.718,1.718,0,1,1,1.716-1.716A1.719,1.719,0,0,1,259.721,549.452Z" transform="translate(-248.044 -499.081)" fill="#fff"/>
    <path id="Path_52692" data-name="Path 52692" d="M263.374,554.094a3.434,3.434,0,1,1,3.433-3.433A3.44,3.44,0,0,1,263.374,554.094Z" transform="translate(-244.484 -496.854)" fill="#fff"/>
    <path id="Path_52693" data-name="Path 52693" d="M259.938,550.661a3.43,3.43,0,0,0,.9,2.313,3.488,3.488,0,0,0,1.159.2,3.429,3.429,0,0,0,2.529-5.749,3.392,3.392,0,0,0-1.157-.2A3.44,3.44,0,0,0,259.938,550.661Z" transform="translate(-244.484 -496.854)" fill="#fff"/>
    <path id="Path_52694" data-name="Path 52694" d="M261.9,550.983a1.718,1.718,0,1,1,1.719-1.716A1.719,1.719,0,0,1,261.9,550.983Z" transform="translate(-244.039 -496.261)" fill="#fff"/>
    <path id="Path_52695" data-name="Path 52695" d="M265.872,554.9a3.434,3.434,0,1,1,3.433-3.436A3.438,3.438,0,0,1,265.872,554.9Z" transform="translate(-239.883 -495.369)" fill="#fff"/>
    <path id="Path_52696" data-name="Path 52696" d="M262.436,551.464a3.426,3.426,0,1,0,3.436-3.433A3.411,3.411,0,0,0,262.436,551.464Z" transform="translate(-239.883 -495.369)" fill="#fff"/>
    <path id="Path_52697" data-name="Path 52697" d="M264.394,551.789a1.718,1.718,0,1,1,1.716-1.719A1.721,1.721,0,0,1,264.394,551.789Z" transform="translate(-239.438 -494.776)" fill="#fff"/>
    <path id="Path_52698" data-name="Path 52698" d="M268.611,554.979a3.434,3.434,0,1,1,3.433-3.433A3.438,3.438,0,0,1,268.611,554.979Z" transform="translate(-234.839 -495.222)" fill="#fff"/>
    <path id="Path_52699" data-name="Path 52699" d="M265.175,551.547a2.869,2.869,0,1,0,4.592-3.231,3.426,3.426,0,0,0-4.592,3.231Z" transform="translate(-234.839 -495.222)" fill="#fff"/>
    <path id="Path_52700" data-name="Path 52700" d="M267.133,551.869a1.718,1.718,0,1,1,1.719-1.716A1.719,1.719,0,0,1,267.133,551.869Z" transform="translate(-234.393 -494.629)" fill="#fff"/>
    <path id="Path_52701" data-name="Path 52701" d="M271.27,554.979a3.434,3.434,0,1,1,3.433-3.433A3.438,3.438,0,0,1,271.27,554.979Z" transform="translate(-229.941 -495.222)" fill="#fff"/>
    <path id="Path_52702" data-name="Path 52702" d="M267.834,551.547a2.869,2.869,0,1,0,4.592-3.231,3.475,3.475,0,0,0-1.157-.2A3.438,3.438,0,0,0,267.834,551.547Z" transform="translate(-229.941 -495.222)" fill="#fff"/>
    <path id="Path_52703" data-name="Path 52703" d="M269.792,551.869a1.718,1.718,0,1,1,1.716-1.716A1.719,1.719,0,0,1,269.792,551.869Z" transform="translate(-229.496 -494.629)" fill="#fff"/>
    <path id="Path_52704" data-name="Path 52704" d="M274.009,554.979a3.434,3.434,0,1,1,3.433-3.433A3.439,3.439,0,0,1,274.009,554.979Z" transform="translate(-224.897 -495.222)" fill="#fff"/>
    <path id="Path_52705" data-name="Path 52705" d="M270.573,551.547a2.869,2.869,0,1,0,4.592-3.231,3.426,3.426,0,0,0-4.592,3.231Z" transform="translate(-224.897 -495.222)" fill="#fff"/>
    <path id="Path_52706" data-name="Path 52706" d="M272.531,551.869a1.718,1.718,0,1,1,1.719-1.716A1.719,1.719,0,0,1,272.531,551.869Z" transform="translate(-224.451 -494.629)" fill="#fff"/>
    <path id="Path_52707" data-name="Path 52707" d="M276.668,554.979a3.434,3.434,0,1,1,3.433-3.433A3.438,3.438,0,0,1,276.668,554.979Z" transform="translate(-219.999 -495.222)" fill="#fff"/>
    <path id="Path_52708" data-name="Path 52708" d="M273.232,551.547a2.869,2.869,0,1,0,4.592-3.231,3.474,3.474,0,0,0-1.157-.2A3.438,3.438,0,0,0,273.232,551.547Z" transform="translate(-219.999 -495.222)" fill="#fff"/>
    <path id="Path_52709" data-name="Path 52709" d="M275.19,551.869a1.718,1.718,0,1,1,1.719-1.716A1.719,1.719,0,0,1,275.19,551.869Z" transform="translate(-219.554 -494.629)" fill="#fff"/>
    <path id="Path_52710" data-name="Path 52710" d="M279.4,554.979a3.434,3.434,0,1,1,3.436-3.433A3.437,3.437,0,0,1,279.4,554.979Z" transform="translate(-214.953 -495.222)" fill="#fff"/>
    <path id="Path_52711" data-name="Path 52711" d="M275.972,551.547a2.868,2.868,0,1,0,4.59-3.231,3.424,3.424,0,0,0-4.59,3.231Z" transform="translate(-214.953 -495.222)" fill="#fff"/>
    <path id="Path_52712" data-name="Path 52712" d="M277.932,551.869a1.718,1.718,0,1,1,1.716-1.716A1.719,1.719,0,0,1,277.932,551.869Z" transform="translate(-214.509 -494.629)" fill="#fff"/>
    <path id="Path_52713" data-name="Path 52713" d="M281.983,555.464a3.434,3.434,0,1,1,3.436-3.436A3.438,3.438,0,0,1,281.983,555.464Z" transform="translate(-210.205 -494.331)" fill="#fff"/>
    <path id="Path_52714" data-name="Path 52714" d="M278.55,552.028a3.423,3.423,0,1,0,3.433-3.433A3.412,3.412,0,0,0,278.55,552.028Z" transform="translate(-210.205 -494.331)" fill="#fff"/>
    <path id="Path_52715" data-name="Path 52715" d="M280.51,552.353a1.718,1.718,0,1,1,1.716-1.719A1.722,1.722,0,0,1,280.51,552.353Z" transform="translate(-209.761 -493.738)" fill="#fff"/>
    <path id="Path_52716" data-name="Path 52716" d="M284.4,556.672a3.434,3.434,0,1,1,3.436-3.433A3.437,3.437,0,0,1,284.4,556.672Z" transform="translate(-205.753 -492.106)" fill="#fff"/>
    <path id="Path_52717" data-name="Path 52717" d="M280.967,553.239a2.868,2.868,0,1,0,4.589-3.231,3.424,3.424,0,0,0-4.589,3.231Z" transform="translate(-205.753 -492.106)" fill="#fff"/>
    <path id="Path_52718" data-name="Path 52718" d="M282.927,553.561a1.718,1.718,0,1,1,1.716-1.716A1.721,1.721,0,0,1,282.927,553.561Z" transform="translate(-205.309 -491.513)" fill="#fff"/>
    <path id="Path_52719" data-name="Path 52719" d="M286.253,558.688a3.436,3.436,0,1,1,3.436-3.436A3.439,3.439,0,0,1,286.253,558.688Z" transform="translate(-202.34 -488.397)" fill="#fff"/>
    <path id="Path_52720" data-name="Path 52720" d="M282.82,555.253a3.419,3.419,0,1,0,3.433-3.436A3.412,3.412,0,0,0,282.82,555.253Z" transform="translate(-202.34 -488.397)" fill="#fff"/>
    <path id="Path_52721" data-name="Path 52721" d="M284.778,555.573a1.716,1.716,0,1,1,1.716-1.716A1.719,1.719,0,0,1,284.778,555.573Z" transform="translate(-201.895 -487.802)" fill="#fff"/>
    <path id="Path_52722" data-name="Path 52722" d="M297.493,554.652l-14.573,9.713a3.434,3.434,0,0,0,4.857,4.857l9.77-9.767A3.374,3.374,0,0,0,297.493,554.652Z" transform="translate(-204.004 -483.175)" fill="#fff"/>
    <path id="Path_52723" data-name="Path 52723" d="M298.161,556.266a3.425,3.425,0,0,0-5.53-.963l-9.713,9.713a3.416,3.416,0,0,0-1,2.276,3.326,3.326,0,0,0,.673.961,3.434,3.434,0,0,0,4.857,0l9.713-9.713A3.415,3.415,0,0,0,298.161,556.266Z" transform="translate(-203.998 -483.826)" fill="#fff"/>
    <path id="Path_52724" data-name="Path 52724" d="M286.385,557.377a1.718,1.718,0,1,1,2.43,0A1.719,1.719,0,0,1,286.385,557.377Z" transform="translate(-196.701 -483.553)" fill="#fff"/>
    <path id="Path_52725" data-name="Path 52725" d="M283.033,566.743a3.434,3.434,0,1,1,3.433-3.433A3.438,3.438,0,0,1,283.033,566.743Z" transform="translate(-208.276 -473.557)" fill="#fff"/>
    <path id="Path_52726" data-name="Path 52726" d="M279.6,563.31a2.869,2.869,0,1,0,4.592-3.231,3.476,3.476,0,0,0-1.157-.2A3.44,3.44,0,0,0,279.6,563.31Z" transform="translate(-208.276 -473.557)" fill="#fff"/>
    <path id="Path_52727" data-name="Path 52727" d="M281.555,563.63a1.716,1.716,0,1,1,1.716-1.717A1.719,1.719,0,0,1,281.555,563.63Z" transform="translate(-207.831 -472.962)" fill="#fff"/>
    <path id="Path_52728" data-name="Path 52728" d="M280.13,566.743a3.434,3.434,0,1,1,3.436-3.433A3.437,3.437,0,0,1,280.13,566.743Z" transform="translate(-213.618 -473.557)" fill="#fff"/>
    <path id="Path_52729" data-name="Path 52729" d="M276.7,563.31a2.868,2.868,0,1,0,4.59-3.231,3.424,3.424,0,0,0-4.59,3.231Z" transform="translate(-213.618 -473.557)" fill="#fff"/>
    <path id="Path_52730" data-name="Path 52730" d="M278.657,563.63a1.716,1.716,0,1,1,1.716-1.717A1.719,1.719,0,0,1,278.657,563.63Z" transform="translate(-213.174 -472.962)" fill="#fff"/>
    <path id="Path_52731" data-name="Path 52731" d="M283.253,572.615a3.8,3.8,0,0,0,5.362-5.365c-3.592-4.5-3.086-13.1-10.776-13.507l-1.62,1.62c-.54.537-1.077,1.077-1.617,1.617l-4.857,4.857C270.15,569.529,278.749,569.023,283.253,572.615Z" transform="translate(-226.42 -484.849)" fill="#008f7a"/>
    <path id="Path_52732" data-name="Path 52732" d="M284.864,568.034a3.766,3.766,0,0,0,1.594.81,3.77,3.77,0,0,0-.81-1.594c-3.592-4.5-3.086-13.1-10.776-13.507l-2.094,2.094-1.142,1.143-.279.278C271.76,564.948,280.363,564.442,284.864,568.034Z" transform="translate(-223.453 -484.849)" fill="#008f7a"/>
    <path id="Path_52733" data-name="Path 52733" d="M254.557,557.51l0,.031c.011.08.023.159.04.233.017.091.037.179.063.267l.011.048c.014.054.026.105.043.159.034.114.074.224.114.335.014.037.028.077.043.111.048.117.1.233.159.35.011.026.023.051.034.074.065.125.134.247.207.364a.419.419,0,0,0,.023.037c.08.125.165.25.259.372l.006.009a5.2,5.2,0,0,0,.841.87,5.145,5.145,0,0,0-1.671,3.794c0,.165.009.338.026.509.006.065.014.134.028.222l.006.031c.011.08.023.159.037.239s.04.176.062.262l.014.048a1.621,1.621,0,0,0,.043.159c.034.114.071.224.114.335.014.04.028.077.043.111.045.117.1.233.156.349.011.026.026.051.037.074.065.125.133.25.207.364.006.011.014.028.02.037.08.125.168.25.259.372l.008.008a5.146,5.146,0,0,0,2.14,1.648,5.144,5.144,0,0,0-.682,2.557c0,.165.009.338.026.509.006.068.017.134.031.222l0,.034c.011.079.023.159.04.233.017.091.037.176.063.264l.011.048a1.435,1.435,0,0,0,.043.159c.034.114.074.224.114.335.014.04.028.08.043.114.048.114.1.23.159.35.011.023.023.048.034.074.065.122.133.247.207.364a.4.4,0,0,1,.023.037c.08.122.165.25.259.37l.006.008a5.114,5.114,0,0,0,3.814,2.023,5.078,5.078,0,0,0-.065.81c0,.165.008.335.026.509.006.065.017.134.031.222l0,.031c.011.08.023.159.04.236s.037.176.06.264l.014.048c.011.054.026.105.043.159.034.114.074.225.114.335q.021.06.043.111c.048.117.1.233.159.35.011.026.023.051.034.074.065.125.134.25.207.364.006.011.017.028.023.037a4.385,4.385,0,0,0,.259.372l.006.009A5.114,5.114,0,0,0,267.208,583a5.021,5.021,0,0,0,1.08-.117c0,.017,0,.028.006.045l.006.031c.011.079.023.159.037.236s.04.176.063.264l.011.048c.014.054.028.105.043.159.034.114.074.225.116.335q.021.06.043.111a3.782,3.782,0,0,0,.156.35.621.621,0,0,0,.037.074c.063.125.134.25.2.364.006.011.017.028.023.037.08.125.168.25.259.372l.006.009a5.14,5.14,0,0,0,6.556,1.4.141.141,0,0,0,.014.031c.011.026.023.051.034.074.065.125.134.247.207.364a.405.405,0,0,0,.023.037c.08.125.165.25.259.372l.006.008a5.145,5.145,0,0,0,7.889.358,5.135,5.135,0,0,0,7.767.244,5.136,5.136,0,0,0,7.67-.128,5.139,5.139,0,0,0,7.673.128,5.133,5.133,0,0,0,7.667-.128,5.136,5.136,0,0,0,6.9.81c.071.1.139.208.219.31l.006.008a5.142,5.142,0,0,0,5.993,1.665c.009.04.02.08.031.117.034.114.074.224.114.335.014.04.029.079.043.114.048.116.1.23.159.349l.034.074c.065.125.134.247.207.364.006.009.017.026.023.037.08.125.165.25.259.372l.006.006a5.111,5.111,0,0,0,4.092,2.032c.051,0,.1,0,.151,0a4.789,4.789,0,0,0-.037.574c0,.168.008.338.026.509.006.068.017.133.031.222l0,.034c.011.08.023.159.04.233.017.091.04.179.063.264l.011.051c.014.051.026.105.043.157.034.113.074.224.114.335.014.04.029.079.043.113.048.117.1.23.159.35.011.026.023.048.034.074.065.125.136.247.207.364a.414.414,0,0,1,.023.037c.079.125.165.25.259.372l.006.006a5.138,5.138,0,0,0,6.4,1.486l-8.517,8.514c-.117.119-.23.247-.338.378-.046.051-.085.108-.125.162l-.034.045c-.048.065-.094.128-.136.191s-.1.153-.142.233l-.026.04c-.029.048-.057.1-.082.145-.057.1-.108.211-.156.313-.017.04-.037.08-.048.114-.051.114-.1.236-.136.355-.011.031-.023.062-.028.08-.04.128-.077.261-.111.406a.375.375,0,0,1-.011.04c-.031.142-.057.29-.077.438l0,.014a5.116,5.116,0,0,0,.1,1.932c-.085-.026-.168-.057-.253-.08l-.054-.014c-.119-.031-.239-.057-.355-.08-.048-.009-.1-.017-.145-.023l-.063-.009c-.082-.014-.162-.026-.239-.031a4.829,4.829,0,0,0-.486-.026,5.153,5.153,0,0,0-4.123,2.069,5.159,5.159,0,0,0-2.776-1.887l-.054-.014c-.119-.031-.242-.06-.355-.08-.048-.009-.1-.017-.148-.023l-.062-.009a2.369,2.369,0,0,0-.239-.031,4.785,4.785,0,0,0-.486-.026,5.184,5.184,0,0,0-1.691.29,5.48,5.48,0,0,0-.315-1.864,1.277,1.277,0,0,0-.054-.139c-.054-.142-.114-.279-.176-.406-.029-.06-.057-.119-.088-.179-.065-.122-.136-.244-.216-.369l-.011-.02c-.028-.045-.057-.091-.088-.136a4.73,4.73,0,0,0-.347-.46,18.868,18.868,0,0,1-2.407-4.933c-1.213-3.194-2.589-6.818-6.181-8.415a9.62,9.62,0,0,0-3.427-.787,1.717,1.717,0,1,0-.179,3.43,6.118,6.118,0,0,1,2.211.495c2.285,1.017,3.3,3.677,4.368,6.5a21.389,21.389,0,0,0,2.944,5.871l0,0,.034.043a1.789,1.789,0,0,1,.131.176l.045.071c.028.045.057.091.082.136a.493.493,0,0,0,.034.068c.023.048.045.1.065.154l.026.068a2.084,2.084,0,0,1-3.325,2.268l-.045-.037a21.413,21.413,0,0,0-5.874-2.944c-3.922-1.486-6.437-2.606-6.917-5.848l4.283-4.283a1.717,1.717,0,0,0-2.427-2.43l-4.857,4.857a1.717,1.717,0,0,0-.5,1.3c.327,6.246,5.246,8.11,9.2,9.611a18.767,18.767,0,0,1,4.933,2.4,5.5,5.5,0,0,0,3.558,1.293,5.594,5.594,0,0,0,2.072-.4c0,.094.006.182.014.276.006.068.017.133.031.222l0,.034c.011.08.023.159.037.233.02.091.04.176.062.264l.014.051a1.567,1.567,0,0,0,.043.156c.034.114.074.225.114.335.014.04.028.079.043.114.045.116.1.23.156.349a.593.593,0,0,1,.037.074c.065.125.134.247.207.364.006.009.017.026.023.037a4.445,4.445,0,0,0,.259.372l.006.006a5.14,5.14,0,0,0,8.216-.037.2.2,0,0,0,.02.031l.006.006a5.146,5.146,0,0,0,9.091-4.36,5.136,5.136,0,0,0,5.235-1.25l9.77-9.767a5.073,5.073,0,0,0,.259-6.889c-.1-.122-.207-.239-.313-.344a5.111,5.111,0,0,0-.841-.679,5.144,5.144,0,0,0,.6-8.744,5.142,5.142,0,0,0-1.151-8.085,5.137,5.137,0,0,0-2.083-7.79,5.141,5.141,0,0,0-3.217-7.346l-.063-.017-.145-.031a5.15,5.15,0,0,0-3.459-6.82l-.06-.017c-.119-.031-.239-.06-.361-.082-.048-.009-.094-.014-.142-.02l-.063-.011-.037,0a5.223,5.223,0,0,0,.114-1.083,5.158,5.158,0,0,0-3.8-4.967l-.06-.014c-.119-.031-.239-.06-.361-.082l-.142-.023-.063-.009c-.079-.011-.162-.023-.239-.031-.139-.014-.27-.02-.4-.023a4.759,4.759,0,0,0,.034-.574,5.162,5.162,0,0,0-3.8-4.968l-.062-.017c-.119-.028-.239-.057-.355-.08-.048-.009-.1-.017-.148-.023l-.06-.009c-.082-.014-.165-.025-.242-.031a4.739,4.739,0,0,0-.483-.026,5.543,5.543,0,0,0-.577.034,5.151,5.151,0,0,0-3.8-4.885l-.06-.017c-.119-.031-.242-.06-.355-.08-.048-.008-.1-.017-.148-.023l-.063-.011c-.08-.011-.162-.023-.239-.031-.168-.014-.327-.023-.486-.023a5.141,5.141,0,0,0-1.552.242,5.153,5.153,0,0,0-3.737-4.18l-.062-.014c-.119-.031-.239-.06-.355-.08-.048-.011-.1-.017-.148-.025l-.06-.009c-.082-.011-.162-.023-.239-.031a4.847,4.847,0,0,0-.486-.023,5.174,5.174,0,0,0-1.9.364,5.159,5.159,0,0,0-3.618-3.615l-.062-.017c-.119-.031-.239-.06-.355-.08-.048-.008-.1-.017-.148-.023l-.063-.011c-.08-.011-.162-.023-.239-.028a4.756,4.756,0,0,0-.483-.026,5.148,5.148,0,0,0-2.458.625c-.063.034-.122.071-.185.108a5.151,5.151,0,0,0-3.336-2.839l-.06-.017c-.119-.029-.242-.057-.355-.08-.048-.009-.1-.017-.148-.023l-.062-.009c-.08-.014-.162-.025-.239-.031a4.685,4.685,0,0,0-.486-.026,5.143,5.143,0,0,0-2.455.625,4.313,4.313,0,0,0-.455.284,5.142,5.142,0,0,0-3.066-2.327l-.063-.017c-.119-.028-.239-.057-.355-.079-.048-.009-.1-.014-.145-.023l-.063-.009c-.082-.014-.162-.025-.239-.031a4.72,4.72,0,0,0-.483-.026,5.154,5.154,0,0,0-2.458.625,5.239,5.239,0,0,0-1.114.815,5.129,5.129,0,0,0-2.634-1.713l-.063-.017c-.119-.031-.239-.057-.355-.08-.048-.009-.1-.017-.148-.023l-.06-.008c-.082-.014-.165-.026-.242-.031a4.712,4.712,0,0,0-.483-.025,5.147,5.147,0,0,0-4.092,2.029,5.143,5.143,0,0,0-2.345-1.387l-.06-.017c-.119-.031-.242-.057-.355-.079-.048-.009-.1-.017-.148-.023l-.063-.009c-.08-.014-.162-.025-.239-.031a4.724,4.724,0,0,0-.483-.026,5.158,5.158,0,0,0-4.877,3.487,5.239,5.239,0,0,0-.872-.327l-.063-.014c-.119-.031-.239-.06-.355-.079-.048-.011-.1-.017-.148-.026l-.06-.009c-.082-.011-.162-.023-.239-.031a4.788,4.788,0,0,0-.486-.023,5.145,5.145,0,0,0-5.124,4.649.217.217,0,0,0-.043-.006l-.063-.011c-.082-.011-.162-.023-.239-.031-.168-.014-.327-.023-.486-.023a5.151,5.151,0,0,0-5.152,5.152c0,.165.009.335.026.506.009.068.017.136.031.225l.006.031c.009.08.023.159.037.236s.04.176.063.264l.011.048a.068.068,0,0,1,.006.023,5.139,5.139,0,0,0-4.3,5.078c0,.165.008.335.026.506.006.068.017.136.031.224l0,.031c.011.08.023.159.04.236s.037.176.063.264l.011.048a1.632,1.632,0,0,0,.043.159c.034.113.074.224.114.335.014.037.028.077.043.111.048.116.1.233.159.349.011.026.023.051.034.074.037.071.077.137.117.2-.014.009-.031.017-.048.026a5.152,5.152,0,0,0-2.694,4.527c0,.168.008.338.026.509C254.531,557.354,254.543,557.419,254.557,557.51Zm66.455,62.346a1.721,1.721,0,0,1-1.364-.682l0-.006c-.028-.037-.054-.074-.08-.111a.1.1,0,0,0-.011-.02c-.02-.034-.043-.071-.063-.111a.351.351,0,0,1-.017-.034c-.017-.034-.034-.068-.048-.105l-.02-.048c-.011-.034-.026-.071-.037-.105l-.026-.105c-.006-.02-.011-.04-.014-.048l-.028-.191c0-.051-.006-.1-.006-.15a1.725,1.725,0,0,1,.9-1.512,1.7,1.7,0,0,1,.816-.2c.048,0,.1,0,.156.006l.154.023c.04.009.079.017.122.029l.02.006a1.715,1.715,0,0,1-.452,3.37Zm-62.772-54.8-.028-.105c-.006-.017-.009-.034-.014-.054l-.026-.185a1.365,1.365,0,0,1-.009-.151,1.726,1.726,0,0,1,.9-1.512,1.7,1.7,0,0,1,.816-.2c.048,0,.1,0,.156.006l.154.023c.04.009.08.017.136.034a1.714,1.714,0,1,1-1.807,2.688l-.006-.006c-.028-.037-.054-.074-.08-.111,0-.006-.009-.02-.009-.02-.023-.034-.045-.071-.065-.108-.006-.014-.014-.029-.017-.037-.017-.034-.034-.068-.048-.105l-.02-.048C258.263,565.129,258.248,565.095,258.24,565.058Zm1.412-6.562a1.716,1.716,0,0,1-1.364-.682l0-.006c-.028-.037-.054-.074-.08-.114a.081.081,0,0,1-.011-.017c-.023-.037-.043-.071-.065-.111a.285.285,0,0,1-.014-.034c-.017-.034-.034-.068-.051-.108l-.017-.048c-.014-.034-.026-.068-.037-.1l-.028-.105a.2.2,0,0,0-.011-.048l-.014-.1-.014-.091c0-.054-.006-.105-.006-.154a1.715,1.715,0,0,1,.9-1.509,1.7,1.7,0,0,1,.816-.207c.046,0,.1,0,.154.008l.153.023.139.031a1.716,1.716,0,0,1-.446,3.373Zm1.384,14.428-.006-.006a1.085,1.085,0,0,1-.077-.111.08.08,0,0,1-.011-.017c-.023-.037-.045-.074-.065-.111a.128.128,0,0,0-.017-.034c-.014-.034-.031-.071-.048-.108l-.017-.048c-.014-.034-.026-.068-.037-.1l-.028-.108a.274.274,0,0,1-.011-.048l-.028-.188a1.459,1.459,0,0,1-.009-.154,1.726,1.726,0,0,1,.9-1.512,1.686,1.686,0,0,1,.816-.2q.068,0,.154.008l.153.023c.04.005.079.017.139.031a1.714,1.714,0,1,1-1.81,2.688Zm4.808,5.954-.006-.006c-.026-.037-.054-.074-.077-.111a.218.218,0,0,1-.011-.02,1.018,1.018,0,0,1-.065-.111.372.372,0,0,0-.017-.034c-.017-.034-.031-.068-.048-.105l-.017-.048c-.014-.037-.026-.071-.037-.105l-.028-.105a.263.263,0,0,1-.011-.048l-.029-.19a1.4,1.4,0,0,1-.008-.151,1.723,1.723,0,0,1,.9-1.512,1.687,1.687,0,0,1,.816-.2c.046,0,.1,0,.154.006l.153.023c.04.008.08.017.122.028l.02.006a1.715,1.715,0,1,1-1.813,2.688Zm7.545,5.033a1.716,1.716,0,0,1-1.364-.682l0-.006c-.028-.037-.054-.074-.08-.111a.1.1,0,0,0-.011-.02,1.043,1.043,0,0,1-.063-.111.128.128,0,0,1-.017-.034c-.017-.034-.034-.068-.051-.105l-.017-.051c-.014-.034-.026-.068-.037-.1l-.026-.105c-.006-.02-.011-.04-.014-.048l-.028-.19c0-.051-.006-.1-.006-.151a1.716,1.716,0,0,1,.9-1.512,1.7,1.7,0,0,1,.816-.208q.068,0,.153.008l.156.023c.04.008.077.017.119.028a.114.114,0,0,1,.02.006,1.715,1.715,0,0,1-.449,3.37Zm7.1,2.29a1.716,1.716,0,0,1-1.364-.682l-.006-.006c-.026-.037-.054-.074-.077-.114a.085.085,0,0,1-.011-.017c-.023-.037-.045-.074-.065-.111a.187.187,0,0,0-.017-.034c-.017-.034-.031-.068-.048-.108l-.017-.048a.756.756,0,0,1-.037-.1l-.028-.108a.325.325,0,0,1-.011-.045l-.028-.19a1.466,1.466,0,0,1-.009-.154,1.718,1.718,0,0,1,.9-1.509,1.658,1.658,0,0,1,.816-.207q.068,0,.154.009l.153.023a1.072,1.072,0,0,1,.122.028l.02.006a1.715,1.715,0,0,1-.449,3.37Zm7.784.227a1.716,1.716,0,0,1-1.364-.682l0-.006c-.028-.037-.054-.074-.08-.111a.1.1,0,0,0-.011-.02c-.023-.034-.043-.071-.065-.111a.3.3,0,0,1-.014-.034c-.017-.034-.034-.068-.051-.105l-.017-.048c-.014-.034-.026-.071-.037-.105l-.028-.105a.305.305,0,0,0-.011-.048l-.028-.19c0-.051-.006-.1-.006-.151a1.72,1.72,0,0,1,.9-1.512,1.7,1.7,0,0,1,.816-.2c.045,0,.1,0,.153.006l.154.023c.043.009.08.017.122.029a.108.108,0,0,1,.02.006,1.715,1.715,0,0,1-.449,3.37Zm7.556,0a1.716,1.716,0,0,1-1.364-.682l-.006-.006c-.026-.037-.054-.074-.077-.111a.219.219,0,0,1-.011-.02,1.03,1.03,0,0,1-.065-.111c-.006-.011-.011-.025-.017-.034-.014-.034-.031-.068-.048-.105l-.017-.048c-.014-.034-.026-.071-.037-.105l-.028-.105a.27.27,0,0,1-.011-.048l-.028-.19a1.369,1.369,0,0,1-.009-.151,1.723,1.723,0,0,1,.9-1.512,1.686,1.686,0,0,1,.816-.2c.045,0,.1,0,.153.006l.154.023c.04.009.08.017.122.029l.02.006a1.715,1.715,0,0,1-.449,3.37Zm7.784,0a1.716,1.716,0,0,1-1.364-.682l0-.006c-.028-.037-.054-.074-.08-.111a.1.1,0,0,0-.011-.02,1.017,1.017,0,0,1-.063-.111.124.124,0,0,1-.017-.034c-.017-.034-.034-.068-.051-.105l-.017-.048c-.011-.034-.026-.071-.037-.105l-.026-.105c-.006-.02-.011-.04-.014-.048l-.028-.19c0-.051-.006-.1-.006-.151a1.72,1.72,0,0,1,.9-1.512,1.7,1.7,0,0,1,.816-.2c.045,0,.1,0,.153.006l.156.023c.04.009.077.017.119.029a.11.11,0,0,1,.02.006,1.715,1.715,0,0,1-.449,3.37Zm7.556,0a1.716,1.716,0,0,1-1.364-.682l-.006-.006-.077-.111a.194.194,0,0,1-.011-.02,1.016,1.016,0,0,1-.065-.111.289.289,0,0,1-.014-.034c-.017-.034-.034-.068-.051-.105l-.017-.048c-.014-.034-.026-.071-.037-.105l-.029-.105a.27.27,0,0,1-.011-.048l-.028-.19a1.374,1.374,0,0,1-.006-.151,1.72,1.72,0,0,1,.9-1.512,1.694,1.694,0,0,1,.816-.2c.046,0,.1,0,.153.006l.154.023c.04.009.08.017.122.029a.11.11,0,0,1,.02.006,1.715,1.715,0,0,1-.449,3.37Zm7.784,0a1.716,1.716,0,0,1-1.364-.682l0-.006c-.029-.037-.054-.074-.08-.111a.091.091,0,0,0-.011-.02,1.032,1.032,0,0,1-.062-.111c-.006-.011-.014-.025-.017-.034-.017-.034-.034-.068-.048-.105l-.02-.048c-.011-.034-.026-.071-.037-.105l-.026-.105-.014-.048-.028-.19c0-.051-.006-.1-.006-.151a1.726,1.726,0,0,1,.9-1.512,1.7,1.7,0,0,1,.816-.2c.048,0,.1,0,.156.006l.154.023c.04.009.079.017.119.029a.11.11,0,0,1,.02.006,1.715,1.715,0,0,1-.449,3.37Zm7.326,1.372a1.708,1.708,0,0,1-1.361-.679l-.006-.006c-.028-.037-.054-.074-.08-.114a.185.185,0,0,0-.011-.017c-.02-.037-.043-.074-.063-.111-.006-.014-.014-.028-.017-.034a.929.929,0,0,1-.048-.108l-.02-.048c-.011-.034-.026-.068-.037-.1l-.026-.108a.446.446,0,0,0-.014-.045l-.028-.19c0-.054-.006-.105-.006-.154a1.721,1.721,0,0,1,.9-1.509,1.676,1.676,0,0,1,.816-.207c.048,0,.1,0,.156.009l.153.023a1.073,1.073,0,0,1,.122.028.1.1,0,0,0,.02,0,1.715,1.715,0,0,1-.452,3.37Zm5.507,2.754-.006-.006c-.029-.037-.054-.074-.08-.111a.167.167,0,0,0-.009-.02,1.045,1.045,0,0,1-.065-.111.372.372,0,0,1-.017-.034c-.017-.034-.034-.068-.048-.105l-.02-.048c-.011-.034-.026-.071-.037-.105l-.025-.105c-.006-.02-.011-.04-.014-.048l-.029-.19c0-.051-.006-.1-.006-.151a1.722,1.722,0,0,1,.9-1.512,1.684,1.684,0,0,1,.813-.2c.048,0,.1,0,.156.006l.153.023c.04.008.08.017.136.034a1.714,1.714,0,1,1-1.807,2.688Zm6.627,6.405a1.7,1.7,0,0,1-1.361-.682l-.006-.006a.952.952,0,0,1-.077-.111.087.087,0,0,1-.011-.017c-.023-.037-.045-.074-.065-.111a.12.12,0,0,0-.017-.034c-.017-.034-.034-.071-.048-.108l-.017-.048a.742.742,0,0,1-.037-.1l-.028-.108c-.006-.02-.011-.04-.014-.048l-.026-.187a1.463,1.463,0,0,1-.008-.154,1.726,1.726,0,0,1,.9-1.512,1.687,1.687,0,0,1,.816-.2q.068,0,.154.009l.153.023a1.006,1.006,0,0,1,.122.026.057.057,0,0,0,.02.006,1.715,1.715,0,0,1-.452,3.37Zm6.2-2.512-.006-.006c-.028-.037-.054-.074-.08-.114a.187.187,0,0,0-.011-.017c-.02-.037-.043-.071-.063-.111a.347.347,0,0,1-.017-.034.97.97,0,0,1-.048-.108l-.02-.048c-.011-.034-.026-.068-.037-.1l-.026-.105a.385.385,0,0,0-.014-.048l-.028-.19c0-.054-.006-.105-.006-.154a1.72,1.72,0,0,1,1.716-1.716c.048,0,.1,0,.156.009l.153.023c.04.008.08.017.122.028l.02.006a1.715,1.715,0,1,1-1.813,2.688Zm.676-7.1a1.713,1.713,0,0,1-1.364-.679l-.006-.009a1.081,1.081,0,0,1-.077-.111.082.082,0,0,1-.011-.017c-.023-.037-.046-.074-.065-.111a.12.12,0,0,0-.017-.034c-.017-.034-.031-.068-.048-.108l-.017-.048a.75.75,0,0,1-.037-.1l-.028-.108a.334.334,0,0,1-.011-.046l-.014-.1-.014-.088a1.487,1.487,0,0,1-.008-.153,1.726,1.726,0,0,1,.9-1.512,1.687,1.687,0,0,1,.816-.2c.045,0,.1,0,.153.008l.153.023c.04.006.08.017.136.031a1.714,1.714,0,0,1-.443,3.37Zm-1.6-7.553a1.716,1.716,0,0,1-1.364-.682l-.006-.006c-.026-.037-.054-.074-.077-.114a.087.087,0,0,1-.011-.017c-.023-.037-.045-.074-.065-.111a.177.177,0,0,0-.017-.034c-.017-.034-.031-.068-.048-.108l-.017-.048a.754.754,0,0,1-.037-.1l-.028-.108a.334.334,0,0,1-.011-.046l-.029-.19a1.485,1.485,0,0,1-.008-.153,1.718,1.718,0,0,1,.9-1.509,1.657,1.657,0,0,1,.816-.207q.068,0,.154.009l.153.023c.04.006.08.017.119.025l.017.006a1.716,1.716,0,0,1-.443,3.373Zm-14.425,40.066a1.716,1.716,0,0,1-1.364-.682l-.006-.006-.077-.111a.22.22,0,0,1-.011-.02,1.021,1.021,0,0,1-.065-.111.278.278,0,0,1-.014-.034c-.017-.034-.034-.068-.051-.105l-.017-.048c-.014-.034-.026-.071-.037-.105l-.028-.105a.276.276,0,0,1-.011-.048l-.028-.191a1.344,1.344,0,0,1-.006-.15,1.72,1.72,0,0,1,.9-1.512,1.693,1.693,0,0,1,.816-.2c.045,0,.1,0,.153.006l.153.023c.04.009.08.017.122.029a.11.11,0,0,1,.02.006,1.715,1.715,0,0,1-.449,3.37Zm17.574-16.4-9.77,9.767a1.712,1.712,0,0,1-2.91-1.441v-.006a1.212,1.212,0,0,1,.026-.142c0-.006,0-.014.006-.02.008-.04.017-.08.031-.125.006-.014.011-.028.014-.034a1.04,1.04,0,0,1,.04-.111l.023-.048c.014-.034.028-.065.045-.1l.057-.091a.24.24,0,0,1,.023-.043l.116-.156a1.3,1.3,0,0,1,.1-.114l9.713-9.713a1.724,1.724,0,0,1,2.43,0c.034.037.068.074.1.114l.008.008A1.638,1.638,0,0,1,346.83,603.453Zm-3.95-32.479a1.714,1.714,0,0,1-3.083,1.034l0-.006c-.028-.037-.054-.074-.08-.111a.1.1,0,0,0-.011-.02c-.02-.034-.043-.071-.063-.111a.358.358,0,0,1-.017-.034,1.125,1.125,0,0,1-.048-.105l-.02-.048c-.011-.037-.026-.071-.037-.105l-.026-.105c-.006-.02-.011-.04-.014-.048l-.028-.19c0-.051-.006-.1-.006-.151a1.726,1.726,0,0,1,.9-1.512,1.706,1.706,0,0,1,.816-.207c.048,0,.1,0,.156.009l.159.026c.037.006.077.017.131.031A1.72,1.72,0,0,1,342.88,570.975Zm-3.666-6.869a1.713,1.713,0,0,1-3.08,1.035l0-.006c-.028-.037-.054-.074-.08-.111a.085.085,0,0,0-.011-.02,1.048,1.048,0,0,1-.063-.111.368.368,0,0,1-.017-.034c-.017-.034-.034-.068-.048-.105l-.02-.051c-.011-.034-.026-.068-.037-.1l-.026-.105-.014-.048-.028-.19c0-.051-.006-.1-.006-.151a1.725,1.725,0,0,1,.9-1.512,1.7,1.7,0,0,1,.816-.207c.048,0,.1,0,.156.008l.159.026a1.285,1.285,0,0,1,.131.028A1.723,1.723,0,0,1,339.214,564.106Zm-5.752-7.869c.037.009.077.017.131.031a1.715,1.715,0,1,1-1.807,2.691l-.006-.006c-.029-.037-.054-.074-.08-.114l-.009-.017c-.023-.037-.045-.074-.065-.111l-.017-.034a.938.938,0,0,1-.048-.108l-.02-.048c-.011-.034-.026-.068-.037-.1l-.025-.108c-.006-.02-.011-.04-.014-.045l-.029-.19c0-.054-.006-.105-.006-.154a1.718,1.718,0,0,1,.9-1.509,1.655,1.655,0,0,1,.813-.207c.048,0,.1,0,.156.008Zm-5.2-5.746.153.023c.04.006.08.017.139.031a1.714,1.714,0,1,1-1.81,2.691l0-.006c-.028-.037-.054-.074-.079-.114a.08.08,0,0,1-.011-.017c-.023-.037-.043-.074-.065-.111-.006-.014-.011-.028-.014-.034-.017-.034-.034-.068-.051-.108l-.017-.048c-.014-.034-.026-.068-.037-.1l-.028-.108a.2.2,0,0,0-.011-.045l-.028-.19c0-.054-.006-.105-.006-.153a1.723,1.723,0,0,1,.9-1.512,1.7,1.7,0,0,1,.816-.2A1.536,1.536,0,0,1,328.264,550.491Zm-6.692-4.839a1.687,1.687,0,0,1,.816-.207c.045,0,.1,0,.153.008l.154.023c.04.009.08.017.136.031a1.715,1.715,0,1,1-1.807,2.691l-.006-.006c-.026-.037-.054-.074-.077-.111a.2.2,0,0,1-.011-.02,1.007,1.007,0,0,1-.065-.111.357.357,0,0,0-.017-.034c-.017-.034-.031-.068-.048-.105l-.017-.051a.729.729,0,0,1-.037-.1l-.028-.105a.277.277,0,0,1-.011-.048l-.029-.19a1.379,1.379,0,0,1-.008-.15A1.719,1.719,0,0,1,321.572,545.651Zm-6.641-4.121a1.664,1.664,0,0,1,.816-.208c.045,0,.1,0,.156.008l.154.023c.04.006.077.017.136.031a1.715,1.715,0,1,1-1.81,2.691l0-.006c-.028-.037-.054-.074-.08-.114a.161.161,0,0,0-.011-.017c-.023-.037-.043-.071-.063-.111-.006-.011-.014-.026-.017-.034-.017-.034-.034-.068-.051-.108l-.017-.048c-.011-.034-.026-.068-.037-.1l-.026-.108a.46.46,0,0,0-.014-.046l-.028-.19c0-.054-.006-.105-.006-.153A1.721,1.721,0,0,1,314.931,541.531Zm-6.869-3.436a1.694,1.694,0,0,1,.816-.2c.046,0,.1,0,.153.006l.156.023c.04.008.077.017.136.034a1.714,1.714,0,1,1-1.81,2.688l0-.006c-.028-.037-.054-.074-.08-.111l-.011-.02a1.014,1.014,0,0,1-.063-.111.123.123,0,0,1-.017-.034c-.017-.034-.034-.068-.051-.105l-.017-.048c-.011-.034-.026-.068-.037-.105L307.21,540c-.006-.02-.011-.04-.014-.048l-.014-.1-.014-.091c0-.051-.006-.1-.006-.151A1.72,1.72,0,0,1,308.062,538.1Zm-7.326-2.291a1.7,1.7,0,0,1,.816-.2q.068,0,.153.009l.154.023c.04.006.08.017.139.031a1.714,1.714,0,1,1-1.81,2.691l-.006-.006c-.026-.037-.051-.074-.077-.114a.082.082,0,0,1-.011-.017c-.023-.037-.043-.074-.065-.111-.006-.014-.011-.028-.014-.034-.017-.034-.034-.068-.051-.108l-.017-.048c-.014-.034-.026-.068-.037-.1l-.028-.108a.207.207,0,0,0-.011-.046l-.014-.1-.014-.091c0-.054-.006-.105-.006-.153A1.723,1.723,0,0,1,300.736,535.8Zm-7.326-1.6a1.686,1.686,0,0,1,.816-.2c.045,0,.1,0,.153.008l.154.023c.04.006.079.017.136.031a1.714,1.714,0,1,1-1.807,2.691l-.006-.006c-.026-.037-.054-.074-.077-.114a.079.079,0,0,1-.011-.017c-.023-.037-.045-.074-.065-.111a.129.129,0,0,0-.017-.034c-.017-.034-.031-.068-.048-.108l-.017-.048a.717.717,0,0,1-.037-.1l-.028-.108a.342.342,0,0,1-.011-.046l-.028-.19a1.47,1.47,0,0,1-.009-.154A1.726,1.726,0,0,1,293.41,534.2Zm-7.556-.458a1.694,1.694,0,0,1,.816-.2q.068,0,.153.008l.154.023c.04.006.08.017.139.031a1.714,1.714,0,1,1-1.81,2.691l-.006-.008q-.038-.051-.077-.111a.079.079,0,0,1-.011-.017c-.023-.037-.043-.074-.065-.111-.006-.014-.011-.028-.014-.034-.017-.034-.034-.071-.051-.108l-.017-.048c-.014-.034-.026-.068-.037-.1l-.028-.108a.2.2,0,0,0-.011-.045l-.029-.19c0-.054-.006-.105-.006-.153A1.723,1.723,0,0,1,285.853,533.744Zm.816,6.664a5.133,5.133,0,0,0,3.569-1.444,5.132,5.132,0,0,0,6.9.995l.034.063a.408.408,0,0,1,.023.037c.08.125.165.25.259.372l.006.006a5.134,5.134,0,0,0,6.735,1.3c.023.045.04.091.062.136.011.026.023.051.034.074.065.125.136.25.207.367l.023.034c.08.125.165.25.259.372l.006.009a5.13,5.13,0,0,0,5.993,1.665c.011.04.02.08.031.119.034.114.074.224.116.335.014.037.028.077.04.111.048.116.1.233.159.349a.579.579,0,0,0,.037.074c.063.125.134.247.2.364a.4.4,0,0,0,.023.037c.08.125.165.25.259.372l.006.009a5.151,5.151,0,0,0,5.647,1.79c.008.071.02.142.031.207.02.088.04.176.063.264l.014.048a1.637,1.637,0,0,0,.043.159c.034.113.074.224.114.335.014.04.028.077.043.113.048.114.1.23.156.347.014.026.026.051.037.077.065.122.134.247.207.364l.023.034a4.385,4.385,0,0,0,.259.372l.006.009a5.114,5.114,0,0,0,4.092,2.032,4.88,4.88,0,0,0,.577-.034c0,.142.006.284.02.426.009.068.017.137.031.222l.006.034c.008.079.023.159.037.233.017.091.04.179.063.267l.011.048c.014.054.028.105.043.159.034.114.074.225.117.335.011.037.026.077.04.111.048.116.1.233.159.35a.608.608,0,0,0,.037.074c.063.125.134.247.2.364a.42.42,0,0,0,.023.037c.08.125.165.25.259.372l.006.009a5.125,5.125,0,0,0,4.013,2.029,5.445,5.445,0,0,0-.034.574c0,.165.008.338.026.509.006.065.017.134.031.222l0,.034c.011.08.023.156.037.233s.04.176.063.264l.014.048c.011.054.026.105.043.159.034.113.074.224.114.335.014.04.029.077.043.113.045.114.1.23.156.347.014.026.026.051.037.074.065.125.134.25.207.364a.373.373,0,0,0,.023.037,4.379,4.379,0,0,0,.259.372l.006.009a5.115,5.115,0,0,0,3.4,1.984,5.208,5.208,0,0,0-.114,1.077c0,.165.009.338.026.509.006.068.014.133.028.222l.006.034c.011.079.023.159.037.233.017.091.04.176.063.264l.014.048c.011.054.026.108.04.159.034.114.074.224.117.335.014.04.028.08.043.114.045.114.1.23.156.349.011.023.026.048.037.074.063.122.134.247.2.364.006.009.017.026.023.037.08.122.168.25.259.369l.006.009a5.124,5.124,0,0,0,2.95,1.9,5.16,5.16,0,0,0-.344,1.844c0,.167.008.338.025.508.006.068.014.134.028.222l.006.034c.011.08.023.159.037.233.017.091.04.176.063.264l.014.051a1.6,1.6,0,0,0,.043.156c.034.114.071.224.114.335.014.04.028.079.043.114.045.117.1.23.156.349a.608.608,0,0,1,.037.074c.065.125.134.247.207.364.006.008.014.026.02.037.08.125.168.25.259.372l.009.006a5.138,5.138,0,0,0,2.038,1.606,5.138,5.138,0,0,0-.58,2.373c0,.165.008.335.026.506.006.068.017.136.031.225l0,.031c.011.08.023.159.04.236s.037.176.063.264l.011.048c.014.054.026.105.043.159.034.114.074.225.114.335.014.037.028.077.043.111.048.116.1.233.159.35.011.026.023.051.034.074.065.125.134.247.207.364a.372.372,0,0,0,.023.037c.08.125.165.25.259.372l.006.009a5.183,5.183,0,0,0,1.56,1.367,5.139,5.139,0,0,0-1.017,3.066c0,.167.008.338.026.508.006.068.017.134.031.222l0,.034c.011.08.023.159.04.233.017.091.04.179.062.267l.011.048c.014.051.026.105.043.159.034.114.074.225.114.335.014.037.028.077.043.111.048.116.1.233.159.35.011.025.023.051.034.074.065.125.134.247.207.364l.023.037c.08.125.165.25.259.372l.006.009a5.2,5.2,0,0,0,1.1,1.066,5.029,5.029,0,0,0-.9,1.236,5.121,5.121,0,0,0-1.637-.779l-.054-.014c-.119-.028-.239-.057-.355-.08-.048-.008-.1-.017-.148-.023l-.06-.009c-.082-.014-.165-.025-.242-.031a4.774,4.774,0,0,0-.483-.026c-.051,0-.1.006-.148.006a5.521,5.521,0,0,0,.031-.577,5.156,5.156,0,0,0-3.8-4.968l-.06-.017c-.119-.031-.242-.06-.355-.08-.048-.008-.1-.017-.148-.023l-.063-.008a2.384,2.384,0,0,0-.239-.031,4.79,4.79,0,0,0-.486-.026,5.118,5.118,0,0,0-1.9.367,5.151,5.151,0,0,0-3.623-3.618l-.054-.014c-.119-.031-.242-.06-.355-.08-.048-.011-.1-.017-.148-.026l-.062-.008c-.08-.012-.162-.023-.239-.031a4.732,4.732,0,0,0-.486-.023,5.173,5.173,0,0,0-2.455.622,5.473,5.473,0,0,0-.554.35,5.162,5.162,0,0,0-2.975-2.166l-.054-.014c-.119-.031-.239-.06-.355-.08-.048-.009-.1-.017-.145-.023l-.063-.011c-.082-.011-.162-.023-.239-.028a4.788,4.788,0,0,0-.486-.026,5.159,5.159,0,0,0-3.9,1.785,5.141,5.141,0,0,0-2.546-1.6l-.054-.014c-.119-.031-.242-.06-.355-.08-.048-.009-.1-.017-.148-.023l-.063-.011c-.08-.011-.162-.023-.239-.031-.168-.014-.327-.023-.483-.023a5.146,5.146,0,0,0-3.782,1.657,5.138,5.138,0,0,0-2.433-1.475l-.054-.014c-.119-.031-.239-.06-.355-.08-.048-.009-.1-.017-.148-.023l-.06-.011c-.082-.011-.162-.023-.242-.031-.168-.014-.327-.023-.483-.023a5.145,5.145,0,0,0-3.9,1.785,5.167,5.167,0,0,0-2.546-1.6l-.054-.014c-.119-.031-.242-.06-.355-.08l-.148-.026-.063-.008c-.08-.011-.162-.023-.239-.031-.168-.014-.327-.023-.486-.023a5.12,5.12,0,0,0-3.78,1.657,5.139,5.139,0,0,0-2.433-1.475l-.054-.014c-.119-.031-.242-.06-.355-.08l-.148-.026-.063-.008c-.08-.011-.162-.023-.239-.031-.168-.014-.327-.023-.483-.023a5.128,5.128,0,0,0-3.8,1.674,5.151,5.151,0,0,0-2.646-1.722l-.054-.014c-.119-.031-.239-.06-.355-.08-.048-.008-.1-.017-.145-.023l-.063-.009c-.082-.014-.162-.025-.239-.031a4.785,4.785,0,0,0-.486-.026,5.145,5.145,0,0,0-2.455.625l-.009,0a5.166,5.166,0,0,0-3.291-2.737l-.054-.014c-.119-.028-.242-.057-.355-.08-.048-.009-.1-.017-.148-.023l-.063-.009a2.332,2.332,0,0,0-.239-.031,4.683,4.683,0,0,0-.486-.026,5.115,5.115,0,0,0-1.08.119,5.156,5.156,0,0,0-3.76-4.285l-.054-.014c-.119-.031-.239-.06-.355-.079-.048-.011-.1-.017-.145-.026l-.062-.009c-.082-.011-.162-.023-.239-.031s-.139-.011-.207-.014a5.045,5.045,0,0,0,.065-.81,5.153,5.153,0,0,0-3.206-4.76,5.135,5.135,0,0,0-1.213-6.556,5.124,5.124,0,0,0,.989-6.34,5.142,5.142,0,0,0,2.566-5.882,5.162,5.162,0,0,0,4.274-4.575,5.283,5.283,0,0,0,.827.068,5.164,5.164,0,0,0,4.871-3.481,5.157,5.157,0,0,0,6.317-1.52A5.116,5.116,0,0,0,286.669,540.408Zm-8.6-6.206a1.685,1.685,0,0,1,.816-.2c.045,0,.1,0,.154.008l.153.023c.04.006.08.017.136.031a1.714,1.714,0,1,1-1.807,2.691l-.006-.006a1,1,0,0,1-.077-.114.083.083,0,0,1-.011-.017c-.023-.037-.045-.074-.065-.111a.13.13,0,0,0-.017-.034c-.017-.034-.031-.068-.048-.108l-.017-.048a.732.732,0,0,1-.037-.1l-.028-.108c-.006-.02-.011-.04-.014-.046l-.014-.1-.011-.091a1.47,1.47,0,0,1-.009-.154A1.726,1.726,0,0,1,278.07,534.2Zm-7.1,2.978a1.7,1.7,0,0,1,.816-.208q.068,0,.153.009l.154.023.139.031a1.715,1.715,0,1,1-1.81,2.691l-.006-.006-.077-.111a.214.214,0,0,1-.011-.02c-.023-.034-.043-.071-.065-.111a.325.325,0,0,1-.014-.034c-.017-.034-.034-.068-.051-.105l-.017-.051c-.014-.034-.026-.068-.037-.1l-.028-.105a.317.317,0,0,0-.011-.048l-.014-.1-.014-.091c0-.051-.006-.1-.006-.151A1.716,1.716,0,0,1,270.971,537.18Zm-5.954,4.578a1.693,1.693,0,0,1,.816-.2c.045,0,.1,0,.156.008l.153.02c.04.009.077.017.136.034a1.714,1.714,0,1,1-1.81,2.688l0-.006c-.028-.034-.054-.074-.079-.111a.173.173,0,0,0-.011-.017c-.023-.037-.043-.074-.062-.111-.006-.014-.014-.029-.017-.034-.017-.034-.034-.071-.051-.108l-.017-.048c-.011-.034-.026-.068-.037-.1l-.026-.108c-.006-.02-.011-.04-.014-.048l-.014-.1-.014-.088c0-.054-.006-.105-.006-.154A1.726,1.726,0,0,1,265.017,541.758Zm-4.121,6.411a1.7,1.7,0,0,1,.816-.2c.045,0,.1,0,.154.006l.153.023c.04.009.08.017.139.034a1.714,1.714,0,1,1-1.81,2.688l0-.006c-.029-.034-.054-.074-.08-.111l-.011-.02c-.023-.034-.043-.071-.065-.108-.006-.014-.011-.028-.014-.037-.017-.034-.034-.068-.051-.105l-.017-.048c-.014-.034-.026-.068-.037-.105l-.028-.105a.323.323,0,0,0-.011-.048l-.014-.1-.014-.091c0-.051-.006-.1-.006-.151A1.72,1.72,0,0,1,260.9,548.169Z" transform="translate(-254.5 -528.388)" fill="#005894"/>
  </g>
</svg>
