<svg xmlns="http://www.w3.org/2000/svg" width="88.595" height="102.25" viewBox="0 0 88.595 102.25">
  <g id="svgexport-7_19_" data-name="svgexport-7 (19)" transform="translate(0 0)">
    <path id="Path_53577" data-name="Path 53577" d="M39.144,108.1,7.5,99.768V18.058L39.144,9.731Zm0,0" transform="translate(-6.002 -7.788)" fill="#008f7a"/>
    <path id="Path_53578" data-name="Path 53578" d="M13.491,99.768V18.058l25.652-6.75V9.731L7.5,18.058v81.71l31.644,8.327v-1.577Zm0,0" transform="translate(-6.002 -7.788)" fill="#087b6a"/>
    <path id="Path_53579" data-name="Path 53579" d="M102.989,240.738a3.809,3.809,0,1,1-3.808-3.809A3.808,3.808,0,0,1,102.989,240.738Zm0,0" transform="translate(-76.325 -189.613)" fill="#e5ebf5"/>
    <path id="Path_53580" data-name="Path 53580" d="M196.181,187.412H165.949v16.314h30.232v9.127l22.746-17.284-22.746-17.284Zm0,0" transform="translate(-132.808 -142.68)" fill="#d15573"/>
    <path id="Path_53582" data-name="Path 53582" d="M165.949,56.832h20.818V90.214H165.949Zm0,0" transform="translate(-132.808 -45.483)" fill="#e5ebf5"/>
    <path id="Path_53583" data-name="Path 53583" d="M165.949,305.68h20.818v29.854H165.949Zm0,0" transform="translate(-132.808 -244.634)" fill="#e5ebf5"/>
    <path id="Path_53584" data-name="Path 53584" d="M165.949,56.832h5.991V90.214h-5.991Zm0,0" transform="translate(-132.808 -45.483)" fill="#cad8ea"/>
    <path id="Path_53585" data-name="Path 53585" d="M165.949,305.68h5.991v29.854h-5.991Zm0,0" transform="translate(-132.808 -244.634)" fill="#cad8ea"/>
    <path id="Path_53586" data-name="Path 53586" d="M165.949,305.68h14.342v23.378H165.949Zm0,0" transform="translate(-132.808 -244.634)" fill="#72869e"/>
    <path id="Path_53587" data-name="Path 53587" d="M165.949,89.262h14.342v26.906H165.949Zm0,0" transform="translate(-132.808 -71.436)" fill="#72869e"/>
    <path id="Path_53588" data-name="Path 53588" d="M165.949,305.68h5.991v23.378h-5.991Zm0,0" transform="translate(-132.808 -244.634)" fill="#536275"/>
    <path id="Path_53589" data-name="Path 53589" d="M165.949,89.262h5.991v26.906h-5.991Zm0,0" transform="translate(-132.808 -71.436)" fill="#536275"/>
    <path id="Path_53590" data-name="Path 53590" d="M242.269,260.019h-3v-3h3Zm-4.993,0h-3v-3h3Zm0,0" transform="translate(-187.493 -205.694)" fill="#fff"/>
    <path id="Path_53591" data-name="Path 53591" d="M0,93.134l34.639,9.116V0L0,9.115Zm3-81.71L31.644,3.885V98.364L3,90.825Zm0,0" transform="translate(0 0)" fill="#005894"/>
    <path id="Path_53592" data-name="Path 53592" d="M93.178,229.426a5.307,5.307,0,1,0,5.306,5.307,5.313,5.313,0,0,0-5.306-5.307Zm0,7.618a2.311,2.311,0,1,1,2.311-2.311,2.313,2.313,0,0,1-2.311,2.311Zm0,0" transform="translate(-70.322 -183.608)" fill="#005894"/>
    <path id="Path_53593" data-name="Path 53593" d="M207.277,78.62h3V49.332H193.449v3h13.828Zm0,0" transform="translate(-154.816 -39.48)" fill="#005894"/>
    <path id="Path_53594" data-name="Path 53594" d="M207.277,356.444H193.449v3h16.824V333.68h-3Zm0,0" transform="translate(-154.816 -267.042)" fill="#005894"/>
    <path id="Path_53595" data-name="Path 53595" d="M243.411,183.471l-26.72-20.3v10.648H193.449v3h26.238v-7.606l18.772,14.265-18.772,14.265v-7.605H193.449v3h23.243v10.648Zm0,0" transform="translate(-154.816 -130.582)" fill="#005894"/>
    <path id="Path_53596" data-name="Path 53596" d="M200.8,104.572h3V81.761H193.449v3H200.8Zm0,0" transform="translate(-154.816 -65.433)" fill="#005894"/>
    <path id="Path_53597" data-name="Path 53597" d="M203.8,333.68h-3v16.288h-7.351v3H203.8Zm0,0" transform="translate(-154.816 -267.042)" fill="#005894"/>
  </g>
</svg>
