<svg xmlns="http://www.w3.org/2000/svg" xmlns:xlink="http://www.w3.org/1999/xlink" width="74" height="81.005" viewBox="0 0 74 81.005">
  <defs>
    <filter id="Union_1" x="0" y="0" width="74" height="81.005" filterUnits="userSpaceOnUse">
      <feOffset dy="3" input="SourceAlpha"/>
      <feGaussianBlur stdDeviation="3" result="blur"/>
      <feFlood flood-opacity="0.161"/>
      <feComposite operator="in" in2="blur"/>
      <feComposite in="SourceGraphic"/>
    </filter>
    <linearGradient id="linear-gradient" x1="0.5" x2="0.5" y2="1" gradientUnits="objectBoundingBox">
      <stop offset="0" stop-color="#008f7a"/>
      <stop offset="1" stop-color="#005894"/>
    </linearGradient>
  </defs>
  <g id="Mosque_marker" data-name="Mosque marker" transform="translate(9 6)">
    <g id="Group_822" data-name="Group 822" transform="translate(7 12)">
      <g id="Group_820" data-name="Group 820">
        <g id="Group_821" data-name="Group 821" transform="translate(0)">
          <g transform="matrix(1, 0, 0, 1, -16, -18)" filter="url(#Union_1)">
            <path id="Union_1-2" data-name="Union 1" d="M-5895.972,547.5H-5911.5a4,4,0,0,1-4-4v-48a4,4,0,0,1,4-4h48a4,4,0,0,1,4,4v48a4,4,0,0,1-4,4h-16.458l-8.007,7.006Z" transform="translate(5924.5 -485.5)" fill="#fff"/>
          </g>
        </g>
      </g>
    </g>
    <g id="Group_24519" data-name="Group 24519" transform="translate(-1.888 -3.75)">
      <g id="layer1" transform="translate(16.644 11.5)">
        <path id="path3492" d="M15.551,285.358c2.873,4.788,12.641,5.582,12.641,13.243,0,5.746-3.612,7.825-3.612,7.825H6.522S2.91,304.346,2.91,298.6C2.91,290.94,12.678,290.146,15.551,285.358Z" transform="translate(-2.308 -274.64)" fill="url(#linear-gradient)"/>
        <path id="path3494" d="M4.114,294.619H26.988a1.2,1.2,0,0,1,1.2,1.2v2.408H2.91v-2.408a1.2,1.2,0,0,1,1.2-1.2Z" transform="translate(-2.308 -262.832)" fill="#008f7a"/>
        <path id="path3534" d="M10.1,280.914a4.211,4.211,0,1,0,5.08,5.079,3.609,3.609,0,0,1-5.08-5.079Z" transform="translate(2.752 -280.306)" fill="#008f7a"/>
        <path id="path13165-2" d="M15.492,280.647a4.8,4.8,0,0,0-.2,9.354v1.183c-1.332,2.077-4.3,3.5-7.116,5.216-3.125,1.912-5.5,4.3-5.526,8.208a10.788,10.788,0,0,0,1.534,5.845.6.6,0,1,0,1.024-.633,9.44,9.44,0,0,1-1.354-5.213c.045-3.688,2.458-5.615,4.96-7.188s5.381-2.8,7.079-5.017c1.7,2.217,4.406,3.283,7.079,5.017,2.725,1.768,5.02,3.685,4.96,7.188-.049,2.867-.895,5.447-3.184,7.222H4.449a1.816,1.816,0,0,0-1.8,1.809v2.4a.6.6,0,0,0,.6.6H28.529a.6.6,0,0,0,.6-.6v-2.4a1.82,1.82,0,0,0-1.808-1.809h-.781a10.387,10.387,0,0,0,2.586-7.222c-.051-4.156-2.652-6.4-5.526-8.208-2.79-1.754-5.781-3.138-7.114-5.213v-1.028a4.8,4.8,0,0,0,4.639-3.547.609.609,0,0,0-.929-.745,3.008,3.008,0,0,1-4.235-4.23.6.6,0,0,0-.475-.99ZM14.2,282.573a4.194,4.194,0,0,0,5.067,5.065,3.6,3.6,0,1,1-5.067-5.065Zm-9.75,30.461H27.325a.593.593,0,0,1,.6.606v1.8H3.85v-1.8a.589.589,0,0,1,.6-.606Z" transform="translate(-2.646 -280.647)" fill="#005894"/>
      </g>
    </g>
  </g>
</svg>
