<svg xmlns="http://www.w3.org/2000/svg" width="87.167" height="87.167" viewBox="0 0 87.167 87.167">
  <g id="Group_28913" data-name="Group 28913" transform="translate(0)">
    <path id="Path_52574" data-name="Path 52574" d="M316.588,401.7h1.7v11.917h-1.7Z" transform="translate(-264.321 -371.615)" fill="#005894"/>
    <path id="Path_52576" data-name="Path 52576" d="M308.6,398.169h6.81v35.753H308.6Z" transform="translate(-278.802 -378.011)" fill="rgba(0,109,168,0.09)"/>
    <path id="Path_52577" data-name="Path 52577" d="M307.082,407.856h44.264v23.836H307.082Z" transform="translate(-281.545 -360.46)" fill="rgba(0,109,168,0.09)"/>
    <path id="Path_52578" data-name="Path 52578" d="M307.082,413.608h44.264v7.662H307.082Z" transform="translate(-281.545 -350.038)" fill="rgba(0,109,168,0.09)"/>
    <path id="Path_52579" data-name="Path 52579" d="M308.172,403.012h9.192v3.405h-9.192Z" transform="translate(-279.57 -369.236)" fill="#005894"/>
    <path id="Path_52580" data-name="Path 52580" d="M308.172,398.169h9.192v3.405h-9.192Z" transform="translate(-279.57 -378.011)" fill="#005894"/>
    <path id="Path_52582" data-name="Path 52582" d="M324.875,403.467a12.351,12.351,0,0,0-12.344,12.341h24.685A12.348,12.348,0,0,0,324.875,403.467Z" transform="translate(-271.672 -368.412)" fill="#008f7a"/>
    <path id="Path_52585" data-name="Path 52585" d="M319.664,410.884a4.257,4.257,0,0,0-4.257,4.254v11.067h8.514V415.138A4.259,4.259,0,0,0,319.664,410.884Z" transform="translate(-266.461 -354.973)" fill="#005894"/>
    <path id="Path_52586" data-name="Path 52586" d="M325.567,410.884a4.259,4.259,0,0,0-4.257,4.254v11.067h4.257Z" transform="translate(-255.766 -354.973)" fill="#005894"/>
    <path id="Path_52587" data-name="Path 52587" d="M313.761,410.884a4.257,4.257,0,0,0-4.257,4.254v11.067h8.511V415.138A4.257,4.257,0,0,0,313.761,410.884Z" transform="translate(-277.156 -354.973)" fill="#005894"/>
    <path id="Path_52588" data-name="Path 52588" d="M348.7,461.444a35.014,35.014,0,0,1-3.577-69.852c-1.327-.121-2.742-.29-4.086-.29a42.732,42.732,0,1,0,42.731,42.732c0-1.344-.222-2.638-.34-3.968A34.889,34.889,0,0,1,348.7,461.444Z" transform="translate(-297.451 -390.451)" fill="#006da8"/>
    <path id="Path_52589" data-name="Path 52589" d="M383.766,434.034A42.731,42.731,0,1,1,341.034,391.3c.681,0,1.361.051,2.061.1a.13.13,0,0,1-.017.051A38.845,38.845,0,1,0,383.6,432.06a.074.074,0,0,0,.051-.017A19.418,19.418,0,0,1,383.766,434.034Z" transform="translate(-297.451 -390.451)" fill="#0477b6"/>
    <path id="Path_52590" data-name="Path 52590" d="M308.6,399.38h6.81v3.405H308.6Z" transform="translate(-278.802 -375.817)" fill="rgba(0,109,168,0.09)"/>
    <path id="Path_52591" data-name="Path 52591" d="M308.6,404.223h6.81v3.405H308.6Z" transform="translate(-278.802 -367.042)" fill="rgba(0,109,168,0.09)"/>
    <path id="Path_52592" data-name="Path 52592" d="M341.583,478.167a43.584,43.584,0,0,1,0-87.167c1.142,0,2.314.118,3.439.222.239.017.495.051.731.067a.838.838,0,0,1,.768.852.849.849,0,0,1-.768.849,34.08,34.08,0,0,0-30.4,29.215l-1.687-.239A35.9,35.9,0,0,1,338.3,392.822,41.886,41.886,0,1,0,383.328,437.9a35.864,35.864,0,0,1-69.562-5.278l1.684-.273a34.139,34.139,0,0,0,67.673-1.822.857.857,0,0,1,1.7,0c.034.391.084.782.118,1.175a25.156,25.156,0,0,1,.222,2.86,43.624,43.624,0,0,1-43.583,43.6Z" transform="translate(-298 -391)" fill="#005894"/>
    <path id="Path_52593" data-name="Path 52593" d="M352.747,423.216h-1.7V409.255H308.483V420.73h-1.7V408.4a.844.844,0,0,1,.852-.849h44.264a.842.842,0,0,1,.852.849Z" transform="translate(-282.094 -361.007)" fill="#005894"/>
    <path id="Path_52594" data-name="Path 52594" d="M315.955,415.837h-6.81a.843.843,0,0,1-.852-.852V404.77a.842.842,0,0,1,.852-.849h6.81a.841.841,0,0,1,.849.849v10.215A.842.842,0,0,1,315.955,415.837Zm-5.961-1.7H315.1v-8.511h-5.109Z" transform="translate(-279.351 -367.589)" fill="#005894"/>
    <path id="Path_52595" data-name="Path 52595" d="M315.955,410.993h-6.81a.842.842,0,0,1-.852-.849V399.929a.843.843,0,0,1,.852-.852h6.81a.842.842,0,0,1,.849.852v10.215A.841.841,0,0,1,315.955,410.993Zm-5.961-1.7H315.1v-8.514h-5.109Z" transform="translate(-279.351 -376.366)" fill="#005894"/>
    <path id="Path_52596" data-name="Path 52596" d="M317.913,407.816h-9.192a.843.843,0,0,1-.852-.852v-3.4a.843.843,0,0,1,.852-.852h9.192a.842.842,0,0,1,.852.852v3.4A.842.842,0,0,1,317.913,407.816Zm-8.34-1.7h7.491v-1.7h-7.491Z" transform="translate(-280.119 -369.783)" fill="#005894"/>
    <path id="Path_52597" data-name="Path 52597" d="M317.913,402.972h-9.192a.842.842,0,0,1-.852-.849v-3.405a.843.843,0,0,1,.852-.852h9.192a.843.843,0,0,1,.852.852v3.405A.842.842,0,0,1,317.913,402.972Zm-8.34-1.7h7.491v-1.7h-7.491Z" transform="translate(-280.119 -378.56)" fill="#005894"/>
    <path id="Path_52600" data-name="Path 52600" d="M337.766,417.209H313.078a.842.842,0,0,1-.849-.852,13.193,13.193,0,0,1,26.386,0A.842.842,0,0,1,337.766,417.209Zm-23.8-1.7H336.88a11.489,11.489,0,0,0-22.916,0Z" transform="translate(-272.219 -368.961)" fill="#005894"/>
    <path id="Path_52603" data-name="Path 52603" d="M316.808,426.4h-1.7v-10.71a5.108,5.108,0,0,1,10.215,0V425.92h-1.7V415.687a3.405,3.405,0,0,0-6.81,0Z" transform="translate(-267.01 -355.522)" fill="#005894"/>
    <path id="Path_52604" data-name="Path 52604" d="M322.709,423.417h-1.7v-7.73a5.121,5.121,0,0,1,5.106-5.106v1.7a3.415,3.415,0,0,0-3.405,3.405Z" transform="translate(-256.313 -355.522)" fill="#005894"/>
    <path id="Path_52605" data-name="Path 52605" d="M319.416,424.9h-1.7v-9.212a3.405,3.405,0,0,0-6.81,0v5.261h-1.7v-5.261a5.108,5.108,0,0,1,10.215,0Z" transform="translate(-277.706 -355.522)" fill="#005894"/>
    <path id="Path_52606" data-name="Path 52606" d="M316.588,401.7h1.7v5.106h-1.7Z" transform="translate(-264.321 -371.615)" fill="#005894"/>
  </g>
</svg>
