<svg xmlns="http://www.w3.org/2000/svg" xmlns:xlink="http://www.w3.org/1999/xlink" width="96.621" height="96.621" viewBox="0 0 96.621 96.621">
  <defs>
    <clipPath id="clip-path">
      <rect id="Rectangle_2479" data-name="Rectangle 2479" width="96.621" height="96.621" fill="#fff"/>
    </clipPath>
  </defs>
  <g id="Group_8576" data-name="Group 8576" clip-path="url(#clip-path)">
    <path id="Path_52609" data-name="Path 52609" d="M112.787,553.728v-10.79l7.281-10.333,7.281,10.333v70H112.787V559.758" transform="translate(-38.085 -523.781)" fill="rgba(0,88,148,0.17)"/>
    <path id="Path_52610" data-name="Path 52610" d="M120.068,532.6l-2.643,10.333v70h-4.638v-70Z" transform="translate(-38.085 -523.781)" fill="rgba(0,88,148,0.11)"/>
    <path id="Path_52611" data-name="Path 52611" d="M143.613,549.217H95.629l-7.289,7.224v31.93H150.9v-31.93Z" transform="translate(-83.112 -493.185)" fill="rgba(0,88,148,0.17)"/>
    <path id="Path_52612" data-name="Path 52612" d="M105.094,549.217l-4.414,7.224v31.93H88.34v-31.93l7.29-7.224Z" transform="translate(-83.112 -493.185)" fill="rgba(0,88,148,0.11)"/>
    <path id="Path_52613" data-name="Path 52613" d="M145.081,559.9l-.486,3.038a16.461,16.461,0,0,1-3.271,5.883H93.339a16.436,16.436,0,0,1-3.271-5.883l-.485-3.038a9.48,9.48,0,0,1,1.142-4.646c3.647-6.778,26.606-16.684,26.606-16.684a.2.2,0,0,0,.063.031c1.346.58,23.006,10.094,26.542,16.65A9.5,9.5,0,0,1,145.081,559.9Z" transform="translate(-80.822 -512.791)" fill="#005894"/>
    <path id="Path_52614" data-name="Path 52614" d="M89.583,559.882l.485,3.038A16.432,16.432,0,0,0,93.34,568.8h12.833a19.343,19.343,0,0,1-3.9-11.737c0-8.107,13.944-17.747,14.993-18.483-1.346.58-23.006,10.094-26.543,16.65A9.492,9.492,0,0,0,89.583,559.882Z" transform="translate(-80.822 -512.771)" fill="#006da8"/>
    <path id="Path_52615" data-name="Path 52615" d="M96.3,579.722v-17l8.654-8.809,8.656,8.809v17" transform="translate(-68.447 -484.536)" fill="#008f7a"/>
    <path id="Path_52616" data-name="Path 52616" d="M110.024,543.672a8.359,8.359,0,0,1-6.533-13.578,9.8,9.8,0,1,0,11.75,11.751A8.34,8.34,0,0,1,110.024,543.672Z" transform="translate(-69.187 -528.406)" fill="#008f7a"/>
    <path id="Path_52617" data-name="Path 52617" d="M130.856,560.873H112.038v6.03h18.818Z" transform="translate(-39.464 -471.717)" fill="#fff"/>
    <path id="Path_52618" data-name="Path 52618" d="M118.892,560.873h-6.854v6.03h6.854Z" transform="translate(-39.464 -471.717)" fill="#fff"/>
    <path id="Path_52619" data-name="Path 52619" d="M130.856,540.038H112.038v6.03h18.818Z" transform="translate(-39.464 -510.091)" fill="#fff"/>
    <path id="Path_52620" data-name="Path 52620" d="M118.892,540.038h-6.854v6.03h6.854Z" transform="translate(-39.464 -510.091)" fill="#fff"/>
    <path id="Path_52621" data-name="Path 52621" d="M120.874,539.819l-3.353-2.592-3.35,2.592v5.4h6.7Z" transform="translate(-35.538 -515.268)" fill="#005894"/>
    <path id="Path_52622" data-name="Path 52622" d="M114.284,556.1l-4.913-3.8-4.913,3.8v7.909h9.827Z" transform="translate(-53.427 -487.512)" fill="#008f7a"/>
    <path id="Path_52623" data-name="Path 52623" d="M100.6,556.1l-4.913-3.8-4.913,3.8v7.909H100.6Z" transform="translate(-78.617 -487.512)" fill="#008f7a"/>
    <path id="Path_52624" data-name="Path 52624" d="M131.093,570.112v-3.2h.693a1.435,1.435,0,0,0,1.435-1.435v-6.03a1.435,1.435,0,0,0-1.435-1.435h-.693v-9.355a1.435,1.435,0,0,0-.261-.827l-7.019-9.961v-6.874a1.477,1.477,0,0,0-1.39-1.495,1.438,1.438,0,0,0-1.481,1.435v6.934l-7.016,9.961a1.435,1.435,0,0,0-.261.827v9.355h-.7a1.435,1.435,0,0,0-1.435,1.435v6.03a1.435,1.435,0,0,0,1.435,1.435h.7v50.308h-.7a1.435,1.435,0,0,0-1.435,1.435v6.03a1.435,1.435,0,0,0,1.435,1.435h18.818a1.435,1.435,0,0,0,1.435-1.435v-6.03a1.435,1.435,0,0,0-1.435-1.435h-.693V576.81a1.435,1.435,0,0,0-2.87,0v40.41H116.535V566.912h11.688v3.2a1.435,1.435,0,0,0,2.87,0Zm-1.435,49.979h.693v3.16H114.4v-3.16h15.255ZM114.4,560.882h15.951v3.16H114.4v-3.16Zm9.892-2.87h-3.834v-3.257l1.915-1.484,1.918,1.484Zm-7.764-8.9,5.846-8.3,5.846,8.3v8.9h-1.06V554.05a1.432,1.432,0,0,0-.557-1.134l-3.35-2.592a1.433,1.433,0,0,0-1.756,0l-3.35,2.592a1.432,1.432,0,0,0-.557,1.134v3.962h-1.06v-8.9Z" transform="translate(-40.394 -529.5)" fill="#005894"/>
    <path id="Path_52625" data-name="Path 52625" d="M109.422,552.093l-4.913,3.8a1.442,1.442,0,0,0-.557,1.137v7.909a1.438,1.438,0,0,0,1.435,1.435h9.827a1.437,1.437,0,0,0,1.435-1.435v-7.909a1.442,1.442,0,0,0-.557-1.137l-4.913-3.8A1.433,1.433,0,0,0,109.422,552.093Zm4.356,11.41h-6.957v-5.772l3.478-2.688,3.478,2.688V563.5Z" transform="translate(-54.357 -488.442)" fill="#005894"/>
    <path id="Path_52626" data-name="Path 52626" d="M102.413,555.892l-4.913-3.8a1.433,1.433,0,0,0-1.756,0l-4.913,3.8a1.437,1.437,0,0,0-.557,1.137v7.909a1.437,1.437,0,0,0,1.435,1.435h9.825a1.437,1.437,0,0,0,1.435-1.435v-7.909A1.437,1.437,0,0,0,102.413,555.892ZM100.1,563.5H93.145v-5.772l3.477-2.688,3.478,2.688Z" transform="translate(-79.547 -488.442)" fill="#005894"/>
    <path id="Path_52627" data-name="Path 52627" d="M146.47,585.26a17.665,17.665,0,0,0,2.72-5.374,1.233,1.233,0,0,0,.04-.176l.486-3.035a1.351,1.351,0,0,0,.017-.213,10.962,10.962,0,0,0-1.313-5.343c-3.5-6.5-22.24-15.078-26.434-16.937v-2.472a11.169,11.169,0,0,0,9.508-8.614,1.437,1.437,0,0,0-2.3-1.444,6.844,6.844,0,0,1-4.32,1.515,6.934,6.934,0,0,1-6.928-6.926,6.855,6.855,0,0,1,1.516-4.322,1.434,1.434,0,0,0-1.443-2.293,11.228,11.228,0,0,0,1.093,22.078v2.478c-1.848.824-6.4,2.907-11.179,5.471-8.475,4.547-13.607,8.406-15.257,11.472a10.957,10.957,0,0,0-1.312,5.34,1.454,1.454,0,0,0,.018.21l.485,3.035a1.451,1.451,0,0,0,.04.176,17.715,17.715,0,0,0,2.72,5.374l-6.371,6.312a1.437,1.437,0,0,0-.425,1.02v31.93a1.435,1.435,0,0,0,1.435,1.435h62.563a1.435,1.435,0,0,0,1.435-1.435v-31.93a1.434,1.434,0,0,0-.426-1.02Zm-34.281-44.693a8.328,8.328,0,0,1,3.149-6.55A9.795,9.795,0,0,0,127.1,545.781a8.37,8.37,0,0,1-14.911-5.215Zm15.582,82.52h-14.44V608.11l7.22-7.349,7.22,7.349Zm22.626,0H130.641V607.522a1.438,1.438,0,0,0-.412-1.006l-8.632-8.784a1.433,1.433,0,0,0-2.07-.026l-8.655,8.809a1.44,1.44,0,0,0-.411,1.006v15.565H90.7v-29.9L97.15,586.8h13.138a1.435,1.435,0,0,0,0-2.87H97.23a15.112,15.112,0,0,1-2.54-4.766l-.453-2.836a8.007,8.007,0,0,1,.972-3.851c2.714-5.044,18.679-12.87,25.336-15.795,1.561.688,6.561,2.947,11.833,5.809,4.294,2.33,11.757,6.724,13.513,9.983a8.018,8.018,0,0,1,.975,3.853l-.455,2.836a15.127,15.127,0,0,1-2.538,4.766H116.984a1.435,1.435,0,0,0,0,2.87h26.969l6.445,6.388v29.9Z" transform="translate(-84.042 -529.336)" fill="#005894"/>
  </g>
</svg>
