<svg xmlns="http://www.w3.org/2000/svg" width="295.693" height="184.953" viewBox="0 0 295.693 184.953">
  <g id="Group_28798" data-name="Group 28798" transform="translate(-3636.641 -5139.947)">
    <path id="Path_11785" data-name="Path 11785" d="M469.577,735.117s21.242,5.044,31.692-17.771c13.559-29.595-5.478-57.725-38.308-59.75-47.366-2.911-21.116-78.533-95.852-58.014-21.007,5.767-66.71-24.008-93.611,26.449-4.574,8.587-18.259,8.153-36.483,22.8-32.144,25.816-20.573,86.578,6.508,86.849S469.577,735.117,469.577,735.117Z" transform="translate(3422.188 4589.132)" fill="rgba(42,113,196,0.07)"/>
    <path id="Path_11789" data-name="Path 11789" d="M1267.8,1297.008s2.983-10.4,6.49-9.166S1267.8,1297.008,1267.8,1297.008Z" transform="translate(2561.811 4022.468)" fill="#b3c2d2"/>
    <path id="Path_11790" data-name="Path 11790" d="M1282.9,1318.843s7.629-5.008,9.292-3.471S1282.9,1318.843,1282.9,1318.843Z" transform="translate(2549.441 4000.073)" fill="#b3c2d2"/>
    <path id="Path_11791" data-name="Path 11791" d="M683.6,1075.5s-6.581-7.448-.4-12.2c0,0,4.5-2.658,8.19-2.441,0,0-5.225,8.5-3.525,9.347s5.1-9.871,5.1-9.871,10.287-.976,13.577.578c0,0-8.768,6.978-6.924,7.394s11.335-6.436,11.335-6.436,9.564,1.573,9.057,7.25-3.815,7.412-5.261,7.249-9.925-3.29-10.106-2.133,4.917,4.917,8.5,5.1c0,0-6.743,7.213-11.227,5.134s-4.863-5.387-7.665-6.617-5.17-1.247-4.013.018,6.2,2.495,7.81,5.243,3.019,4.592-1.609,3.905-12.167-3.959-12.51-7.738Z" transform="translate(3042.895 4209.015)" fill="#3a3a5b"/>
    <path id="Path_11792" data-name="Path 11792" d="M702.895,1110.9s-25.979-.976-31.71,6.237a18.2,18.2,0,0,1-5.171,7.051l-.615,1.609s4.5-4.61,6.111-4.881C671.511,1120.915,669,1111.984,702.895,1110.9Z" transform="translate(3055.306 4167.376)" fill="#3a3a5b"/>
    <path id="Path_11793" data-name="Path 11793" d="M641.766,1181.73a15.818,15.818,0,0,0-5.966,11.154l1.012.09s1.79-7.394,5.008-10.287S641.766,1181.73,641.766,1181.73Z" transform="translate(3079.555 4109.833)" fill="#3a3a5b"/>
    <path id="Path_11794" data-name="Path 11794" d="M395.877,974.3s10.486-5.695,5.586-13.432c0,0-3.9-4.755-8.1-5.966,0,0,2.242,11.534,0,11.805s-1.537-13.035-1.537-13.035-11.028-5.152-15.367-4.737c0,0,6.852,11.263,4.61,10.992s-9.925-11.679-9.925-11.679-11.317-2.025-13.125,4.483,1.121,9.762,2.8,10.178,12.42.271,12.149,1.627-7.539,3.525-11.606,2.3c0,0,4.483,10.721,10.341,10.178s7.683-4.068,11.317-4.339,6.291.687,4.484,1.627-7.973.307-10.9,2.73-5.315,3.923.145,5.008,15.222.4,17.175-3.67Z" transform="translate(3307.582 4300.828)" fill="#3a3a5b"/>
    <path id="Path_11795" data-name="Path 11795" d="M389.2,985.6s29.341,9.238,32.686,19.543a21.047,21.047,0,0,0,2.8,9.907v2.043s-3.073-6.924-4.755-7.882C419.934,1009.211,426.5,1000.262,389.2,985.6Z" transform="translate(3281.573 4269.986)" fill="#3a3a5b"/>
    <path id="Path_11796" data-name="Path 11796" d="M579.2,1142.766a18.326,18.326,0,0,1,1.934,14.788l-1.157-.289s1.121-8.949-1.229-13.451S579.2,1142.766,579.2,1142.766Z" transform="translate(3127.064 4142.271)" fill="#3a3a5b"/>
    <path id="Path_11797" data-name="Path 11797" d="M621.074,892.817s-13.812-7.5-7.358-17.7c0,0,5.152-6.255,10.684-7.864,0,0-2.947,15.2,0,15.548s2.025-17.157,2.025-17.157,14.535-6.8,20.248-6.273c0,0-9.021,14.843-6.074,14.5s13.071-15.385,13.071-15.385,14.915-2.694,17.319,5.894-1.482,12.89-3.688,13.414-16.4.362-16.018,2.151,9.943,4.646,15.276,3.037c0,0-5.894,14.137-13.631,13.414s-10.124-5.369-14.915-5.713-8.28.886-5.894,2.133,10.5.416,14.372,3.616,7,5.152-.181,6.581-20.085.542-22.652-4.827Z" transform="translate(3099.053 4374.448)" fill="#3a3a5b"/>
    <path id="Path_11798" data-name="Path 11798" d="M688.669,907.8s-38.67,12.167-43.1,25.744a28.032,28.032,0,0,1-3.67,13.071v2.676s4.05-9.13,6.255-10.377C648.155,938.913,639.5,927.108,688.669,907.8Z" transform="translate(3074.558 4333.722)" fill="#3a3a5b"/>
    <path id="Path_11799" data-name="Path 11799" d="M625.524,1114.924s-5.966,8.786-2.567,19.489l1.537-.4s-1.5-11.787,1.627-17.717S625.524,1114.924,625.524,1114.924Z" transform="translate(3090.934 4165.412)" fill="#3a3a5b"/>
    <path id="Path_11800" data-name="Path 11800" d="M537.046,1239.686c14.951,0,27.064-11.769,27.064-26.286H510C510,1227.917,522.113,1239.686,537.046,1239.686Z" transform="translate(3182.612 4083.369)" fill="#3a3a5b"/>
    <path id="Path_11801" data-name="Path 11801" d="M558.626,1239.487a29.482,29.482,0,0,1-3.363.2c-14.951,0-27.064-11.769-27.064-26.286h6.725C534.925,1226.814,545.266,1237.878,558.626,1239.487Z" transform="translate(3167.702 4083.369)" fill="#3a3a5b"/>
    <path id="Path_11802" data-name="Path 11802" d="M562.768,1351.453H507.9a3.308,3.308,0,0,1,3.345-3.254h48.179A3.308,3.308,0,0,1,562.768,1351.453Z" transform="translate(3184.333 3972.94)" fill="#3a3a5b"/>
    <rect id="Rectangle_8544" data-name="Rectangle 8544" width="55.61" height="0.806" transform="translate(3691.726 5296.77)" fill="#3a3a5b"/>
    <path id="Path_11803" data-name="Path 11803" d="M1194.176,602.078s-4.737-8.7,2.35-12c0,0,5.008-1.627,8.551-.633,0,0-7.014,7.177-5.55,8.37s7.213-8.551,7.213-8.551,10.25,1.247,13.125,3.471c0,0-10.16,4.935-8.443,5.731s12.51-3.869,12.51-3.869,8.967,3.58,7.2,9-5.387,6.418-6.761,5.966-8.931-5.315-9.383-4.23,3.688,5.839,7.141,6.779c0,0-8.208,5.6-12.113,2.6s-3.525-6.291-5.966-8.081-4.773-2.314-3.941-.832,5.5,3.742,6.436,6.761,1.916,5.134-2.459,3.489-10.974-6.472-10.449-10.232Z" transform="translate(2623.395 4594.789)" fill="#3a3a5b"/>
    <path id="Path_11804" data-name="Path 11804" d="M1199.135,650.482s-25.129-6.49-32.343-.669a18.623,18.623,0,0,1-6.635,5.767l-.958,1.446s5.424-3.543,7.051-3.471C1166.251,653.556,1165.817,644.3,1199.135,650.482Z" transform="translate(2650.778 4547.054)" fill="#3a3a5b"/>
    <path id="Path_11805" data-name="Path 11805" d="M1126.652,691.16a16.118,16.118,0,0,0-8.352,9.618l.976.307s3.4-6.834,7.2-8.985S1126.652,691.16,1126.652,691.16Z" transform="translate(2684.284 4511.474)" fill="#3a3a5b"/>
    <path id="Path_11806" data-name="Path 11806" d="M985.7,411.761s-14.047-7.1-7.918-17.482c0,0,4.972-6.4,10.431-8.172,0,0-2.477,15.276.488,15.548s1.5-17.211,1.5-17.211,14.336-7.213,20.049-6.852c0,0-8.569,15.1-5.622,14.662s12.6-15.764,12.6-15.764,14.824-3.109,17.482,5.405-1.085,12.908-3.272,13.523-16.379.832-15.945,2.6,10.07,4.357,15.367,2.6c0,0-5.46,14.282-13.215,13.794s-10.287-5.062-15.077-5.279-8.262,1.121-5.839,2.314,10.522.108,14.481,3.182,7.141,4.954.018,6.6-20.049,1.1-22.8-4.176Z" transform="translate(2800.664 4769.433)" fill="#3a3a5b"/>
    <path id="Path_11807" data-name="Path 11807" d="M1055.958,424.8s-38.272,13.288-42.268,26.991a27.936,27.936,0,0,1-3.29,13.161l.09,2.676s3.76-9.22,5.93-10.54C1016.42,457.088,1007.417,445.536,1055.958,424.8Z" transform="translate(2772.677 4729.402)" fill="#3a3a5b"/>
    <path id="Path_11808" data-name="Path 11808" d="M995.745,639.093s-5.695,8.967-1.971,19.579l1.537-.452s-1.862-11.751,1.085-17.771S995.745,639.093,995.745,639.093Z" transform="translate(2787.332 4555.262)" fill="#3a3a5b"/>
    <path id="Path_11809" data-name="Path 11809" d="M603.579,545.3s-14.21-.669-6.671,41.038c0,0,5.08,14.174-1.32,23.285h94.28V545.3Z" transform="translate(3113.223 4630.689)" fill="#3a3a5b" opacity="0.4"/>
    <path id="Path_11810" data-name="Path 11810" d="M633.579,515.3s-14.21-.687-6.671,42.629c0,0,5.08,14.716-1.32,24.189h94.28V515.3Z" transform="translate(3088.646 4655.266)" fill="#3a3a5b"/>
    <path id="Path_11811" data-name="Path 11811" d="M713.6,1066.229s-6.581-7.683-.4-12.564c0,0,4.5-2.73,8.19-2.513,0,0-5.225,8.75-3.525,9.618s5.1-10.16,5.1-10.16,10.287-.994,13.577.6c0,0-8.768,7.177-6.924,7.611s11.335-6.635,11.335-6.635,9.563,1.627,9.057,7.466-3.815,7.629-5.261,7.484-9.925-3.4-10.106-2.206,4.917,5.062,8.5,5.243c0,0-6.743,7.43-11.227,5.3s-4.863-5.55-7.665-6.834-5.171-1.266-4.013.036,6.2,2.567,7.81,5.387,3.019,4.737-1.609,4.032-12.167-4.086-12.51-7.973Z" transform="translate(3018.318 4216.981)" fill="#599dad"/>
    <path id="Path_11812" data-name="Path 11812" d="M732.895,1102.69s-25.979-1.012-31.71,6.418a18.83,18.83,0,0,1-5.17,7.267l-.615,1.645s4.5-4.737,6.111-5.026C701.511,1112.994,699,1103.792,732.895,1102.69Z" transform="translate(3030.73 4174.103)" fill="#599dad"/>
    <path id="Path_11813" data-name="Path 11813" d="M671.766,1175.608a16.339,16.339,0,0,0-5.966,11.48l1.012.09s1.79-7.611,5.008-10.594S671.766,1175.608,671.766,1175.608Z" transform="translate(3054.979 4114.87)" fill="#86a8d1"/>
    <path id="Path_11814" data-name="Path 11814" d="M425.877,962.022s10.486-5.875,5.586-13.83c0,0-3.9-4.9-8.1-6.147,0,0,2.242,11.859,0,12.149s-1.537-13.414-1.537-13.414-11.028-5.315-15.367-4.881c0,0,6.852,11.588,4.61,11.3s-9.925-12-9.925-12-11.317-2.1-13.125,4.61,1.121,10.052,2.8,10.468,12.42.289,12.149,1.681-7.539,3.634-11.606,2.386c0,0,4.483,11.028,10.341,10.467s7.683-4.194,11.317-4.465,6.291.687,4.483,1.681-7.973.307-10.9,2.8-5.315,4.031.145,5.152,15.222.416,17.175-3.778Z" transform="translate(3283.006 4311.535)" fill="#b3c2d2"/>
    <path id="Path_11815" data-name="Path 11815" d="M419.2,973.7s29.341,9.491,32.686,20.121a22.19,22.19,0,0,0,2.8,10.2v2.1s-3.073-7.123-4.755-8.117C449.934,998,456.5,988.778,419.2,973.7Z" transform="translate(3256.997 4279.735)" fill="#86a8d1"/>
    <path id="Path_11816" data-name="Path 11816" d="M609.2,1135.435a19.322,19.322,0,0,1,1.934,15.222l-1.157-.307s1.121-9.2-1.229-13.848S609.2,1135.435,609.2,1135.435Z" transform="translate(3102.488 4148.318)" fill="#86a8d1"/>
    <path id="Path_11817" data-name="Path 11817" d="M651.074,878.1s-13.812-7.738-7.358-18.223c0,0,5.152-6.454,10.684-8.117,0,0-2.947,15.656,0,16.036s2.025-17.681,2.025-17.681,14.535-7,20.248-6.454c0,0-9.021,15.294-6.074,14.915s13.071-15.837,13.071-15.837,14.915-2.766,17.319,6.074-1.482,13.27-3.688,13.812-16.4.38-16.018,2.224,9.943,4.773,15.276,3.128c0,0-5.894,14.535-13.631,13.812s-10.124-5.532-14.915-5.894-8.28.922-5.894,2.206,10.5.416,14.372,3.706,7,5.315-.181,6.8-20.085.542-22.652-4.972Z" transform="translate(3074.477 4387.353)" fill="#b3c2d2"/>
    <path id="Path_11818" data-name="Path 11818" d="M718.669,893.5s-38.67,12.528-43.1,26.521a29.558,29.558,0,0,1-3.67,13.45v2.748s4.05-9.383,6.255-10.666C678.155,925.553,669.5,913.386,718.669,893.5Z" transform="translate(3049.981 4345.436)" fill="#86a8d1"/>
    <path id="Path_11819" data-name="Path 11819" d="M655.524,1106.776s-5.966,9.057-2.567,20.067l1.537-.4s-1.5-12.149,1.627-18.259S655.524,1106.776,655.524,1106.776Z" transform="translate(3066.357 4172.131)" fill="#86a8d1"/>
    <path id="Path_11820" data-name="Path 11820" d="M567.045,1235.263a27.064,27.064,0,0,0,27.064-27.063H540A27.046,27.046,0,0,0,567.045,1235.263Z" transform="translate(3158.036 4087.629)" fill="#765d63"/>
    <path id="Path_11821" data-name="Path 11821" d="M588.626,1235.047a25.875,25.875,0,0,1-3.363.217A27.064,27.064,0,0,1,558.2,1208.2h6.725A27.046,27.046,0,0,0,588.626,1235.047Z" transform="translate(3143.126 4087.629)" fill="#ffccbe"/>
    <path id="Path_11822" data-name="Path 11822" d="M592.768,1350.344H537.9a3.344,3.344,0,0,1,3.344-3.344h48.179A3.345,3.345,0,0,1,592.768,1350.344Z" transform="translate(3159.756 3973.922)" fill="#765d63"/>
    <rect id="Rectangle_8545" data-name="Rectangle 8545" width="55.61" height="0.83" transform="translate(3697.15 5295.829)" fill="#765d63"/>
    <rect id="Rectangle_8546" data-name="Rectangle 8546" width="96.774" height="123.585" transform="translate(3726.003 5200.682)" fill="#3a3a5b" opacity="0.4"/>
    <path id="Path_11823" data-name="Path 11823" d="M1224.176,578.784s-4.737-8.949,2.35-12.348c0,0,5.008-1.681,8.551-.651,0,0-7.014,7.394-5.55,8.605s7.213-8.786,7.213-8.786,10.251,1.284,13.125,3.561c0,0-10.16,5.08-8.443,5.894s12.51-3.977,12.51-3.977,8.967,3.688,7.2,9.274-5.387,6.617-6.761,6.147-8.931-5.5-9.383-4.375,3.688,6.02,7.141,6.978c0,0-8.208,5.785-12.113,2.694s-3.525-6.472-5.966-8.334-4.773-2.368-3.941-.85,5.5,3.869,6.436,6.978,1.916,5.279-2.459,3.58-10.974-6.671-10.449-10.522Z" transform="translate(2598.819 4614.178)" fill="#b3c2d2"/>
    <path id="Path_11824" data-name="Path 11824" d="M1229.135,628.593s-25.129-6.671-32.343-.687a18.817,18.817,0,0,1-6.635,5.948l-.958,1.482s5.424-3.634,7.051-3.561C1196.251,631.775,1195.817,622.247,1229.135,628.593Z" transform="translate(2626.202 4565.057)" fill="#86a8d1"/>
    <path id="Path_11825" data-name="Path 11825" d="M1156.652,670.584a16.361,16.361,0,0,0-8.352,9.907l.976.307s3.4-7.051,7.2-9.238S1156.652,670.584,1156.652,670.584Z" transform="translate(2659.707 4528.326)" fill="#599dad"/>
    <path id="Path_11826" data-name="Path 11826" d="M1015.7,382.838s-14.047-7.322-7.918-18.006c0,0,4.972-6.6,10.431-8.425,0,0-2.477,15.746.488,16.018s1.5-17.717,1.5-17.717,14.336-7.43,20.049-7.051c0,0-8.569,15.548-5.622,15.1s12.6-16.235,12.6-16.235,14.824-3.2,17.482,5.568-1.085,13.288-3.272,13.92-16.379.85-15.945,2.676,10.07,4.483,15.367,2.676c0,0-5.46,14.716-13.215,14.21s-10.287-5.225-15.078-5.442-8.262,1.157-5.839,2.386,10.522.108,14.481,3.272,7.141,5.1.018,6.8-20.049,1.139-22.8-4.3Z" transform="translate(2776.087 4793.998)" fill="#b3c2d2"/>
    <path id="Path_11827" data-name="Path 11827" d="M1085.958,396.3s-38.272,13.667-42.268,27.787a29.428,29.428,0,0,1-3.29,13.541l.09,2.766s3.76-9.509,5.93-10.865C1046.42,429.528,1037.417,417.633,1085.958,396.3Z" transform="translate(2748.101 4752.75)" fill="#86a8d1"/>
    <path id="Path_11828" data-name="Path 11828" d="M1025.745,616.9a25.533,25.533,0,0,0-1.971,20.157l1.537-.47s-1.862-12.076,1.085-18.277S1025.745,616.9,1025.745,616.9Z" transform="translate(2762.755 4573.479)" fill="#6bb7bf"/>
    <path id="Path_11864" data-name="Path 11864" d="M0,0H98.438V128.368H0Z" transform="translate(3728.209 5196.217)" fill="#078b78"/>
    <path id="Path_53986" data-name="Path 53986" d="M0,0H96.774V128.368H0Z" transform="translate(3731.427 5196.217)" fill="#008f7a"/>
    <path id="Path_11829" data-name="Path 11829" d="M1547.688,1267.434h-19.507c-1.048-.886.723-2.893,2.567-3.037a11.361,11.361,0,0,1,2.983.362c.271-3.579,1.808-19.6,7.575-18.946,6.49.723,0,7.051-1.826,10.793a85.423,85.423,0,0,0-3.453,8.66l1.627.325c.868-2.639,4.068-11.534,8.135-11.028,4.791.615,2.856,4.176-.524,6.291-2.495,1.555-5.55,3.778-7,4.845a22.015,22.015,0,0,0,3.814.307C1545.428,1265.916,1547.056,1266.91,1547.688,1267.434Z" transform="translate(2348.759 4056.832)" fill="#b3c2d2"/>
    <path id="Path_11830" data-name="Path 11830" d="M783.791,540.953H687.016c.542-7.322-.271-12.637-1.555-16.47-2.495-7.34-6.761-9.184-6.761-9.184h91.26c7.792,0,13.83,4.7,15.475,10.919.072.235.127.47.181.705C787.171,534.047,783.863,540.809,783.791,540.953Z" transform="translate(3044.411 4655.263)" fill="#10b59d"/>
    <path id="Path_11831" data-name="Path 11831" d="M814.429,582.57H717.655c.542-7.322-.271-12.637-1.555-16.47,9.889,1.826,34.385,5.677,60.6,5.026,16.958-.416,30.372-1.555,39.556-2.585C817.81,575.664,814.5,582.425,814.429,582.57Z" transform="translate(3013.772 4613.647)" fill="#10b59d"/>
    <g id="Group_28799" data-name="Group 28799" transform="translate(-5)">
      <path id="Path_11832" data-name="Path 11832" d="M881.448,810H830.611a1.211,1.211,0,0,1-1.211-1.211h0a1.211,1.211,0,0,1,1.211-1.193h50.837a1.211,1.211,0,0,1,1.193,1.193h0A1.211,1.211,0,0,1,881.448,810Z" transform="translate(2920.955 4415.807)" fill="#ecf1f9"/>
      <rect id="Rectangle_8549" data-name="Rectangle 8549" width="33.174" height="2.408" rx="1.204" transform="translate(3750.355 5227.456)" fill="#ecf1f9"/>
      <path id="Path_11834" data-name="Path 11834" d="M881.448,950.2H830.611a1.211,1.211,0,0,1-1.211-1.193h0a1.211,1.211,0,0,1,1.211-1.211h50.837a1.211,1.211,0,0,1,1.193,1.211h0A1.211,1.211,0,0,1,881.448,950.2Z" transform="translate(2920.955 4300.953)" fill="#ecf1f9"/>
      <rect id="Rectangle_8550" data-name="Rectangle 8550" width="33.174" height="2.408" rx="1.204" transform="translate(3750.355 5252.802)" fill="#ecf1f9"/>
      <path id="Path_11836" data-name="Path 11836" d="M881.448,1067.2H830.611a1.211,1.211,0,0,1-1.211-1.193h0a1.211,1.211,0,0,1,1.211-1.211h50.837a1.211,1.211,0,0,1,1.193,1.211h0A1.211,1.211,0,0,1,881.448,1067.2Z" transform="translate(2920.955 4205.104)" fill="#ecf1f9"/>
      <rect id="Rectangle_8551" data-name="Rectangle 8551" width="33.174" height="2.408" rx="1.204" transform="translate(3750.355 5273.954)" fill="#ecf1f9"/>
    </g>
    <path id="Path_11838" data-name="Path 11838" d="M935.759,691.684H904.592a1.41,1.41,0,0,1-1.392-1.392h0a1.392,1.392,0,0,1,1.392-1.392h31.167a1.392,1.392,0,0,1,1.41,1.392h0A1.41,1.41,0,0,1,935.759,691.684Z" transform="translate(2860.497 4513.048)" fill="#ecf1f9"/>
    <path id="Path_11839" data-name="Path 11839" d="M905.5,715.5H857.21a1.41,1.41,0,0,1-1.41-1.41h0a1.41,1.41,0,0,1,1.41-1.392H905.5a1.41,1.41,0,0,1,1.392,1.392h0a1.41,1.41,0,0,1-1.392,1.41Z" transform="translate(2899.328 4493.55)" fill="#ecf1f9"/>
    <path id="Path_11841" data-name="Path 11841" d="M1311.247,1026.245a20.912,20.912,0,0,1-.723,4.013,14.5,14.5,0,0,1-2.694,3.073c-.687.4.416-2.676.271-3.29s-.561,1.1-.868,1.139-.217-1.482-.235-2.043,1.482-1.916,2.007-3.109S1311.247,1026.245,1311.247,1026.245Z" transform="translate(2529.699 4237.26)" fill="#ffccbe"/>
    <path id="Path_11842" data-name="Path 11842" d="M1075.45,830.76l-.759-1.464s.38-2.6-2.892-4.248a1.582,1.582,0,0,0-1.862.488c-.669.976,1.175.723,1.085,2.26a2.853,2.853,0,0,0,1.645,2.947l.832.958Z" transform="translate(2724.024 4401.613)" fill="#ffccbe"/>
    <path id="Path_11843" data-name="Path 11843" d="M1117.824,835.583a25.925,25.925,0,0,1-18.259,18.277c-4.809,1.392-15.765-14.481-15.765-14.481s.38-1.464,2.8-1.121c0,0,10.648,7.051,12,7.828s9.021-8.75,12.583-10.269A9.147,9.147,0,0,1,1117.824,835.583Z" transform="translate(2712.547 4393.302)" fill="#fcba64"/>
    <rect id="Rectangle_8552" data-name="Rectangle 8552" width="2.893" height="14.51" transform="translate(3788.727 5228.936) rotate(-81.3)" fill="#7398e6"/>
    <path id="Path_11844" data-name="Path 11844" d="M1025,823.8l3.109,1.952.452-2.856Z" transform="translate(2760.717 4403.272)" fill="#2c2c2c"/>
    <path id="Path_11845" data-name="Path 11845" d="M1123.552,836.293l-.145.9a.994.994,0,0,1-1.157.85l-.651-.109.434-2.838.723.108a.94.94,0,0,1,.8,1.085Z" transform="translate(2681.581 4393.278)" fill="#2c2c2c"/>
    <path id="Path_11846" data-name="Path 11846" d="M1342.515,1313.032s1.916,1.753,1.537,3-2.1,2.061-2.332,3.58-1.175,2.35-2.025,2.35h-4s-.633-1.067.868-1.392,2.061-2.115,1.97-3.76a29.414,29.414,0,0,1,.145-3.869l3.164-.741Z" transform="translate(2506.295 4002.431)" fill="#2c2c2c"/>
    <path id="Path_11847" data-name="Path 11847" d="M1192.945,1334.89s.344,3.977-.488,4.393H1181.7s0-1.247,1.717-1.519,4.773-1.283,5.279-3.543S1192.945,1334.89,1192.945,1334.89Z" transform="translate(2632.345 3985.093)" fill="#233862"/>
    <path id="Path_11848" data-name="Path 11848" d="M1193.7,1026.558s.56,6.978,1.229,15.367c.9,11.389,2.007,25.382,2.115,28.022.181,4.61.922,11.968.922,11.968s1.772,1.754,5.333,1.012a118.754,118.754,0,0,0,4.068-21.622c.018-.181.036-.38.036-.561.85-11.317,2.151-35.145,2.151-35.145Z" transform="translate(2622.515 4237.218)" fill="#4c4b73"/>
    <path id="Path_11849" data-name="Path 11849" d="M1193.7,1026.558s.56,6.978,1.229,15.367l12.438,19.38c.018-.181.036-.38.036-.561.85-11.317,2.151-35.145,2.151-35.145Z" transform="translate(2622.515 4237.218)" fill="#3a3a5b"/>
    <path id="Path_11850" data-name="Path 11850" d="M1208,1014.856s10.232,25.256,16.958,37.133,8.84,15.186,8.84,15.186,3.851-1.519,4.212-2.567c0,0-2.585-22.905-7.087-28.492-2.549-3.164-5.532-12.637-5.677-15.945s-.9-9.871-.9-9.871Z" transform="translate(2610.8 4249.751)" fill="#4c4b73"/>
    <path id="Path_11851" data-name="Path 11851" d="M1233.019,782.188s-6.924,3.345-10.919,2.1a9.672,9.672,0,0,1,2.712-2.151c-.145-.814-.253-1.5-.307-2.1a17.963,17.963,0,0,1-.181-2.133l2.676-2.1,2.531-2.007A10.192,10.192,0,0,0,1233.019,782.188Z" transform="translate(2599.249 4443.496)" fill="#ffccbe"/>
    <path id="Path_11852" data-name="Path 11852" d="M1210.78,848.747c.018.416-.886.9-1.3,1.085a28.147,28.147,0,0,1-8.859,2.513c-3.688.38-8.063-.452-9.564-.434a.578.578,0,0,1-.416-.163c-.108-.072-.2-4.538-.108-10.142,0-.235,0-.452.018-.687v-.072c.018-2.187.09-4.483.2-6.779a74.247,74.247,0,0,1,1.3-12.619,13.806,13.806,0,0,1,4.321-6.8l1.392-1.211a6.634,6.634,0,0,0,4.285-.506c1.609-.777,3.326-1.609,3.6-1.392,2.1,1.519,3.507,4.954,4.248,9.347a47.822,47.822,0,0,1,.633,8.316c0,1.085-.036,2.206-.09,3.308a105.15,105.15,0,0,0,.217,14.192C1210.708,847.572,1210.762,848.259,1210.78,848.747Z" transform="translate(2625.14 4412.606)" fill="#ffd186"/>
    <path id="Path_11853" data-name="Path 11853" d="M1247.314,890.97c-24.243-.036-4.465-26.3-4.465-26.3l3.923-1.266a75.4,75.4,0,0,1,.452,8.877c0,1.157-.018,2.35-.072,3.543C1246.9,882.2,1247.151,887.77,1247.314,890.97Z" transform="translate(2588.48 4370.094)" fill="#fcba64"/>
    <path id="Path_11854" data-name="Path 11854" d="M1239.661,785.045a9.166,9.166,0,0,1-5.08,4.086A17.987,17.987,0,0,1,1234.4,787l2.676-2.1Z" transform="translate(2589.173 4434.403)" fill="#e98c94"/>
    <path id="Path_11855" data-name="Path 11855" d="M1221.859,747.315s6.6,1.085,7.231-2.983,1.88-6.653-2.314-7.5-5.243.56-5.785,1.862S1220.159,746.936,1221.859,747.315Z" transform="translate(2600.503 4473.994)" fill="#ffccbe"/>
    <path id="Path_11856" data-name="Path 11856" d="M1221.8,725.083c.072-.072.2-.127.506-.145a1.066,1.066,0,0,0-.56-.163,1.58,1.58,0,0,0-1.031-1.374.9.9,0,0,1,.434.669c-.85-.886-2.676-1.519-7.738-1.121-6.671.524-4.465,4.809-3.616,5.315s3.055-.886,4.664-.759,1.9,2.459,2.459,2.766.325-.235,1.067-.579.813.886.6,1.681.8,1.862.8,1.862l1.031-1.121c1.031-1.1,1.989-5.767,1.519-6.779C1221.889,725.264,1221.853,725.173,1221.8,725.083Z" transform="translate(2610.18 4485.253)" fill="#2c2c2c"/>
    <path id="Path_11857" data-name="Path 11857" d="M1259.941,811.5s4.176,1.971,6.183,5.026c3.109,4.719,6.707,21.911,6.779,23.5s-2.64,12.836-2.64,12.836-2.73-.181-3.435-1.555c0,0,.542-11.552.2-12.293s-11.39-15.493-10.16-18.639S1259.941,811.5,1259.941,811.5Z" transform="translate(2570.845 4412.612)" fill="#ffd186"/>
    <path id="Path_11858" data-name="Path 11858" d="M1088.029,836.665a1.3,1.3,0,0,0-.4-1.3c-.615-.416-1.193-1.5-1.464-1.338s.307,1.266.145,2.459C1086.257,836.9,1087.234,838,1088.029,836.665Z" transform="translate(2710.668 4394.172)" fill="#ffccbe"/>
    <path id="Path_11859" data-name="Path 11859" d="M865.738,1206.246H806.223a.723.723,0,0,1-.723-.723h0a.723.723,0,0,1,.723-.723h59.514a.723.723,0,0,1,.723.723h0A.723.723,0,0,1,865.738,1206.246Z" transform="translate(2940.534 4090.415)" fill="#ecf1f9"/>
    <path id="Path_11860" data-name="Path 11860" d="M865.738,1222.246H806.223a.723.723,0,0,1-.723-.723h0a.723.723,0,0,1,.723-.723h59.514a.723.723,0,0,1,.723.723h0A.723.723,0,0,1,865.738,1222.246Z" transform="translate(2940.534 4077.307)" fill="#ecf1f9"/>
    <path id="Path_11861" data-name="Path 11861" d="M865.738,1240.046H806.223a.723.723,0,0,1-.723-.723h0a.723.723,0,0,1,.723-.723h59.514a.723.723,0,0,1,.723.723h0A.723.723,0,0,1,865.738,1240.046Z" transform="translate(2940.534 4062.725)" fill="#ecf1f9"/>
    <path id="Path_11862" data-name="Path 11862" d="M857.874,1257.846h-51.65a.723.723,0,0,1-.723-.723h0a.723.723,0,0,1,.723-.723h51.65a.723.723,0,0,1,.723.723h0A.723.723,0,0,1,857.874,1257.846Z" transform="translate(2940.534 4048.143)" fill="#ecf1f9"/>
    <path id="Path_11863" data-name="Path 11863" d="M495.767,1366.133H200.707a.325.325,0,0,1-.307-.325h0a.325.325,0,0,1,.307-.307h295.06a.325.325,0,0,1,.325.307h0A.325.325,0,0,1,495.767,1366.133Z" transform="translate(3436.241 3958.767)" fill="#2c2c2c"/>
  </g>
</svg>
