<svg xmlns="http://www.w3.org/2000/svg" width="82" height="82" viewBox="0 0 82 82">
  <g id="Group_28747" data-name="Group 28747" transform="translate(-312 -118)">
    <path id="Path_53561" data-name="Path 53561" d="M8,0H74a8,8,0,0,1,8,8V74a8,8,0,0,1-8,8H8a8,8,0,0,1-8-8V8A8,8,0,0,1,8,0Z" transform="translate(312 118)" fill="#006da8"/>
    <g id="_14-Gift" data-name="14-Gift" transform="translate(331 137)">
      <path id="Path_13196" data-name="Path 13196" d="M39.673,25H51.789V47.886A2.692,2.692,0,0,1,49.1,50.578H39V25Z" transform="translate(-12.422 -7.846)" fill="#006da8"/>
      <path id="Path_13197" data-name="Path 13197" d="M18.789,25V50.578H8.692A2.692,2.692,0,0,1,6,47.886V25Z" transform="translate(-1.634 -7.846)" fill="#006da8"/>
      <path id="Path_13198" data-name="Path 13198" d="M16.481,13v8.077H2.346A1.35,1.35,0,0,1,1,19.731V14.346A1.35,1.35,0,0,1,2.346,13Z" transform="translate(0 -3.923)" fill="#006da8"/>
      <path id="Path_13199" data-name="Path 13199" d="M55.481,14.346v5.385a1.35,1.35,0,0,1-1.346,1.346H40V13H54.135A1.35,1.35,0,0,1,55.481,14.346Z" transform="translate(-12.749 -3.923)" fill="#006da8"/>
      <path id="Path_13200" data-name="Path 13200" d="M33.731,10.346v1.346H27V10.346A1.35,1.35,0,0,1,28.346,9h4.039A1.35,1.35,0,0,1,33.731,10.346Z" transform="translate(-8.499 -2.615)" fill="#cb3541"/>
      <path id="Path_13201" data-name="Path 13201" d="M32.385,10.673H28.346A1.346,1.346,0,0,1,27.188,10a1.329,1.329,0,0,0-.188.673v1.346h6.731V10.673A1.329,1.329,0,0,0,33.543,10,1.346,1.346,0,0,1,32.385,10.673Z" transform="translate(-8.499 -2.942)" fill="#a81e29"/>
      <path id="Path_13202" data-name="Path 13202" d="M21.116,9.366v1.346h-10.1A1.978,1.978,0,0,1,9,8.692C9,6,12.365,6,12.365,6A13.2,13.2,0,0,1,21.116,9.366Z" transform="translate(-2.615 -1.634)" fill="#e03e3e"/>
      <path id="Path_13203" data-name="Path 13203" d="M17.366,1C22.75,1,22.75,7.731,22.75,7.731A13.2,13.2,0,0,0,14,4.366,3.3,3.3,0,0,1,17.366,1Z" transform="translate(-4.25 0)" fill="#cb3541"/>
      <path id="Path_13204" data-name="Path 13204" d="M37,7.731S37,1,42.385,1A3.3,3.3,0,0,1,45.75,4.366,13.2,13.2,0,0,0,37,7.731Z" transform="translate(-11.768 0)" fill="#cb3541"/>
      <path id="Path_13205" data-name="Path 13205" d="M37,9.366A13.2,13.2,0,0,1,45.75,6s3.366,0,3.366,2.692A1.978,1.978,0,0,1,47.1,10.712H37Z" transform="translate(-11.768 -1.634)" fill="#e03e3e"/>
      <path id="Path_13206" data-name="Path 13206" d="M25,25h9.423V50.578H25Z" transform="translate(-7.846 -7.846)" fill="#cb3541"/>
      <path id="Path_13207" data-name="Path 13207" d="M34.77,13v8.077H24V13H34.77Z" transform="translate(-7.519 -3.923)" fill="#ff6161"/>
      <path id="Path_13208" data-name="Path 13208" d="M52.252,38.594c.141.639,1.6,1.144,1.6,1.831s-1.454,1.191-1.6,1.831c-.148.66.942,1.764.666,2.356s-1.811.417-2.221.942.114,2-.4,2.416-1.8-.431-2.4-.135-.74,1.851-1.38,2-1.434-1.185-2.1-1.185-1.474,1.333-2.1,1.185-.8-1.71-1.387-2-1.885.552-2.39.135.007-1.9-.4-2.416-1.925-.337-2.215-.942.814-1.7.666-2.356c-.141-.639-1.6-1.144-1.6-1.831s1.454-1.191,1.6-1.831c.148-.66-.942-1.764-.666-2.356s1.811-.417,2.221-.942-.114-2,.4-2.416,1.8.431,2.4.135.74-1.851,1.38-2,1.434,1.185,2.1,1.185,1.474-1.333,2.1-1.185.8,1.71,1.387,2,1.885-.552,2.39-.135-.007,1.9.4,2.416,1.925.337,2.215.942S52.1,37.934,52.252,38.594Z" transform="translate(-11.114 -9.808)" fill="#cb3541"/>
      <path id="Path_13209" data-name="Path 13209" d="M52.808,41.4c0,.538-1.144.936-1.254,1.438-.115.52.74,1.385.522,1.854s-1.422.327-1.741.736.086,1.574-.314,1.9-1.414-.337-1.88-.107-.583,1.455-1.089,1.573c-.491.114-1.123-.935-1.648-.935s-1.157,1.049-1.648.935c-.507-.118-.632-1.346-1.089-1.573s-1.481.433-1.88.107.005-1.491-.315-1.9-1.517-.258-1.741-.736.637-1.334.522-1.853c-.11-.5-1.254-.9-1.254-1.438s1.144-.936,1.254-1.438c.115-.52-.74-1.385-.522-1.854s1.422-.327,1.741-.736-.086-1.574.314-1.9,1.414.337,1.88.107.583-1.455,1.089-1.573c.491-.114,1.123.935,1.648.935s1.157-1.049,1.648-.935c.507.118.632,1.346,1.089,1.573s1.481-.433,1.88-.107-.005,1.491.315,1.9,1.517.26,1.741.736-.637,1.334-.522,1.853C51.664,40.469,52.808,40.866,52.808,41.4Z" transform="translate(-12.095 -10.788)" fill="#ff6161"/>
      <path id="Path_13210" data-name="Path 13210" d="M51.019,51.039a2.019,2.019,0,1,1,2.019-2.019A2.019,2.019,0,0,1,51.019,51.039Zm0-2.692a.673.673,0,1,0,.673.673A.673.673,0,0,0,51.019,48.346Z" transform="translate(-15.691 -15.037)" fill="#fbfbfb"/>
      <path id="Path_13211" data-name="Path 13211" d="M45.019,41.039a2.019,2.019,0,1,1,2.019-2.019A2.019,2.019,0,0,1,45.019,41.039Zm0-2.692a.673.673,0,1,0,.673.673A.673.673,0,0,0,45.019,38.346Z" transform="translate(-13.73 -11.768)" fill="#fbfbfb"/>
      <path id="Path_13212" data-name="Path 13212" d="M43.673,47.077a.673.673,0,0,1-.476-1.149L49.928,39.2a.673.673,0,1,1,.952.952L44.149,46.88A.673.673,0,0,1,43.673,47.077Z" transform="translate(-13.73 -12.422)" fill="#fbfbfb"/>
      <path id="Path_13213" data-name="Path 13213" d="M51.789,27.692V25H39v2.692Z" transform="translate(-12.422 -7.846)" fill="#015794"/>
      <path id="Path_13214" data-name="Path 13214" d="M49.1,57.692H39v2.692H49.1a2.692,2.692,0,0,0,2.692-2.692V55A2.692,2.692,0,0,1,49.1,57.692Z" transform="translate(-12.422 -17.652)" fill="#015794"/>
      <path id="Path_13215" data-name="Path 13215" d="M9.366,35.77V30.385a2.692,2.692,0,0,1,2.692-2.692h6.731V25H6V47.886a2.692,2.692,0,0,0,2.692,2.692h10.1v-3A12.116,12.116,0,0,1,9.366,35.77Z" transform="translate(-1.634 -7.846)" fill="#015794"/>
      <path id="Path_13216" data-name="Path 13216" d="M27.692,58.849A12.151,12.151,0,0,1,25,58.539v3h9.423V58.849Z" transform="translate(-7.846 -18.809)" fill="#a81e29"/>
      <path id="Path_13217" data-name="Path 13217" d="M25,25h9.423v2.692H25Z" transform="translate(-7.846 -7.846)" fill="#a81e29"/>
      <path id="Path_13218" data-name="Path 13218" d="M8.068,17.712a2.356,2.356,0,1,1,0-4.712H2.346A1.35,1.35,0,0,0,1,14.346v5.385a1.35,1.35,0,0,0,1.346,1.346H16.481V17.712Z" transform="translate(0 -3.923)" fill="#015794"/>
      <path id="Path_13219" data-name="Path 13219" d="M54.135,19.346H40v3.366H54.135a1.35,1.35,0,0,0,1.346-1.346V18A1.346,1.346,0,0,1,54.135,19.346Z" transform="translate(-12.749 -5.557)" fill="#015794"/>
      <path id="Path_13220" data-name="Path 13220" d="M24,20v3.366H34.77V20Z" transform="translate(-7.519 -6.211)" fill="#cb3541"/>
      <path id="Path_13221" data-name="Path 13221" d="M20.058,5.223s-3.928-1.306-5.972-.7a4,4,0,0,0-.086.7,13.2,13.2,0,0,1,8.75,3.366,9.072,9.072,0,0,0-1.582-4.965C21.171,4.475,20.926,5.223,20.058,5.223Z" transform="translate(-4.25 -0.858)" fill="#a81e29"/>
      <path id="Path_13222" data-name="Path 13222" d="M40.366,4.863c-1.117,0-1.2-1.236-1.057-2.342C37,4.4,37,8.228,37,8.228a13.2,13.2,0,0,1,8.75-3.366,4.063,4.063,0,0,0-.116-.831A16.082,16.082,0,0,0,40.366,4.863Z" transform="translate(-11.768 -0.497)" fill="#a81e29"/>
      <path id="Path_13223" data-name="Path 13223" d="M18.341,8.35a.678.678,0,0,1-.658.821H11.019A1.346,1.346,0,0,1,9.672,7.824V7.463A2.307,2.307,0,0,0,9,9.171a1.978,1.978,0,0,0,2.019,2.019h10.1V9.844A12.041,12.041,0,0,0,18.2,7.869a3.224,3.224,0,0,1,.139.481Z" transform="translate(-2.615 -2.113)" fill="#cb3541"/>
      <path id="Path_13224" data-name="Path 13224" d="M47.77,9.183H41.106a.678.678,0,0,1-.66-.821,3.156,3.156,0,0,1,.316-.862A12.605,12.605,0,0,0,37,9.856V11.2H47.1a1.978,1.978,0,0,0,2.019-2.019A2.637,2.637,0,0,0,49,8.388,1.346,1.346,0,0,1,47.77,9.183Z" transform="translate(-11.768 -2.125)" fill="#cb3541"/>
      <path id="Path_13225" data-name="Path 13225" d="M49.346,25.991V13H48V25.991a.864.864,0,0,0,1.346,0Z" transform="translate(-15.364 -3.923)" fill="#a81e29"/>
      <path id="Path_13226" data-name="Path 13226" d="M34.948,47.422c-.276-.592.814-1.7.666-2.356-.141-.639-1.6-1.144-1.6-1.831s1.454-1.191,1.6-1.831c.109-.487-.454-1.212-.647-1.8-.56.337-1.782.255-2.039.792-.276.592.814,1.7.666,2.356-.141.639-1.6,1.144-1.6,1.831s1.454,1.191,1.6,1.831c.148.66-.942,1.764-.666,2.356s1.811.417,2.215.942-.108,2,.4,2.416c.252.209.7.1,1.164-.022V48.092C36.1,47.886,35.168,47.884,34.948,47.422Z" transform="translate(-10.134 -12.619)" fill="#961b25"/>
      <g id="Group_24375" data-name="Group 24375" transform="translate(26.578 17.154)">
        <path id="Path_13227" data-name="Path 13227" d="M43.631,56.768c-.639-.148-.8-1.71-1.387-2s-1.885.552-2.39.135.007-1.9-.4-2.416A.929.929,0,0,0,39,52.214v4.014a2.007,2.007,0,0,1,1.225-.112,1.363,1.363,0,0,1,.5.666c.258.552.471,1.237.886,1.333.626.148,1.434-1.185,2.1-1.185s1.474,1.333,2.1,1.185c.414-.1.628-.781.884-1.333a2.51,2.51,0,0,1,.245-.429c-.41-.344-.833-.769-1.212-.769C45.065,55.584,44.257,56.916,43.631,56.768Z" transform="translate(-39 -33.896)" fill="#006da8"/>
        <path id="Path_13228" data-name="Path 13228" d="M54.363,55.944a1.01,1.01,0,0,0-.606.034c-.378.189-.58.917-.851,1.443.482.129.961.256,1.228.038C54.45,57.2,54.373,56.536,54.363,55.944Z" transform="translate(-43.546 -35.105)" fill="#006da8"/>
        <path id="Path_13229" data-name="Path 13229" d="M43.263,33.667a.771.771,0,0,0,.253-.242c-.314-.262-.621-.476-.893-.411-.221.051-.384.277-.528.556A1.885,1.885,0,0,0,43.263,33.667Z" transform="translate(-40.012 -27.616)" fill="#006da8"/>
        <path id="Path_13230" data-name="Path 13230" d="M45.592,29.052a.983.983,0,0,1,.754.3V25H45v4.734C45.16,29.4,45.337,29.111,45.592,29.052Z" transform="translate(-40.961 -25)" fill="#006da8"/>
      </g>
      <path id="Path_13231" data-name="Path 13231" d="M38.315,35.754c-.46-.123-.909-.229-1.164-.021-.352.287-.22,1.077-.233,1.708.388-.172.967-.221,1.4-.363Z" transform="translate(-11.737 -11.315)" fill="#961b25"/>
    </g>
  </g>
</svg>
