<svg xmlns="http://www.w3.org/2000/svg" xmlns:xlink="http://www.w3.org/1999/xlink" width="318.267" height="157.682" viewBox="0 0 318.267 157.682">
  <defs>
    <clipPath id="clip-path">
      <rect id="Rectangle_82" data-name="Rectangle 82" width="318.267" height="157.682"/>
    </clipPath>
  </defs>
  <g id="Rawi_logo" data-name="Rawi logo" transform="translate(0.5 0.222)">
    <g id="Group_54" data-name="Group 54" transform="translate(-0.5 -0.222)" clip-path="url(#clip-path)">
      <path id="Path_1906" data-name="Path 1906" d="M792.879,389.991s-12.408,16.217-37.623,8.054c-9.076-2.939-17.268-11.195-18.837-25.693,0,0,12.525-.537,23.165,7.226,3.023,2.2,6.024,4.343,9.026,6.152,7.569,4.557,15.157,7.019,23.172,3.173,1.018-.489,1.732-.677,1.894-.436.135.193-.089.677-.8,1.523" transform="translate(-614.184 -318.03)" fill="#008f7a"/>
    </g>
    <g id="Group_55" data-name="Group 55" transform="translate(-0.5 -0.222)" clip-path="url(#clip-path)">
      <path id="Path_1907" data-name="Path 1907" d="M961.768,385.236a18.259,18.259,0,0,1-5.812,12.161c-.162-.245-.876-.052-1.893.436-8.016,3.845-15.6,1.384-23.171-3.173,12.8-8.976,19.078-9.4,24.534-11.157s6.436.141,6.343,1.733" transform="translate(-776.463 -326.958)" fill="#005894"/>
    </g>
    <g id="Group_56" data-name="Group 56" transform="translate(-0.5 -0.222)" clip-path="url(#clip-path)">
      <path id="Path_1908" data-name="Path 1908" d="M789.672,101.278s-2.935,20.7-23.371,24.578a48.354,48.354,0,0,0-14.45-5.727s1.589-8.2,11.829-15.406c-.194.048-12.548,3.259-14.589,14.623a21.253,21.253,0,0,0-2.993-.206s1.208-8.505,10.756-14.626a73.527,73.527,0,0,1,14.232-6.9c3.177-1.12,4.1-1.935,4.1-2.6s-.926-.993-2.167-1.527-7.856-4.556-1.187-10.921c0,0-1.173,5.746,2.37,7.873a14.616,14.616,0,0,0,7.739,1.8s-.891,1.514-3.847,2.089c-.639.124-1.3.193-1.3.824s.3,1.169,2.344,1.856a71.079,71.079,0,0,1,10.532,4.267" transform="translate(-622.262 -70.515)" fill="#005894"/>
    </g>
    <g id="Group_57" data-name="Group 57" transform="translate(-0.5 -0.222)" clip-path="url(#clip-path)">
      <path id="Path_1909" data-name="Path 1909" d="M908.045,231.294a45.157,45.157,0,0,0-24.88,8.8,6.811,6.811,0,0,1-8.435.219c-2.128-1.437-2.658-2.373-6.592-4.888,20.436-3.87,23.371-24.578,23.371-24.578s16.782,6.987,16.535,20.444" transform="translate(-724.1 -180.086)" fill="#006da8"/>
    </g>
    <g id="Group_58" data-name="Group 58" transform="translate(-0.5 -0.222)" clip-path="url(#clip-path)">
      <path id="Path_1910" data-name="Path 1910" d="M1084.1,649.847l5.575-5.127s2.829,4.842,4.071,16.284c.7,6.491-2.532,9.17-9.646,11.483-2.039.664-12.269,2.1-16.8,5.174,0,0,3.773-3.192,5.156-4.5s3.386-2.612,7.256-3.448,8.021-1.645,8.354-2.523-.668-10.18-3.966-17.341" transform="translate(-890.292 -550.682)" fill="#005894"/>
    </g>
    <g id="Group_59" data-name="Group 59" transform="translate(-0.5 -0.222)" clip-path="url(#clip-path)">
      <path id="Path_1911" data-name="Path 1911" d="M1036.341,573.81l5.2,32.842-5.832,5.187-4.965-32.928Z" transform="translate(-859.792 -490.114)" fill="#005894"/>
    </g>
    <g id="Group_60" data-name="Group 60" transform="translate(-0.5 -0.222)" clip-path="url(#clip-path)">
      <path id="Path_1912" data-name="Path 1912" d="M886.723,628.237c-1.811-14.933-4.5-20.171-6.734-22.625,0,0-1.682-1.894-3.377-1.741-1.064.1-2.149.351-4.983,2.805a25.123,25.123,0,0,0-6.594,10.351c-1.579,4.256-1.021,8.675,5.479,9.738s8.126,1.677,9.383,2.618,1.487,2.946.1,3.56-3.112.94-7.1,1.882-5.991,2.005-7.849,3.683-5.155,4.5-5.155,4.5c4.643-3.519,15.883-5.03,20.526-6.628s6.658-5.335,6.317-8.142m-16.384-10.163c-1.389-3.778,1.481-9.025,1.481-9.025s4.383.774,7.467,13.209c0,0-7.558-.407-8.948-4.186" transform="translate(-717.208 -515.781)" fill="#005894"/>
    </g>
    <g id="Group_61" data-name="Group 61" transform="translate(-0.5 -0.222)" clip-path="url(#clip-path)">
      <path id="Path_1913" data-name="Path 1913" d="M657.441,626.131l-5.768,5.4s-5.4-.353-7.528-2.827c-2.167-2.515-4.289-5.6-4.289-5.6s-1.233,4.758,2.031,6.85a38.879,38.879,0,0,0,9.04,3.966c2.685.925,5.893,3.4,4.227,6.605s-7.264,8.882-14.082,9.316-15.925.023-22.205-6.4l5.651-5.02s6.908,9.169,25.345,5.572c0,0,.665-3.618-5.951-5.531s-11.394-4.15-9.623-10.568a16.376,16.376,0,0,1,6.482-8.388c3.579-2.09,4.245-2.267,5.446-.677s3.424,7.606,11.222,7.29" transform="translate(-516.094 -527.671)" fill="#005894"/>
    </g>
    <g id="Group_62" data-name="Group 62" transform="translate(-0.5 -0.222)" clip-path="url(#clip-path)">
      <path id="Path_1914" data-name="Path 1914" d="M692.8,853.76l3.912,2.805-4.547,3.98-3.386-2.4-2.649,2.491-4.081-2.869,4.594-4,3.407,2.379Z" transform="translate(-568.815 -729.237)" fill="#005894"/>
    </g>
    <g id="Group_63" data-name="Group 63" transform="translate(-0.5 -0.222)" clip-path="url(#clip-path)">
      <path id="Path_1915" data-name="Path 1915" d="M789.753,877.33a30.775,30.775,0,0,1-2.867-3.974s2.867-.393,2.867-2.928c0-1.621-1.91-2.677-4.388-2.677h-4.933v.416s.2-.017.78-.017a.832.832,0,0,1,.882.865v9.275h1.669v-4.747h1.309c2.743,4.442,3.88,4.976,4.746,4.976a5.023,5.023,0,0,0,1.408-.175v-.337a2.378,2.378,0,0,1-1.471-.677m-5.966-4.624v-4.221a9.749,9.749,0,0,1,1.429-.152c2.579,0,2.691,1.8,2.691,2.358,0,1.542-1.877,2.207-2.781,2.207a3.626,3.626,0,0,1-1.339-.194" transform="translate(-650.91 -741.186)" fill="#008f7a"/>
    </g>
    <g id="Group_64" data-name="Group 64" transform="translate(-0.5 -0.222)" clip-path="url(#clip-path)">
      <path id="Path_1916" data-name="Path 1916" d="M898.253,876.179c-1.171-2.562-3.729-7.979-3.729-7.979h-.6l-5.153,10.457H889.8l1.47-3.035h4.9s1.516,3.732,4.315,3.035v-.251s-1.064.334-2.225-2.225m-6.766-1.212,2.236-4.525,2.237,4.525Z" transform="translate(-741.316 -741.57)" fill="#008f7a"/>
    </g>
    <g id="Group_65" data-name="Group 65" transform="translate(-0.5 -0.222)" clip-path="url(#clip-path)">
      <path id="Path_1917" data-name="Path 1917" d="M995.96,866.823l.011-.58s2.753-.114,3.335,1.229,2.779,7,2.779,7l2.032-5.045s-.634-2.721-2.444-2.721v-.4s2.728-.25,3.413,1.458,2.612,6.709,2.612,6.709l3.129-7.983h.841l-4.188,10.82h-.272l-2.753-6.81-2.56,6.81h-.428s-3.451-9.02-3.736-9.612-.57-.887-1.771-.884" transform="translate(-830.761 -739.899)" fill="#008f7a"/>
    </g>
    <g id="Group_66" data-name="Group 66" transform="translate(-0.5 -0.222)" clip-path="url(#clip-path)">
      <path id="Path_1918" data-name="Path 1918" d="M1134.44,868.26v-.4h1.857a2.915,2.915,0,0,1,2.3,1.423c.728,1.009,2.87,3.931,2.87,3.931l3.772-5.354h.849l-4.244,6.065v4.511h-1.7V874.02s-3.922-5.069-4.232-5.437-1.478-.324-1.478-.324" transform="translate(-946.318 -741.28)" fill="#008f7a"/>
    </g>
  </g>
</svg>
